<mxfile host="Electron" agent="Mozilla/5.0 (Windows NT 10.0; Win64; x64) AppleWebKit/537.36 (KHTML, like Gecko) draw.io/28.1.2 Chrome/138.0.7204.243 Electron/37.4.0 Safari/537.36" version="28.1.2">
  <diagram name="Page-1" id="9D9k4VhZIzwYVup0JF98">
    <mxGraphModel dx="920" dy="574" grid="1" gridSize="10" guides="1" tooltips="1" connect="1" arrows="1" fold="1" page="1" pageScale="1" pageWidth="1100" pageHeight="850" math="0" shadow="0">
      <root>
        <mxCell id="0" />
        <mxCell id="1" parent="0" />
        <mxCell id="UjsWW5CjIBIIy-MCBgtg-7" value="&lt;font style=&quot;font-size: 25px;&quot;&gt;Data&lt;br&gt;Flow&lt;br&gt;&lt;/font&gt;&lt;div&gt;&lt;font style=&quot;font-size: 25px;&quot;&gt;Atlas&lt;/font&gt;&lt;/div&gt;&lt;div&gt;&lt;font style=&quot;font-size: 25px;&quot;&gt;&lt;br&gt;&lt;/font&gt;&lt;/div&gt;&lt;div&gt;&lt;font style=&quot;font-size: 25px;&quot;&gt;&lt;br&gt;&lt;/font&gt;&lt;/div&gt;" style="shape=table;startSize=30;container=1;collapsible=1;childLayout=tableLayout;fixedRows=1;rowLines=0;fontStyle=1;align=center;resizeLast=1;html=1;whiteSpace=wrap;" parent="1" vertex="1">
          <mxGeometry x="48" y="106" width="180" height="150" as="geometry" />
        </mxCell>
        <mxCell id="UjsWW5CjIBIIy-MCBgtg-8" value="" style="shape=tableRow;horizontal=0;startSize=0;swimlaneHead=0;swimlaneBody=0;fillColor=none;collapsible=0;dropTarget=0;points=[[0,0.5],[1,0.5]];portConstraint=eastwest;top=0;left=0;right=0;bottom=0;html=1;" parent="UjsWW5CjIBIIy-MCBgtg-7" vertex="1">
          <mxGeometry y="30" width="180" height="30" as="geometry" />
        </mxCell>
        <mxCell id="UjsWW5CjIBIIy-MCBgtg-9" value="PK,FK1" style="shape=partialRectangle;connectable=0;fillColor=none;top=0;left=0;bottom=0;right=0;fontStyle=1;overflow=hidden;html=1;whiteSpace=wrap;" parent="UjsWW5CjIBIIy-MCBgtg-8" vertex="1">
          <mxGeometry width="60" height="30" as="geometry">
            <mxRectangle width="60" height="30" as="alternateBounds" />
          </mxGeometry>
        </mxCell>
        <mxCell id="UjsWW5CjIBIIy-MCBgtg-10" value="Row 1" style="shape=partialRectangle;connectable=0;fillColor=none;top=0;left=0;bottom=0;right=0;align=left;spacingLeft=6;fontStyle=5;overflow=hidden;html=1;whiteSpace=wrap;" parent="UjsWW5CjIBIIy-MCBgtg-8" vertex="1">
          <mxGeometry x="60" width="120" height="30" as="geometry">
            <mxRectangle width="120" height="30" as="alternateBounds" />
          </mxGeometry>
        </mxCell>
        <mxCell id="UjsWW5CjIBIIy-MCBgtg-11" value="" style="shape=tableRow;horizontal=0;startSize=0;swimlaneHead=0;swimlaneBody=0;fillColor=none;collapsible=0;dropTarget=0;points=[[0,0.5],[1,0.5]];portConstraint=eastwest;top=0;left=0;right=0;bottom=1;html=1;" parent="UjsWW5CjIBIIy-MCBgtg-7" vertex="1">
          <mxGeometry y="60" width="180" height="30" as="geometry" />
        </mxCell>
        <mxCell id="UjsWW5CjIBIIy-MCBgtg-12" value="PK,FK2" style="shape=partialRectangle;connectable=0;fillColor=none;top=0;left=0;bottom=0;right=0;fontStyle=1;overflow=hidden;html=1;whiteSpace=wrap;" parent="UjsWW5CjIBIIy-MCBgtg-11" vertex="1">
          <mxGeometry width="60" height="30" as="geometry">
            <mxRectangle width="60" height="30" as="alternateBounds" />
          </mxGeometry>
        </mxCell>
        <mxCell id="UjsWW5CjIBIIy-MCBgtg-13" value="Row 2" style="shape=partialRectangle;connectable=0;fillColor=none;top=0;left=0;bottom=0;right=0;align=left;spacingLeft=6;fontStyle=5;overflow=hidden;html=1;whiteSpace=wrap;" parent="UjsWW5CjIBIIy-MCBgtg-11" vertex="1">
          <mxGeometry x="60" width="120" height="30" as="geometry">
            <mxRectangle width="120" height="30" as="alternateBounds" />
          </mxGeometry>
        </mxCell>
        <mxCell id="UjsWW5CjIBIIy-MCBgtg-14" value="" style="shape=tableRow;horizontal=0;startSize=0;swimlaneHead=0;swimlaneBody=0;fillColor=none;collapsible=0;dropTarget=0;points=[[0,0.5],[1,0.5]];portConstraint=eastwest;top=0;left=0;right=0;bottom=0;html=1;" parent="UjsWW5CjIBIIy-MCBgtg-7" vertex="1">
          <mxGeometry y="90" width="180" height="30" as="geometry" />
        </mxCell>
        <mxCell id="UjsWW5CjIBIIy-MCBgtg-15" value="" style="shape=partialRectangle;connectable=0;fillColor=none;top=0;left=0;bottom=0;right=0;editable=1;overflow=hidden;html=1;whiteSpace=wrap;" parent="UjsWW5CjIBIIy-MCBgtg-14" vertex="1">
          <mxGeometry width="60" height="30" as="geometry">
            <mxRectangle width="60" height="30" as="alternateBounds" />
          </mxGeometry>
        </mxCell>
        <mxCell id="UjsWW5CjIBIIy-MCBgtg-16" value="Row 3" style="shape=partialRectangle;connectable=0;fillColor=none;top=0;left=0;bottom=0;right=0;align=left;spacingLeft=6;overflow=hidden;html=1;whiteSpace=wrap;" parent="UjsWW5CjIBIIy-MCBgtg-14" vertex="1">
          <mxGeometry x="60" width="120" height="30" as="geometry">
            <mxRectangle width="120" height="30" as="alternateBounds" />
          </mxGeometry>
        </mxCell>
        <mxCell id="UjsWW5CjIBIIy-MCBgtg-17" value="" style="shape=tableRow;horizontal=0;startSize=0;swimlaneHead=0;swimlaneBody=0;fillColor=none;collapsible=0;dropTarget=0;points=[[0,0.5],[1,0.5]];portConstraint=eastwest;top=0;left=0;right=0;bottom=0;html=1;" parent="UjsWW5CjIBIIy-MCBgtg-7" vertex="1">
          <mxGeometry y="120" width="180" height="30" as="geometry" />
        </mxCell>
        <mxCell id="UjsWW5CjIBIIy-MCBgtg-18" value="" style="shape=partialRectangle;connectable=0;fillColor=none;top=0;left=0;bottom=0;right=0;editable=1;overflow=hidden;html=1;whiteSpace=wrap;" parent="UjsWW5CjIBIIy-MCBgtg-17" vertex="1">
          <mxGeometry width="60" height="30" as="geometry">
            <mxRectangle width="60" height="30" as="alternateBounds" />
          </mxGeometry>
        </mxCell>
        <mxCell id="UjsWW5CjIBIIy-MCBgtg-19" value="Row 4" style="shape=partialRectangle;connectable=0;fillColor=none;top=0;left=0;bottom=0;right=0;align=left;spacingLeft=6;overflow=hidden;html=1;whiteSpace=wrap;" parent="UjsWW5CjIBIIy-MCBgtg-17" vertex="1">
          <mxGeometry x="60" width="120" height="30" as="geometry">
            <mxRectangle width="120" height="30" as="alternateBounds" />
          </mxGeometry>
        </mxCell>
        <mxCell id="UjsWW5CjIBIIy-MCBgtg-64" value="" style="group" parent="1" vertex="1" connectable="0">
          <mxGeometry x="276" y="481" width="150" height="150" as="geometry" />
        </mxCell>
        <mxCell id="UjsWW5CjIBIIy-MCBgtg-63" value="" style="ellipse;whiteSpace=wrap;html=1;aspect=fixed;fillColor=#ffff88;strokeColor=none;strokeWidth=21;" parent="UjsWW5CjIBIIy-MCBgtg-64" vertex="1">
          <mxGeometry width="150" height="150" as="geometry" />
        </mxCell>
        <mxCell id="UjsWW5CjIBIIy-MCBgtg-54" value="" style="html=1;shadow=0;dashed=0;align=center;verticalAlign=middle;shape=mxgraph.arrows2.twoWayArrow;dy=0.65;dx=22;rotation=90;fillColor=#0000FF;strokeColor=#6F0000;fontColor=#ffffff;fontFamily=Helvetica;fontSize=12;" parent="UjsWW5CjIBIIy-MCBgtg-64" vertex="1">
          <mxGeometry x="-41.08333333333326" y="67.5" width="116.66666666666667" height="15" as="geometry" />
        </mxCell>
        <mxCell id="UjsWW5CjIBIIy-MCBgtg-55" value="" style="html=1;shadow=0;dashed=0;align=center;verticalAlign=middle;shape=mxgraph.arrows2.twoWayArrow;dy=0.65;dx=22;rotation=90;fillColor=#0000FF;strokeColor=#6F0000;fontColor=#ffffff;fontFamily=Helvetica;fontSize=12;" parent="UjsWW5CjIBIIy-MCBgtg-64" vertex="1">
          <mxGeometry x="-2.5" y="67.5" width="116.66666666666667" height="15" as="geometry" />
        </mxCell>
        <mxCell id="UjsWW5CjIBIIy-MCBgtg-56" value="" style="html=1;shadow=0;dashed=0;align=center;verticalAlign=middle;shape=mxgraph.arrows2.twoWayArrow;dy=0.65;dx=22;rotation=90;fillColor=#0000FF;strokeColor=#6F0000;fontColor=#ffffff;fontFamily=Helvetica;fontSize=12;" parent="UjsWW5CjIBIIy-MCBgtg-64" vertex="1">
          <mxGeometry x="35.5" y="67.5" width="116.66666666666667" height="15" as="geometry" />
        </mxCell>
        <mxCell id="UjsWW5CjIBIIy-MCBgtg-57" value="" style="html=1;shadow=0;dashed=0;align=center;verticalAlign=middle;shape=mxgraph.arrows2.twoWayArrow;dy=0.65;dx=22;rotation=90;fillColor=#0000FF;strokeColor=#6F0000;fontColor=#ffffff;" parent="UjsWW5CjIBIIy-MCBgtg-64" vertex="1">
          <mxGeometry x="74.4966666666669" y="67.5" width="116.66666666666667" height="15" as="geometry" />
        </mxCell>
        <mxCell id="UjsWW5CjIBIIy-MCBgtg-58" value="" style="html=1;shadow=0;dashed=0;align=center;verticalAlign=middle;shape=mxgraph.arrows2.arrow;dy=0.65;dx=22;rotation=90;fillColor=#0000FF;strokeColor=#6F0000;fontColor=#ffffff;allowArrows=1;fontFamily=Helvetica;fontSize=12;" parent="UjsWW5CjIBIIy-MCBgtg-64" vertex="1">
          <mxGeometry x="-5" y="82" width="84" height="6" as="geometry" />
        </mxCell>
        <mxCell id="UjsWW5CjIBIIy-MCBgtg-59" value="" style="html=1;shadow=0;dashed=0;align=center;verticalAlign=middle;shape=mxgraph.arrows2.arrow;dy=0.65;dx=22;rotation=90;fillColor=#0000FF;strokeColor=#6F0000;fontColor=#ffffff;allowArrows=1;fontFamily=Helvetica;fontSize=12;" parent="UjsWW5CjIBIIy-MCBgtg-64" vertex="1">
          <mxGeometry x="33" y="82" width="84" height="6" as="geometry" />
        </mxCell>
        <mxCell id="UjsWW5CjIBIIy-MCBgtg-60" value="" style="html=1;shadow=0;dashed=0;align=center;verticalAlign=middle;shape=mxgraph.arrows2.arrow;dy=0.65;dx=22;rotation=90;fillColor=#0000FF;strokeColor=#6F0000;fontColor=#ffffff;allowArrows=1;" parent="UjsWW5CjIBIIy-MCBgtg-64" vertex="1">
          <mxGeometry x="72" y="82" width="84" height="6" as="geometry" />
        </mxCell>
        <mxCell id="UjsWW5CjIBIIy-MCBgtg-61" value="&lt;span style=&quot;font-weight: normal;&quot;&gt;DATA FLOW&lt;/span&gt;&lt;div&gt;ATLAS&lt;/div&gt;" style="text;strokeColor=#005700;align=center;fillColor=#008a00;html=1;verticalAlign=middle;whiteSpace=wrap;rounded=1;fontSize=16;fontStyle=1;arcSize=26;fontColor=#FFFFFF;" parent="UjsWW5CjIBIIy-MCBgtg-64" vertex="1">
          <mxGeometry x="10.5" y="53.75" width="130" height="42.5" as="geometry" />
        </mxCell>
        <mxCell id="UjsWW5CjIBIIy-MCBgtg-62" value="" style="ellipse;whiteSpace=wrap;html=1;aspect=fixed;fillColor=none;strokeColor=#FFFFFF;strokeWidth=21;" parent="UjsWW5CjIBIIy-MCBgtg-64" vertex="1">
          <mxGeometry width="150" height="150" as="geometry" />
        </mxCell>
        <mxCell id="UjsWW5CjIBIIy-MCBgtg-66" value="" style="group" parent="1" vertex="1" connectable="0">
          <mxGeometry x="42" y="314" width="200" height="113" as="geometry" />
        </mxCell>
        <mxCell id="UjsWW5CjIBIIy-MCBgtg-1" value="" style="html=1;shadow=0;dashed=0;align=center;verticalAlign=middle;shape=mxgraph.arrows2.triadArrow;dy=10;dx=20;arrowHead=40;flipV=1;" parent="UjsWW5CjIBIIy-MCBgtg-66" vertex="1">
          <mxGeometry x="50" y="43" width="100" height="70" as="geometry" />
        </mxCell>
        <mxCell id="UjsWW5CjIBIIy-MCBgtg-2" value="" style="html=1;shadow=0;dashed=0;align=center;verticalAlign=middle;shape=mxgraph.arrows2.bendArrow;dy=15;dx=38;notch=0;arrowHead=55;rounded=1;direction=south;" parent="UjsWW5CjIBIIy-MCBgtg-66" vertex="1">
          <mxGeometry x="100" width="100" height="100" as="geometry" />
        </mxCell>
        <mxCell id="UjsWW5CjIBIIy-MCBgtg-3" value="" style="html=1;shadow=0;dashed=0;align=center;verticalAlign=middle;shape=mxgraph.arrows2.bendArrow;dy=15;dx=38;notch=0;arrowHead=55;rounded=1;direction=south;flipH=1;" parent="UjsWW5CjIBIIy-MCBgtg-66" vertex="1">
          <mxGeometry width="100" height="100" as="geometry" />
        </mxCell>
        <mxCell id="UjsWW5CjIBIIy-MCBgtg-4" value="DATA&lt;div&gt;FLOW&lt;/div&gt;&lt;div&gt;ATLAS&lt;/div&gt;" style="text;strokeColor=none;align=center;fillColor=none;html=1;verticalAlign=middle;whiteSpace=wrap;rounded=0;fontSize=19;fontStyle=1" parent="UjsWW5CjIBIIy-MCBgtg-66" vertex="1">
          <mxGeometry x="60" y="4" width="80" height="75" as="geometry" />
        </mxCell>
        <mxCell id="UjsWW5CjIBIIy-MCBgtg-67" value="" style="ellipse;whiteSpace=wrap;html=1;aspect=fixed;fillColor=#ffff88;strokeColor=#36393d;" parent="1" vertex="1">
          <mxGeometry x="69.21000000000004" y="481" width="137.5" height="137.5" as="geometry" />
        </mxCell>
        <mxCell id="UjsWW5CjIBIIy-MCBgtg-68" value="" style="html=1;shadow=0;dashed=0;align=center;verticalAlign=middle;shape=mxgraph.arrows2.twoWayArrow;dy=0.65;dx=22;rotation=90;fillColor=#0000FF;strokeColor=#6F0000;fontColor=#ffffff;fontFamily=Helvetica;fontSize=12;" parent="1" vertex="1">
          <mxGeometry x="21.876666666666665" y="542.25" width="116.66666666666667" height="15" as="geometry" />
        </mxCell>
        <mxCell id="UjsWW5CjIBIIy-MCBgtg-69" value="" style="html=1;shadow=0;dashed=0;align=center;verticalAlign=middle;shape=mxgraph.arrows2.twoWayArrow;dy=0.65;dx=22;rotation=90;fillColor=#0000FF;strokeColor=#6F0000;fontColor=#ffffff;fontFamily=Helvetica;fontSize=12;" parent="1" vertex="1">
          <mxGeometry x="60.460000000000036" y="542.25" width="116.66666666666667" height="15" as="geometry" />
        </mxCell>
        <mxCell id="UjsWW5CjIBIIy-MCBgtg-70" value="" style="html=1;shadow=0;dashed=0;align=center;verticalAlign=middle;shape=mxgraph.arrows2.twoWayArrow;dy=0.65;dx=22;rotation=90;fillColor=#0000FF;strokeColor=#6F0000;fontColor=#ffffff;fontFamily=Helvetica;fontSize=12;" parent="1" vertex="1">
          <mxGeometry x="98.46000000000004" y="542.25" width="116.66666666666667" height="15" as="geometry" />
        </mxCell>
        <mxCell id="UjsWW5CjIBIIy-MCBgtg-71" value="" style="html=1;shadow=0;dashed=0;align=center;verticalAlign=middle;shape=mxgraph.arrows2.twoWayArrow;dy=0.65;dx=22;rotation=90;fillColor=#0000FF;strokeColor=#6F0000;fontColor=#ffffff;" parent="1" vertex="1">
          <mxGeometry x="137.4566666666667" y="542.25" width="116.66666666666667" height="15" as="geometry" />
        </mxCell>
        <mxCell id="UjsWW5CjIBIIy-MCBgtg-72" value="" style="html=1;shadow=0;dashed=0;align=center;verticalAlign=middle;shape=mxgraph.arrows2.arrow;dy=0.65;dx=22;rotation=90;fillColor=#0000FF;strokeColor=#6F0000;fontColor=#ffffff;allowArrows=1;fontFamily=Helvetica;fontSize=12;" parent="1" vertex="1">
          <mxGeometry x="57.960000000000036" y="556.75" width="84" height="6" as="geometry" />
        </mxCell>
        <mxCell id="UjsWW5CjIBIIy-MCBgtg-73" value="" style="html=1;shadow=0;dashed=0;align=center;verticalAlign=middle;shape=mxgraph.arrows2.arrow;dy=0.65;dx=22;rotation=90;fillColor=#0000FF;strokeColor=#6F0000;fontColor=#ffffff;allowArrows=1;fontFamily=Helvetica;fontSize=12;" parent="1" vertex="1">
          <mxGeometry x="95.96000000000004" y="556.75" width="84" height="6" as="geometry" />
        </mxCell>
        <mxCell id="UjsWW5CjIBIIy-MCBgtg-74" value="" style="html=1;shadow=0;dashed=0;align=center;verticalAlign=middle;shape=mxgraph.arrows2.arrow;dy=0.65;dx=22;rotation=90;fillColor=#0000FF;strokeColor=#6F0000;fontColor=#ffffff;allowArrows=1;" parent="1" vertex="1">
          <mxGeometry x="134.96000000000004" y="556.75" width="84" height="6" as="geometry" />
        </mxCell>
        <mxCell id="UjsWW5CjIBIIy-MCBgtg-75" value="&lt;span style=&quot;font-weight: normal;&quot;&gt;DATA FLOW&lt;/span&gt;&lt;div&gt;ATLAS&lt;/div&gt;" style="text;strokeColor=#005700;align=center;fillColor=#008a00;html=1;verticalAlign=middle;whiteSpace=wrap;rounded=1;fontSize=16;fontStyle=1;arcSize=26;fontColor=#FFFFFF;" parent="1" vertex="1">
          <mxGeometry x="73.46000000000004" y="528.5" width="130" height="42.5" as="geometry" />
        </mxCell>
        <mxCell id="UjsWW5CjIBIIy-MCBgtg-84" value="" style="group" parent="1" vertex="1" connectable="0">
          <mxGeometry x="71" y="670" width="137.5" height="137.5" as="geometry" />
        </mxCell>
        <mxCell id="UjsWW5CjIBIIy-MCBgtg-41" value="" style="ellipse;whiteSpace=wrap;html=1;aspect=fixed;fillColor=#003300;strokeColor=#36393d;" parent="UjsWW5CjIBIIy-MCBgtg-84" vertex="1">
          <mxGeometry width="137.5" height="137.5" as="geometry" />
        </mxCell>
        <mxCell id="UjsWW5CjIBIIy-MCBgtg-25" value="&lt;span style=&quot;font-weight: normal;&quot;&gt;DATA FLOW&lt;/span&gt;&lt;div&gt;ATLAS&lt;/div&gt;" style="text;strokeColor=#005700;align=center;fillColor=#0000FF;html=1;verticalAlign=middle;whiteSpace=wrap;rounded=1;fontSize=16;fontStyle=1;arcSize=26;fontColor=#00FFFF;" parent="UjsWW5CjIBIIy-MCBgtg-84" vertex="1">
          <mxGeometry x="4.25" y="47.5" width="130" height="42.5" as="geometry" />
        </mxCell>
        <mxCell id="UjsWW5CjIBIIy-MCBgtg-77" value="" style="html=1;shadow=0;dashed=0;align=center;verticalAlign=middle;shape=mxgraph.arrows2.stripedArrow;dy=0.6;dx=40;notch=25;fillColor=#00FFFF;" parent="UjsWW5CjIBIIy-MCBgtg-84" vertex="1">
          <mxGeometry x="19.75" y="19.5" width="100" height="25" as="geometry" />
        </mxCell>
        <mxCell id="UjsWW5CjIBIIy-MCBgtg-78" value="" style="html=1;shadow=0;dashed=0;align=center;verticalAlign=middle;shape=mxgraph.arrows2.stripedArrow;dy=0.6;dx=40;notch=25;fillColor=#00FFFF;direction=west;" parent="UjsWW5CjIBIIy-MCBgtg-84" vertex="1">
          <mxGeometry x="15.75" y="92.5" width="100" height="25" as="geometry" />
        </mxCell>
        <mxCell id="4KK3DppAldW4RQbn6xzX-2" value="" style="group" vertex="1" connectable="0" parent="1">
          <mxGeometry x="483" y="481" width="150" height="150" as="geometry" />
        </mxCell>
        <mxCell id="UjsWW5CjIBIIy-MCBgtg-42" value="" style="ellipse;whiteSpace=wrap;html=1;aspect=fixed;fillColor=#ffff88;strokeColor=none;strokeWidth=21;" parent="4KK3DppAldW4RQbn6xzX-2" vertex="1">
          <mxGeometry width="150" height="150" as="geometry" />
        </mxCell>
        <mxCell id="UjsWW5CjIBIIy-MCBgtg-43" value="" style="html=1;shadow=0;dashed=0;align=center;verticalAlign=middle;shape=mxgraph.arrows2.twoWayArrow;dy=0.65;dx=22;rotation=90;fillColor=#a20025;strokeColor=#6F0000;fontColor=#ffffff;" parent="4KK3DppAldW4RQbn6xzX-2" vertex="1">
          <mxGeometry x="-41.58333333333326" y="67.5" width="116.66666666666667" height="15" as="geometry" />
        </mxCell>
        <mxCell id="UjsWW5CjIBIIy-MCBgtg-44" value="" style="html=1;shadow=0;dashed=0;align=center;verticalAlign=middle;shape=mxgraph.arrows2.twoWayArrow;dy=0.65;dx=22;rotation=90;fillColor=#a20025;strokeColor=#6F0000;fontColor=#ffffff;" parent="4KK3DppAldW4RQbn6xzX-2" vertex="1">
          <mxGeometry x="-3" y="67.5" width="116.66666666666667" height="15" as="geometry" />
        </mxCell>
        <mxCell id="UjsWW5CjIBIIy-MCBgtg-45" value="" style="html=1;shadow=0;dashed=0;align=center;verticalAlign=middle;shape=mxgraph.arrows2.twoWayArrow;dy=0.65;dx=22;rotation=90;fillColor=#a20025;strokeColor=#6F0000;fontColor=#ffffff;" parent="4KK3DppAldW4RQbn6xzX-2" vertex="1">
          <mxGeometry x="35" y="67.5" width="116.66666666666667" height="15" as="geometry" />
        </mxCell>
        <mxCell id="UjsWW5CjIBIIy-MCBgtg-46" value="" style="html=1;shadow=0;dashed=0;align=center;verticalAlign=middle;shape=mxgraph.arrows2.twoWayArrow;dy=0.65;dx=22;rotation=90;fillColor=#a20025;strokeColor=#6F0000;fontColor=#ffffff;" parent="4KK3DppAldW4RQbn6xzX-2" vertex="1">
          <mxGeometry x="73.9966666666669" y="67.5" width="116.66666666666667" height="15" as="geometry" />
        </mxCell>
        <mxCell id="UjsWW5CjIBIIy-MCBgtg-47" value="" style="html=1;shadow=0;dashed=0;align=center;verticalAlign=middle;shape=mxgraph.arrows2.arrow;dy=0.65;dx=22;rotation=90;fillColor=#a20025;strokeColor=#6F0000;fontColor=#ffffff;allowArrows=1;" parent="4KK3DppAldW4RQbn6xzX-2" vertex="1">
          <mxGeometry x="-5.5" y="82" width="84" height="6" as="geometry" />
        </mxCell>
        <mxCell id="UjsWW5CjIBIIy-MCBgtg-48" value="" style="html=1;shadow=0;dashed=0;align=center;verticalAlign=middle;shape=mxgraph.arrows2.arrow;dy=0.65;dx=22;rotation=90;fillColor=#a20025;strokeColor=#6F0000;fontColor=#ffffff;allowArrows=1;" parent="4KK3DppAldW4RQbn6xzX-2" vertex="1">
          <mxGeometry x="32.5" y="82" width="84" height="6" as="geometry" />
        </mxCell>
        <mxCell id="UjsWW5CjIBIIy-MCBgtg-49" value="" style="html=1;shadow=0;dashed=0;align=center;verticalAlign=middle;shape=mxgraph.arrows2.arrow;dy=0.65;dx=22;rotation=90;fillColor=#a20025;strokeColor=#6F0000;fontColor=#ffffff;allowArrows=1;" parent="4KK3DppAldW4RQbn6xzX-2" vertex="1">
          <mxGeometry x="71.5" y="82" width="84" height="6" as="geometry" />
        </mxCell>
        <mxCell id="UjsWW5CjIBIIy-MCBgtg-50" value="&lt;span style=&quot;font-weight: normal;&quot;&gt;DATA FLOW&lt;/span&gt;&lt;div&gt;ATLAS&lt;/div&gt;" style="text;strokeColor=#005700;align=center;fillColor=#008a00;html=1;verticalAlign=middle;whiteSpace=wrap;rounded=1;fontSize=16;fontStyle=1;arcSize=26;fontColor=#FFFFFF;" parent="4KK3DppAldW4RQbn6xzX-2" vertex="1">
          <mxGeometry x="10" y="53.75" width="130" height="42.5" as="geometry" />
        </mxCell>
        <mxCell id="UjsWW5CjIBIIy-MCBgtg-51" value="" style="ellipse;whiteSpace=wrap;html=1;aspect=fixed;fillColor=none;strokeColor=#FFFFFF;strokeWidth=21;" parent="4KK3DppAldW4RQbn6xzX-2" vertex="1">
          <mxGeometry width="150" height="150" as="geometry" />
        </mxCell>
        <mxCell id="4KK3DppAldW4RQbn6xzX-5" value="" style="group" vertex="1" connectable="0" parent="1">
          <mxGeometry x="1592" y="169" width="146" height="146" as="geometry" />
        </mxCell>
        <mxCell id="UjsWW5CjIBIIy-MCBgtg-79" value="" style="ellipse;whiteSpace=wrap;html=1;aspect=fixed;fillColor=#003300;strokeColor=#00FFFF;strokeWidth=2;" parent="4KK3DppAldW4RQbn6xzX-5" vertex="1">
          <mxGeometry x="4.25" y="4.5" width="137.5" height="137.5" as="geometry" />
        </mxCell>
        <mxCell id="UjsWW5CjIBIIy-MCBgtg-80" value="&lt;span style=&quot;font-weight: normal;&quot;&gt;DATA FLOW&lt;/span&gt;&lt;div&gt;ATLAS&lt;/div&gt;" style="text;strokeColor=#005700;align=center;fillColor=#0000FF;html=1;verticalAlign=middle;whiteSpace=wrap;rounded=1;fontSize=16;fontStyle=1;arcSize=26;fontColor=#00FFFF;" parent="4KK3DppAldW4RQbn6xzX-5" vertex="1">
          <mxGeometry x="0.25" y="52" width="145.5" height="42.5" as="geometry" />
        </mxCell>
        <mxCell id="UjsWW5CjIBIIy-MCBgtg-81" value="" style="html=1;shadow=0;dashed=0;align=center;verticalAlign=middle;shape=mxgraph.arrows2.stripedArrow;dy=0.6;dx=40;notch=25;fillColor=#00FFFF;" parent="4KK3DppAldW4RQbn6xzX-5" vertex="1">
          <mxGeometry x="23" y="24" width="100" height="25" as="geometry" />
        </mxCell>
        <mxCell id="UjsWW5CjIBIIy-MCBgtg-82" value="" style="html=1;shadow=0;dashed=0;align=center;verticalAlign=middle;shape=mxgraph.arrows2.stripedArrow;dy=0.6;dx=40;notch=25;fillColor=#00FFFF;direction=west;" parent="4KK3DppAldW4RQbn6xzX-5" vertex="1">
          <mxGeometry x="23" y="97" width="100" height="25" as="geometry" />
        </mxCell>
        <mxCell id="4KK3DppAldW4RQbn6xzX-1" value="" style="ellipse;whiteSpace=wrap;html=1;aspect=fixed;fillColor=none;strokeColor=#FFFFFF;strokeWidth=7;" vertex="1" parent="4KK3DppAldW4RQbn6xzX-5">
          <mxGeometry width="146" height="146" as="geometry" />
        </mxCell>
        <mxCell id="4KK3DppAldW4RQbn6xzX-3" value="" style="ellipse;whiteSpace=wrap;html=1;aspect=fixed;fillColor=none;strokeColor=#00FFFF;strokeWidth=2;" vertex="1" parent="4KK3DppAldW4RQbn6xzX-5">
          <mxGeometry x="4.25" y="4.5" width="137.5" height="137.5" as="geometry" />
        </mxCell>
        <mxCell id="4KK3DppAldW4RQbn6xzX-13" value="" style="group" vertex="1" connectable="0" parent="1">
          <mxGeometry x="1410" y="177.5" width="137.5" height="137.5" as="geometry" />
        </mxCell>
        <mxCell id="4KK3DppAldW4RQbn6xzX-14" value="" style="ellipse;whiteSpace=wrap;html=1;aspect=fixed;fillColor=#003300;strokeColor=#36393d;" vertex="1" parent="4KK3DppAldW4RQbn6xzX-13">
          <mxGeometry width="137.5" height="137.5" as="geometry" />
        </mxCell>
        <mxCell id="4KK3DppAldW4RQbn6xzX-15" value="&lt;span style=&quot;font-weight: normal;&quot;&gt;DATA FLOW&lt;/span&gt;&lt;div&gt;ATLAS&lt;/div&gt;" style="text;strokeColor=#005700;align=center;fillColor=#0000FF;html=1;verticalAlign=middle;whiteSpace=wrap;rounded=1;fontSize=16;fontStyle=1;arcSize=26;fontColor=#00FFFF;" vertex="1" parent="4KK3DppAldW4RQbn6xzX-13">
          <mxGeometry x="4.25" y="47.5" width="130" height="42.5" as="geometry" />
        </mxCell>
        <mxCell id="4KK3DppAldW4RQbn6xzX-16" value="" style="html=1;shadow=0;dashed=0;align=center;verticalAlign=middle;shape=mxgraph.arrows2.stripedArrow;dy=0.6;dx=40;notch=25;fillColor=#00FFFF;" vertex="1" parent="4KK3DppAldW4RQbn6xzX-13">
          <mxGeometry x="19.75" y="19.5" width="100" height="25" as="geometry" />
        </mxCell>
        <mxCell id="4KK3DppAldW4RQbn6xzX-17" value="" style="html=1;shadow=0;dashed=0;align=center;verticalAlign=middle;shape=mxgraph.arrows2.stripedArrow;dy=0.6;dx=40;notch=25;fillColor=#00FFFF;direction=west;" vertex="1" parent="4KK3DppAldW4RQbn6xzX-13">
          <mxGeometry x="15.75" y="92.5" width="100" height="25" as="geometry" />
        </mxCell>
        <mxCell id="4KK3DppAldW4RQbn6xzX-37" value="" style="group" vertex="1" connectable="0" parent="1">
          <mxGeometry x="1410" y="371" width="137.5" height="137.5" as="geometry" />
        </mxCell>
        <mxCell id="4KK3DppAldW4RQbn6xzX-7" value="" style="ellipse;whiteSpace=wrap;html=1;aspect=fixed;fillColor=#003300;strokeColor=#00FFFF;strokeWidth=2;" vertex="1" parent="4KK3DppAldW4RQbn6xzX-37">
          <mxGeometry width="137.5" height="137.5" as="geometry" />
        </mxCell>
        <mxCell id="4KK3DppAldW4RQbn6xzX-8" value="&lt;span style=&quot;font-weight: normal;&quot;&gt;DATA FLOW&lt;/span&gt;&lt;div&gt;ATLAS&lt;/div&gt;" style="text;strokeColor=none;align=center;fillColor=#0000FF;html=1;verticalAlign=middle;whiteSpace=wrap;rounded=1;fontSize=16;fontStyle=1;arcSize=50;fontColor=#00FFFF;absoluteArcSize=0;" vertex="1" parent="4KK3DppAldW4RQbn6xzX-37">
          <mxGeometry x="0.75" y="47.5" width="136" height="42.5" as="geometry" />
        </mxCell>
        <mxCell id="4KK3DppAldW4RQbn6xzX-9" value="" style="html=1;shadow=0;dashed=0;align=center;verticalAlign=middle;shape=mxgraph.arrows2.stripedArrow;dy=0.6;dx=40;notch=25;fillColor=#00FFFF;" vertex="1" parent="4KK3DppAldW4RQbn6xzX-37">
          <mxGeometry x="18.75" y="19.5" width="100" height="25" as="geometry" />
        </mxCell>
        <mxCell id="4KK3DppAldW4RQbn6xzX-10" value="" style="html=1;shadow=0;dashed=0;align=center;verticalAlign=middle;shape=mxgraph.arrows2.stripedArrow;dy=0.6;dx=40;notch=25;fillColor=#00FFFF;direction=west;" vertex="1" parent="4KK3DppAldW4RQbn6xzX-37">
          <mxGeometry x="18.75" y="92.5" width="100" height="25" as="geometry" />
        </mxCell>
        <mxCell id="4KK3DppAldW4RQbn6xzX-12" value="" style="ellipse;whiteSpace=wrap;html=1;aspect=fixed;fillColor=none;strokeColor=#00FFFF;strokeWidth=2;" vertex="1" parent="4KK3DppAldW4RQbn6xzX-37">
          <mxGeometry width="137.5" height="137.5" as="geometry" />
        </mxCell>
        <mxCell id="4KK3DppAldW4RQbn6xzX-20" value="" style="shape=requiredInterface;html=1;verticalLabelPosition=bottom;sketch=0;strokeColor=#00FFFF;" vertex="1" parent="4KK3DppAldW4RQbn6xzX-37">
          <mxGeometry x="120.75" y="51.5" width="12" height="34" as="geometry" />
        </mxCell>
        <mxCell id="4KK3DppAldW4RQbn6xzX-21" value="" style="shape=requiredInterface;html=1;verticalLabelPosition=bottom;sketch=0;strokeColor=#00FFFF;" vertex="1" parent="4KK3DppAldW4RQbn6xzX-37">
          <mxGeometry x="120.75" y="55.5" width="12" height="26" as="geometry" />
        </mxCell>
        <mxCell id="4KK3DppAldW4RQbn6xzX-22" value="" style="shape=requiredInterface;html=1;verticalLabelPosition=bottom;sketch=0;strokeColor=#00FFFF;" vertex="1" parent="4KK3DppAldW4RQbn6xzX-37">
          <mxGeometry x="120.75" y="59.5" width="12" height="18" as="geometry" />
        </mxCell>
        <mxCell id="4KK3DppAldW4RQbn6xzX-23" value="" style="shape=requiredInterface;html=1;verticalLabelPosition=bottom;sketch=0;strokeColor=#00FFFF;direction=west;" vertex="1" parent="4KK3DppAldW4RQbn6xzX-37">
          <mxGeometry x="4.75" y="59.5" width="12" height="18" as="geometry" />
        </mxCell>
        <mxCell id="4KK3DppAldW4RQbn6xzX-24" value="" style="shape=requiredInterface;html=1;verticalLabelPosition=bottom;sketch=0;strokeColor=#00FFFF;direction=west;" vertex="1" parent="4KK3DppAldW4RQbn6xzX-37">
          <mxGeometry x="4.75" y="55.5" width="12" height="26" as="geometry" />
        </mxCell>
        <mxCell id="4KK3DppAldW4RQbn6xzX-25" value="" style="shape=requiredInterface;html=1;verticalLabelPosition=bottom;sketch=0;strokeColor=#00FFFF;direction=west;" vertex="1" parent="4KK3DppAldW4RQbn6xzX-37">
          <mxGeometry x="4.75" y="51.5" width="12" height="34" as="geometry" />
        </mxCell>
        <mxCell id="4KK3DppAldW4RQbn6xzX-38" value="" style="html=1;verticalLabelPosition=bottom;align=center;labelBackgroundColor=#ffffff;verticalAlign=top;strokeWidth=2;strokeColor=#0080F0;shadow=0;dashed=0;shape=mxgraph.ios7.icons.globe;" vertex="1" parent="1">
          <mxGeometry x="986" y="556.75" width="35" height="30" as="geometry" />
        </mxCell>
        <mxCell id="4KK3DppAldW4RQbn6xzX-48" value="" style="group" vertex="1" connectable="0" parent="1">
          <mxGeometry x="1782" y="371" width="137.5" height="137.5" as="geometry" />
        </mxCell>
        <mxCell id="4KK3DppAldW4RQbn6xzX-26" value="" style="ellipse;whiteSpace=wrap;html=1;aspect=fixed;fillColor=#003300;strokeColor=#00FFFF;strokeWidth=2;" vertex="1" parent="4KK3DppAldW4RQbn6xzX-48">
          <mxGeometry width="137.5" height="137.5" as="geometry" />
        </mxCell>
        <mxCell id="4KK3DppAldW4RQbn6xzX-27" value="&lt;span style=&quot;font-weight: normal;&quot;&gt;DATA FLOW&lt;/span&gt;&lt;div&gt;ATLAS&lt;/div&gt;" style="text;strokeColor=none;align=center;fillColor=#0000FF;html=1;verticalAlign=middle;whiteSpace=wrap;rounded=1;fontSize=16;fontStyle=1;arcSize=50;fontColor=#00FFFF;absoluteArcSize=0;" vertex="1" parent="4KK3DppAldW4RQbn6xzX-48">
          <mxGeometry x="0.75" y="47.5" width="136" height="42.5" as="geometry" />
        </mxCell>
        <mxCell id="4KK3DppAldW4RQbn6xzX-28" value="" style="html=1;shadow=0;dashed=0;align=center;verticalAlign=middle;shape=mxgraph.arrows2.stripedArrow;dy=0.6;dx=40;notch=25;fillColor=#00FFFF;" vertex="1" parent="4KK3DppAldW4RQbn6xzX-48">
          <mxGeometry x="18.75" y="19.5" width="100" height="25" as="geometry" />
        </mxCell>
        <mxCell id="4KK3DppAldW4RQbn6xzX-29" value="" style="html=1;shadow=0;dashed=0;align=center;verticalAlign=middle;shape=mxgraph.arrows2.stripedArrow;dy=0.6;dx=40;notch=25;fillColor=#00FFFF;direction=west;" vertex="1" parent="4KK3DppAldW4RQbn6xzX-48">
          <mxGeometry x="18.75" y="92.5" width="100" height="25" as="geometry" />
        </mxCell>
        <mxCell id="4KK3DppAldW4RQbn6xzX-30" value="" style="ellipse;whiteSpace=wrap;html=1;aspect=fixed;fillColor=none;strokeColor=#00FFFF;strokeWidth=2;" vertex="1" parent="4KK3DppAldW4RQbn6xzX-48">
          <mxGeometry width="137.5" height="137.5" as="geometry" />
        </mxCell>
        <mxCell id="4KK3DppAldW4RQbn6xzX-43" value="" style="group" vertex="1" connectable="0" parent="4KK3DppAldW4RQbn6xzX-48">
          <mxGeometry x="6.25" y="56" width="10" height="26" as="geometry" />
        </mxCell>
        <mxCell id="4KK3DppAldW4RQbn6xzX-39" value="" style="endArrow=none;html=1;rounded=0;strokeColor=#00FFFF;" edge="1" parent="4KK3DppAldW4RQbn6xzX-43">
          <mxGeometry width="50" height="50" relative="1" as="geometry">
            <mxPoint y="19" as="sourcePoint" />
            <mxPoint y="7" as="targetPoint" />
          </mxGeometry>
        </mxCell>
        <mxCell id="4KK3DppAldW4RQbn6xzX-41" value="" style="endArrow=none;html=1;rounded=0;strokeColor=#00FFFF;" edge="1" parent="4KK3DppAldW4RQbn6xzX-43">
          <mxGeometry width="50" height="50" relative="1" as="geometry">
            <mxPoint x="5" y="24" as="sourcePoint" />
            <mxPoint x="5" y="2" as="targetPoint" />
          </mxGeometry>
        </mxCell>
        <mxCell id="4KK3DppAldW4RQbn6xzX-42" value="" style="endArrow=none;html=1;rounded=0;strokeColor=#00FFFF;" edge="1" parent="4KK3DppAldW4RQbn6xzX-43">
          <mxGeometry width="50" height="50" relative="1" as="geometry">
            <mxPoint x="10" y="26" as="sourcePoint" />
            <mxPoint x="10" as="targetPoint" />
          </mxGeometry>
        </mxCell>
        <mxCell id="4KK3DppAldW4RQbn6xzX-44" value="" style="group;direction=east;flipH=1;" vertex="1" connectable="0" parent="4KK3DppAldW4RQbn6xzX-48">
          <mxGeometry x="121.25" y="56" width="10" height="26" as="geometry" />
        </mxCell>
        <mxCell id="4KK3DppAldW4RQbn6xzX-45" value="" style="endArrow=none;html=1;rounded=0;strokeColor=#00FFFF;" edge="1" parent="4KK3DppAldW4RQbn6xzX-44">
          <mxGeometry width="50" height="50" relative="1" as="geometry">
            <mxPoint x="10" y="19" as="sourcePoint" />
            <mxPoint x="10" y="7" as="targetPoint" />
          </mxGeometry>
        </mxCell>
        <mxCell id="4KK3DppAldW4RQbn6xzX-46" value="" style="endArrow=none;html=1;rounded=0;strokeColor=#00FFFF;" edge="1" parent="4KK3DppAldW4RQbn6xzX-44">
          <mxGeometry width="50" height="50" relative="1" as="geometry">
            <mxPoint x="5" y="24" as="sourcePoint" />
            <mxPoint x="5" y="2" as="targetPoint" />
          </mxGeometry>
        </mxCell>
        <mxCell id="4KK3DppAldW4RQbn6xzX-47" value="" style="endArrow=none;html=1;rounded=0;strokeColor=#00FFFF;" edge="1" parent="4KK3DppAldW4RQbn6xzX-44">
          <mxGeometry width="50" height="50" relative="1" as="geometry">
            <mxPoint y="26" as="sourcePoint" />
            <mxPoint as="targetPoint" />
          </mxGeometry>
        </mxCell>
        <mxCell id="4KK3DppAldW4RQbn6xzX-64" value="" style="shape=image;aspect=fixed;image=data:image/svg+xml,PD94bWwgdmVyc2lvbj0iMS4wIiBlbmNvZGluZz0idXRmLTgiPz4NCg0KPCFET0NUWVBFIHN2ZyBQVUJMSUMgIi0vL1czQy8vRFREIFNWRyAxLjEvL0VOIiAiaHR0cDovL3d3dy53My5vcmcvR3JhcGhpY3MvU1ZHLzEuMS9EVEQvc3ZnMTEuZHRkIj4NCjxzdmcgdmVyc2lvbj0iMS4xIiBpZD0iTGF5ZXJfMSIgeG1sbnM9Imh0dHA6Ly93d3cudzMub3JnLzIwMDAvc3ZnIiB4bWxuczp4bGluaz0iaHR0cDovL3d3dy53My5vcmcvMTk5OS94bGluayIgeD0iMHB4IiB5PSIwcHgiDQoJIHZpZXdCb3g9IjAgMCAxOTg2LjA4MiAxNjc2LjE5MiIgZW5hYmxlLWJhY2tncm91bmQ9Im5ldyAwIDAgMTk4Ni4wODIgMTY3Ni4xOTIiIHhtbDpzcGFjZT0icHJlc2VydmUiPg0KPGc+DQoJPGc+DQoJCTxnPg0KCQkJPHBhdGggZD0iTTM1My45MywxMzcuOTc0Yy0yLjI4NCwwLjg4OC0zLjUwNiwyLjQ0OC0yLjcxOCwzLjMwNGMzMS4wMDMtMjguNTUyLDYzLjkyLTU1LjA0MSw5OC40NDMtNzkuMjE4DQoJCQkJYy0wLjYwNC0wLjg2NCwwLjYyNC0yLjI2NCwyLjY5NS0zLjExM0M0MTcuODQ5LDgzLjAzLDM4NC45MzgsMTA5LjQ1NiwzNTMuOTMsMTM3Ljk3NHoiLz4NCgkJCTxwYXRoIGQ9Ik0zNzIuMDY5LDEzNC4xMDVjLTYuNzU2LDAuOTg0LTEyLjI1OSwxLjk4NC0xNi4zODcsMy4yNjRjMzAuOTQ3LTI4LjUxMSw2My43OTEtNTQuOTI1LDk4LjIyMS03OC45OTENCgkJCQljMy42MTUtMS4xOTYsOC4zOTktMi4xNDMsMTQuMjM4LTMuMDdDNDM0LjQ2Myw3OS4yOTEsNDAyLjMzNiwxMDUuNjQ0LDM3Mi4wNjksMTM0LjEwNXoiLz4NCgkJCTxwYXRoIGQ9Ik00MDYuMTc3LDEzMC4zNzdjLTExLjIsMC45NjktMjEuMTY0LDEuOTg5LTI5Ljg1OCwzLjEzOWMzMC4wNzktMjguNDUxLDYyLjAwOC01NC43OTMsOTUuNDgzLTc4Ljc2Mg0KCQkJCWM3LjQ2Ni0xLjA3OSwxNi4wMDItMi4wMzgsMjUuNTc3LTIuOTQ4QzQ2NS4zODYsNzUuNzA3LDQzNC44ODksMTAxLjk5MSw0MDYuMTc3LDEzMC4zNzd6Ii8+DQoJCQk8cGF0aCBkPSJNNDU1LjYxNSwxMjYuODg4Yy0xNS40MjUsMC45MDYtMjkuNjg4LDEuODcxLTQyLjc1OSwyLjkzYzI4LjM5OS0yOC4zNzMsNTguNTY4LTU0LjY0Niw5MC4yMjQtNzguNTM2DQoJCQkJYzExLjE0My0wLjk5MiwyMy4yODYtMS44OTcsMzYuNDAyLTIuNzQ3QzUxMC4wMTcsNzIuMzc4LDQ4MS45NzgsOTguNTk4LDQ1NS42MTUsMTI2Ljg4OHoiLz4NCgkJCTxwYXRoIGQ9Ik01MTkuMjk0LDEyMy43MzZjLTE5LjMsMC44MTEtMzcuNTUsMS42ODQtNTQuNzEzLDIuNjRjMjUuOTMxLTI4LjI3NCw1My41MTgtNTQuNDg1LDgyLjUxNy03OC4zMg0KCQkJCWMxNC41NjktMC44OTQsMzAuMDQ2LTEuNzEyLDQ2LjQwMS0yLjQ3MUM1NjcuMzYzLDY5LjQsNTQyLjU2NSw5NS41NjMsNTE5LjI5NCwxMjMuNzM2eiIvPg0KCQkJPHBhdGggZD0iTTU5NS42OTMsMTIxLjAwOWMtMjIuNzA0LDAuNjg3LTQ0LjUwMiwxLjQ0Mi02NS4zNTEsMi4yNzRjMjIuNzMtMjguMTUzLDQ2Ljk2LTU0LjMwNyw3Mi41MTQtNzguMTIzDQoJCQkJYzE3LjY0Ni0wLjc3OCwzNi4wODQtMS40ODQsNTUuMjc2LTIuMTI3QzYzNi4wNTMsNjYuODY3LDYxNS4yMDcsOTIuOTc2LDU5NS42OTMsMTIxLjAwOXoiLz4NCgkJCTxwYXRoIGQ9Ik02ODIuODc5LDExOC43ODdjLTI1LjUyNSwwLjU0MS01MC4zMTksMS4xNTQtNzQuMzMsMS44NDNjMTguODc5LTI4LjAxLDM5LjA1NS01NC4xMSw2MC40NDYtNzcuOTUNCgkJCQljMjAuMjgtMC42NDQsNDEuMjEyLTEuMjE2LDYyLjc1LTEuNzIyQzcxNC4zNjksNjQuODYsNjk4LjA4NCw5MC45MTIsNjgyLjg3OSwxMTguNzg3eiIvPg0KCQkJPHBhdGggZD0iTTc3OC41NjEsMTE3LjEzNGMtMjcuNjY4LDAuMzc3LTU0LjgwNSwwLjgyOC04MS4zNTIsMS4zNThjMTQuNDk3LTI3Ljg0OSwzMC4wMy01My44OTIsNDYuNjI0LTc3LjgwOQ0KCQkJCWMyMi4zODgtMC40OTQsNDUuMjY2LTAuOTE1LDY4LjU4NS0xLjI2N0M4MDAuMjk3LDYzLjQzMyw3ODkuMDQ1LDg5LjQyMiw3NzguNTYxLDExNy4xMzR6Ii8+DQoJCQk8cGF0aCBkPSJNODgwLjE1OCwxMTYuMTAxYy0yOS4wNTksMC4yLTU3LjgwNSwwLjQ3Ni04Ni4xNzYsMC44MzFjOS43MjUtMjcuNjg5LDIwLjE2NS01My42NjcsMzEuNDMtNzcuNzA1DQoJCQkJYzIzLjkwMS0wLjMzMiw0OC4xMTQtMC41ODksNzIuNTg2LTAuNzc1Qzg5MS41Nyw2Mi41OTcsODg1LjY2LDg4LjUyLDg4MC4xNTgsMTE2LjEwMXoiLz4NCgkJCTxwYXRoIGQ9Ik05ODQuODgxLDExNS43MTljLTI5LjY0OSwwLjAxNS01OS4yMTQsMC4xMDgtODguNjMxLDAuMjhjNC43MTYtMjcuNTY2LDkuNzgyLTUzLjQ4MiwxNS4yOTktNzcuNjQyDQoJCQkJYzI0Ljc2OS0wLjE2MSw0OS42NjEtMC4yNDcsNzQuNjIyLTAuMjYxQzk4NS43MDUsNjIuMzA0LDk4NS4yNzksODguMTk0LDk4NC44ODEsMTE1LjcxOXoiLz4NCgkJCTxwYXRoIGQ9Ik0xMDg5LjgzMSwxMTUuOTk5Yy0yOS40MTctMC4xNzItNTguOTgyLTAuMjY1LTg4LjYzMS0wLjI4Yy0wLjM5Ny0yNy41MjQtMC44MjQtNTMuNDE0LTEuMjktNzcuNjIzDQoJCQkJYzI0Ljk2MSwwLjAxNCw0OS44NTMsMC4xLDc0LjYyMiwwLjI2MUMxMDgwLjA0OSw2Mi41MTcsMTA4NS4xMTUsODguNDMyLDEwODkuODMxLDExNS45OTl6Ii8+DQoJCQk8cGF0aCBkPSJNMTE5Mi4wOTksMTE2LjkzM2MtMjguMzctMC4zNTUtNTcuMTE3LTAuNjMyLTg2LjE3Ni0wLjgzMWMtNS41MDEtMjcuNTgxLTExLjQxMS01My41MDUtMTcuODQxLTc3LjY0OQ0KCQkJCWMyNC40NzIsMC4xODYsNDguNjg1LDAuNDQ0LDcyLjU4NywwLjc3NUMxMTcxLjkzNCw2My4yNjYsMTE4Mi4zNzQsODkuMjQzLDExOTIuMDk5LDExNi45MzN6Ii8+DQoJCQk8cGF0aCBkPSJNMTI4OC44NzMsMTE4LjQ5MmMtMjYuNTQ4LTAuNTMtNTMuNjg1LTAuOTgxLTgxLjM1Mi0xLjM1OGMtMTAuNDg0LTI3LjcxMy0yMS43MzUtNTMuNzAxLTMzLjg1Ny03Ny43MTgNCgkJCQljMjMuMzE4LDAuMzUyLDQ2LjE5NiwwLjc3Myw2OC41ODUsMS4yNjdDMTI1OC44NDMsNjQuNiwxMjc0LjM3Niw5MC42NDMsMTI4OC44NzMsMTE4LjQ5MnoiLz4NCgkJCTxwYXRoIGQ9Ik0xMzc3LjUzMywxMjAuNjNjLTI0LjAxMS0wLjY5LTQ4LjgwNi0xLjMwMi03NC4zMy0xLjg0M2MtMTUuMjA1LTI3Ljg3NS0zMS40OTEtNTMuOTI3LTQ4Ljg2Ni03Ny44MjgNCgkJCQljMjEuNTM5LDAuNTA1LDQyLjQ3LDEuMDc3LDYyLjc1LDEuNzIyQzEzMzguNDc4LDY2LjUyLDEzNTguNjU0LDkyLjYyLDEzNzcuNTMzLDEyMC42M3oiLz4NCgkJCTxwYXRoIGQ9Ik0xNDU1LjczOSwxMjMuMjg0Yy0yMC44NDgtMC44MzItNDIuNjQ3LTEuNTg3LTY1LjM1MS0yLjI3NGMtMTkuNTE0LTI4LjAzMy00MC4zNi01NC4xNDItNjIuNDM5LTc3Ljk3NQ0KCQkJCWMxOS4xOTIsMC42NDMsMzcuNjMsMS4zNDgsNTUuMjc2LDIuMTI3QzE0MDguNzgsNjguOTc2LDE0MzMuMDEsOTUuMTMsMTQ1NS43MzksMTIzLjI4NHoiLz4NCgkJCTxwYXRoIGQ9Ik0xNTIxLjUsMTI2LjM3NmMtMTcuMTYzLTAuOTU1LTM1LjQxMy0xLjgyOS01NC43MTMtMi42NGMtMjMuMjcxLTI4LjE3My00OC4wNjgtNTQuMzM2LTc0LjIwNi03OC4xNTINCgkJCQljMTYuMzU1LDAuNzU5LDMxLjgzMywxLjU3Nyw0Ni40MDEsMi40NzFDMTQ2Ny45ODIsNzEuODkxLDE0OTUuNTY5LDk4LjEwMiwxNTIxLjUsMTI2LjM3NnoiLz4NCgkJCTxwYXRoIGQ9Ik0xNTczLjIyNiwxMjkuODE4Yy0xMy4wNzEtMS4wNTgtMjcuMzM0LTIuMDIzLTQyLjc1OS0yLjkzYy0yNi4zNjQtMjguMjkxLTU0LjQwMi01NC41MTEtODMuODY3LTc4LjM1Mw0KCQkJCWMxMy4xMTYsMC44NSwyNS4yNTksMS43NTUsMzYuNDAyLDIuNzQ3QzE1MTQuNjU4LDc1LjE3MiwxNTQ0LjgyNywxMDEuNDQ2LDE1NzMuMjI2LDEyOS44MTh6Ii8+DQoJCQk8cGF0aCBkPSJNMTYwOS43NjMsMTMzLjUxNmMtOC42OTQtMS4xNS0xOC42NTgtMi4xNy0yOS44NTgtMy4xMzljLTI4LjcxMi0yOC4zODYtNTkuMjA4LTU0LjY3LTkxLjIwMi03OC41Nw0KCQkJCWM5LjU3NSwwLjkxLDE4LjExMSwxLjg2OSwyNS41NzcsMi45NDhDMTU0Ny43NTQsNzguNzIzLDE1NzkuNjgzLDEwNS4wNjUsMTYwOS43NjMsMTMzLjUxNnoiLz4NCgkJCTxwYXRoIGQ9Ik0xNjMwLjM5OSwxMzcuMzdjLTQuMTI4LTEuMjgtOS42My0yLjI4LTE2LjM4Ny0zLjI2NGMtMzAuMjY3LTI4LjQ2MS02Mi4zOTQtNTQuODE0LTk2LjA3My03OC43OTcNCgkJCQljNS44MzksMC45MjgsMTAuNjIzLDEuODc1LDE0LjIzOSwzLjA3QzE1NjYuNjA4LDgyLjQ0NSwxNTk5LjQ1MywxMDguODU5LDE2MzAuMzk5LDEzNy4zN3oiLz4NCgkJCTxwYXRoIGQ9Ik0xNjM0Ljg3LDE0MS4yNzljMC43ODctMC44NTYtMC40MzUtMi40MTctMi43MTgtMy4zMDRjLTMxLjAwOC0yOC41MTgtNjMuOTE5LTU0Ljk0NC05OC40MTktNzkuMDI3DQoJCQkJYzIuMDcsMC44NDksMy4yOTgsMi4yNDksMi42OTUsMy4xMTNDMTU3MC45NSw4Ni4yMzgsMTYwMy44NjcsMTEyLjcyNiwxNjM0Ljg3LDE0MS4yNzl6Ii8+DQoJCQk8cGF0aCBkPSJNMjQ5LjU3OSwyNTEuMDAxYy0yLjQ0NiwwLjg0Ni0zLjU2NSwyLjQ1NC0yLjU4NywzLjIyMWMyNS45NzgtMzMuMTg5LDU0LjE3OS02NC42NTEsODQuMzM5LTk0LjA5Mg0KCQkJCWMtMC44MjQtMC44NDYsMC4zODYtMi40MjgsMi43MDYtMy4zMTVDMzAzLjg0NCwxODYuMjU2LDI3NS42MDIsMjE3Ljc1MSwyNDkuNTc5LDI1MS4wMDF6Ii8+DQoJCQk8cGF0aCBkPSJNMjcwLjAyNywyNDcuMjIzYy03LjY3OCwwLjk1OS0xMy44ODcsMS45MjYtMTguNTE1LDMuMTg4YzI1Ljk3OS0zMy4yNTksNTQuMTcyLTY0Ljc2LDg0LjMxMy05NC4yMDMNCgkJCQljNC4yMjctMS4yODcsOS44NjgtMi4yODgsMTYuODA1LTMuMjc2QzMyMy4wOTUsMTgyLjM4OSwyOTUuNDc1LDIxMy45MjEsMjcwLjAyNywyNDcuMjIzeiIvPg0KCQkJPHBhdGggZD0iTTMwOS4xNDUsMjQzLjU3N2MtMTIuODgzLDAuOTQ3LTI0LjMxNiwxLjk0NC0zNC4yNjgsMy4wNzFjMjUuMjk4LTMzLjMwOCw1Mi43NTUtNjQuODQ2LDgyLjEyLTk0LjMwNw0KCQkJCWM4LjkzOC0xLjE1NSwxOS4xODUtMi4xNzksMzAuNzA5LTMuMTUxQzM1OS41OTMsMTc4LjY3OCwzMzMuMzMsMjEwLjI0NiwzMDkuMTQ1LDI0My41Nzd6Ii8+DQoJCQk8cGF0aCBkPSJNMzY2LjI0NSwyNDAuMTU5Yy0xNy44NDUsMC44ODgtMzQuMzI1LDEuODM0LTQ5LjQwNywyLjg3MWMyMy45MjktMzMuMzMyLDQ5LjkxNi02NC45MDYsNzcuNzQtOTQuNDAyDQoJCQkJYzEzLjQ1Ny0xLjA2MywyOC4xNDUtMi4wMzIsNDQuMDM0LTIuOTQyQzQxMi42NzcsMTc1LjIyNiwzODguNDkzLDIwNi44MjYsMzY2LjI0NSwyNDAuMTU5eiIvPg0KCQkJPHBhdGggZD0iTTQ0MC4xMDcsMjM3LjA2NmMtMjIuNDExLDAuNzk2LTQzLjU4NSwxLjY1My02My40NzgsMi41OWMyMS44OS0zMy4zMyw0NS42ODgtNjQuOTM1LDcxLjIyMi05NC40ODUNCgkJCQljMTcuNjg1LTAuOTYsMzYuNDkzLTEuODM3LDU2LjM4OC0yLjY1MkM0ODEuMiwxNzIuMTM0LDQ1OS43ODMsMjAzLjc1OSw0NDAuMTA3LDIzNy4wNjZ6Ii8+DQoJCQk8cGF0aCBkPSJNNTI4Ljk4LDIzNC4zODZjLTI2LjQzMywwLjY3Ni01MS43OTUsMS40MTctNzYuMDM1LDIuMjM1YzE5LjIyNS0zMy4zLDQwLjE1NS02NC45MjgsNjIuNjg0LTk0LjU1Nw0KCQkJCWMyMS40OTUtMC44MzYsNDMuOTczLTEuNTk1LDY3LjM4Ny0yLjI4NUM1NjMuNTQsMTY5LjQ5Myw1NDUuNTE1LDIwMS4xMzEsNTI4Ljk4LDIzNC4zODZ6Ii8+DQoJCQk8cGF0aCBkPSJNNjMwLjYxNSwyMzIuMmMtMjkuNzczLDAuNTMzLTU4LjY4MSwxLjEzNS04Ni42NjEsMS44MTRjMTYuMDAzLTMzLjI0NSwzMy40NTMtNjQuODg0LDUyLjMyMS05NC42MTUNCgkJCQljMjQuNzY3LTAuNjkzLDUwLjM0NC0xLjMwOSw3Ni42NzctMS44NTNDNjU3LjYzMiwxNjcuMzc4LDY0My41MzEsMTk5LjAxNiw2MzAuNjE1LDIzMi4yeiIvPg0KCQkJPHBhdGggZD0iTTc0Mi4zMjMsMjMwLjU3MmMtMzIuMzE1LDAuMzcxLTY0LjAwMSwwLjgxNi05NC45ODgsMS4zMzdjMTIuMzItMzMuMTcxLDI1Ljc3Mi02NC44MDgsNDAuNC05NC42Ng0KCQkJCWMyNy4zOTEtMC41MzIsNTUuMzkzLTAuOTg2LDgzLjk0NC0xLjM2NUM3NjEuMDEzLDE2NS44NDIsNzUxLjI1MywxOTcuNDY2LDc0Mi4zMjMsMjMwLjU3MnoiLz4NCgkJCTxwYXRoIGQ9Ik04NjEuMDU0LDIyOS41NTVjLTMzLjk2OCwwLjE5Ny02Ny41NjQsMC40NjktMTAwLjcxNSwwLjgxOWM4LjI4Ny0zMy4wOTUsMTcuMzQ2LTY0LjcxNiwyNy4yNTUtOTQuNjkyDQoJCQkJYzI5LjI3OC0wLjM1Nyw1OC45NDYtMC42MzUsODguOTM3LTAuODM2Qzg3MC44ODgsMTY0LjkwNyw4NjUuNzUxLDE5Ni41MSw4NjEuMDU0LDIyOS41NTV6Ii8+DQoJCQk8cGF0aCBkPSJNOTgzLjUsMjI5LjE3OGMtMzQuNjY5LDAuMDE0LTY5LjIzOSwwLjEwNi0xMDMuNjMzLDAuMjc2YzQuMDI3LTMzLjAzNyw4LjQzMi02NC42MzksMTMuMjczLTk0LjcxMQ0KCQkJCWMzMC4zNjEtMC4xNzMsNjAuODc3LTAuMjY3LDkxLjQ3OS0wLjI4MUM5ODQuMjEsMTY0LjU2Nyw5ODMuODM5LDE5Ni4xNiw5ODMuNSwyMjkuMTc4eiIvPg0KCQkJPHBhdGggZD0iTTExMDYuMjE0LDIyOS40NTRjLTM0LjM5My0wLjE3LTY4Ljk2My0wLjI2Mi0xMDMuNjMzLTAuMjc2Yy0wLjMzOS0zMy4wMTgtMC43MTEtNjQuNjExLTEuMTE5LTk0LjcxNg0KCQkJCWMzMC42MDIsMC4wMTUsNjEuMTE3LDAuMTA4LDkxLjQ3OSwwLjI4MUMxMDk3Ljc4MywxNjQuODE1LDExMDIuMTg3LDE5Ni40MTYsMTEwNi4yMTQsMjI5LjQ1NHoiLz4NCgkJCTxwYXRoIGQ9Ik0xMjI1Ljc0MiwyMzAuMzc0Yy0zMy4xNS0wLjM1LTY2Ljc0Ny0wLjYyMy0xMDAuNzE1LTAuODE5Yy00LjY5Ny0zMy4wNDQtOS44MzQtNjQuNjQ4LTE1LjQ3Ny05NC43MDkNCgkJCQljMjkuOTkxLDAuMjAxLDU5LjY1OCwwLjQ3OSw4OC45MzcsMC44MzZDMTIwOC4zOTcsMTY1LjY1OCwxMjE3LjQ1NSwxOTcuMjc5LDEyMjUuNzQyLDIzMC4zNzR6Ii8+DQoJCQk8cGF0aCBkPSJNMTMzOC43NDYsMjMxLjkwOWMtMzAuOTg2LTAuNTIxLTYyLjY3Mi0wLjk2Ni05NC45ODgtMS4zMzdjLTguOTMtMzMuMTA2LTE4LjY5LTY0LjczLTI5LjM1Ny05NC42ODgNCgkJCQljMjguNTUxLDAuMzc5LDU2LjU1MiwwLjgzMyw4My45NDQsMS4zNjVDMTMxMi45NzQsMTY3LjEwMSwxMzI2LjQyNiwxOTguNzM4LDEzMzguNzQ2LDIzMS45MDl6Ii8+DQoJCQk8cGF0aCBkPSJNMTQ0Mi4xMjgsMjM0LjAxM2MtMjcuOTgxLTAuNjc5LTU2Ljg4OC0xLjI4MS04Ni42NjEtMS44MTRjLTEyLjkxNi0zMy4xODMtMjcuMDE3LTY0LjgyMi00Mi4zMzYtOTQuNjU0DQoJCQkJYzI2LjMzMywwLjU0NCw1MS45MSwxLjE1OSw3Ni42NzcsMS44NTNDMTQwOC42NzUsMTY5LjEyOSwxNDI2LjEyNSwyMDAuNzY5LDE0NDIuMTI4LDIzNC4wMTN6Ii8+DQoJCQk8cGF0aCBkPSJNMTUzMy4xMzcsMjM2LjYyMWMtMjQuMjQtMC44MTgtNDkuNjAzLTEuNTU5LTc2LjAzNS0yLjIzNWMtMTYuNTM1LTMzLjI1NS0zNC41NjEtNjQuODkzLTU0LjAzNi05NC42MDcNCgkJCQljMjMuNDE0LDAuNjkxLDQ1Ljg5MiwxLjQ0OSw2Ny4zODcsMi4yODVDMTQ5Mi45ODIsMTcxLjY5MywxNTEzLjkxMiwyMDMuMzIxLDE1MzMuMTM3LDIzNi42MjF6Ii8+DQoJCQk8cGF0aCBkPSJNMTYwOS40NTIsMjM5LjY1NmMtMTkuODkzLTAuOTM3LTQxLjA2Ni0xLjc5NS02My40NzgtMi41OWMtMTkuNjc2LTMzLjMwNy00MS4wOTMtNjQuOTMxLTY0LjEzMi05NC41NDcNCgkJCQljMTkuODk0LDAuODE0LDM4LjcwMywxLjY5Miw1Ni4zODgsMi42NTJDMTU2My43NjQsMTc0LjcyMSwxNTg3LjU2MiwyMDYuMzI2LDE2MDkuNDUyLDIzOS42NTZ6Ii8+DQoJCQk8cGF0aCBkPSJNMTY2OS4yNDMsMjQzLjAzYy0xNS4wODEtMS4wMzctMzEuNTYxLTEuOTgzLTQ5LjQwNy0yLjg3MWMtMjIuMjQ4LTMzLjMzMi00Ni40MzEtNjQuOTMyLTcyLjM2OC05NC40NzMNCgkJCQljMTUuODg5LDAuOTEsMzAuNTc3LDEuODc5LDQ0LjAzNCwyLjk0MkMxNjE5LjMyNywxNzguMTI0LDE2NDUuMzE0LDIwOS42OTcsMTY2OS4yNDMsMjQzLjAzeiIvPg0KCQkJPHBhdGggZD0iTTE3MTEuMjA1LDI0Ni42NDdjLTkuOTUzLTEuMTI2LTIxLjM4Ni0yLjEyNC0zNC4yNjgtMy4wNzFjLTI0LjE4NS0zMy4zMy01MC40NDgtNjQuODk5LTc4LjU2MS05NC4zODgNCgkJCQljMTEuNTI0LDAuOTczLDIxLjc3MSwxLjk5NywzMC43MDksMy4xNTFDMTY1OC40NSwxODEuODAxLDE2ODUuOTA3LDIxMy4zMzksMTcxMS4yMDUsMjQ2LjY0N3oiLz4NCgkJCTxwYXRoIGQ9Ik0xNzM0LjU2OSwyNTAuNDExYy00LjYyOC0xLjI2Mi0xMC44MzctMi4yMjgtMTguNTE1LTMuMTg4Yy0yNS40NDgtMzMuMzAyLTUzLjA2OC02NC44MzQtODIuNjAzLTk0LjI5Mg0KCQkJCWM2LjkzNiwwLjk4OCwxMi41NzgsMS45ODksMTYuODA1LDMuMjc2QzE2ODAuMzk3LDE4NS42NTEsMTcwOC41OSwyMTcuMTUyLDE3MzQuNTY5LDI1MC40MTF6Ii8+DQoJCQk8cGF0aCBkPSJNMTczOS4wOSwyNTQuMjIyYzAuOTc4LTAuNzY3LTAuMTQyLTIuMzc1LTIuNTg3LTMuMjIxYy0yNi4wMjMtMzMuMjUtNTQuMjY1LTY0Ljc0NC04NC40NTgtOTQuMTg3DQoJCQkJYzIuMzIsMC44ODcsMy41MywyLjQ2OSwyLjcwNiwzLjMxNUMxNjg0LjkxMSwxODkuNTcsMTcxMy4xMTIsMjIxLjAzMiwxNzM5LjA5LDI1NC4yMjJ6Ii8+DQoJCQk8cGF0aCBkPSJNMTY0Ljc2NiwzNzkuNzNjLTIuNTIyLDAuNzE3LTMuNDgxLDIuMTg1LTIuMzYzLDIuOGMyMC4yNy0zNi45NTMsNDMuMDEzLTcyLjU2MSw2OC4wMTYtMTA2LjQ5MQ0KCQkJCWMtMS4wMDctMC43NDMsMC4wODctMi4zNCwyLjU1Mi0zLjE3QzIwNy45MDUsMzA2Ljg5NSwxODUuMDk4LDM0Mi42MjgsMTY0Ljc2NiwzNzkuNzN6Ii8+DQoJCQk8cGF0aCBkPSJNMTg2Ljk1NSwzNzYuNDQyYy04LjM4OCwwLjgzMy0xNS4xMjcsMS42NjYtMjAuMTMsMi43NzVjMjAuMzAyLTM3LjEyOCw0My4wNzUtNzIuODgzLDY4LjEwNi0xMDYuOTI4DQoJCQkJYzQuNzAzLTEuMjQ0LDExLjAxOS0yLjE5NCwxOC44MzktMy4xMzhDMjI5LjIwOSwzMDMuMzA2LDIwNi44NywzMzkuMTgyLDE4Ni45NTUsMzc2LjQ0MnoiLz4NCgkJCTxwYXRoIGQ9Ik0yMzAuMDI3LDM3My4yNjNjLTE0LjIxOSwwLjgyNi0yNi44MTIsMS42OTQtMzcuNzU0LDIuNjc3YzE5LjgwMS0zNy4yODIsNDIuMDE0LTczLjE4LDY2LjQ0LTEwNy4zNTcNCgkJCQljMTAuMTQ5LTEuMTA5LDIxLjgxMS0yLjA5MSwzNC45NTgtMy4wMjRDMjcwLjI1NSwyOTkuODU3LDI0OC45ODQsMzM1Ljg3MiwyMzAuMDI3LDM3My4yNjN6Ii8+DQoJCQk8cGF0aCBkPSJNMjkzLjI2OCwzNzAuMjc5Yy0xOS43OTEsMC43NzUtMzguMDQ4LDEuNi01NC43MzcsMi41MDZjMTguNzYxLTM3LjQwOSwzOS44MTQtNzMuNDQ0LDYyLjk5NC0xMDcuNzY1DQoJCQkJYzE1LjM5OC0xLjAyMiwzMi4yMjgtMS45NTMsNTAuNDU2LTIuODI4QzMzMC4zNDksMjk2LjY0NiwzMTAuNzM2LDMzMi43ODUsMjkzLjI2OCwzNzAuMjc5eiIvPg0KCQkJPHBhdGggZD0iTTM3NS4zNTcsMzY3LjU3NmMtMjQuOTMxLDAuNjk2LTQ4LjQ2NywxLjQ0NS03MC41NjQsMi4yNjRjMTcuMTkyLTM3LjUwOCwzNi40OTYtNzMuNjY1LDU3Ljc5NS0xMDguMTQyDQoJCQkJYzIwLjMyNi0wLjkyNCw0MS45NjItMS43NjgsNjQuODY4LTIuNTUyQzQwOC4yMjQsMjkzLjc2MiwzOTAuODM0LDMzMC4wMDksMzc1LjM1NywzNjcuNTc2eiIvPg0KCQkJPHBhdGggZD0iTTQ3NC4zNjYsMzY1LjIzMWMtMjkuNDY3LDAuNTkxLTU3LjcyNywxLjI0LTg0LjcyMSwxLjk1NmMxNS4xMjYtMzcuNTc1LDMyLjEyNC03My44MzcsNTAuOTMyLTEwOC40NzkNCgkJCQljMjQuNzgtMC44MDYsNTAuNzA5LTEuNTM3LDc3LjczNi0yLjIwM0M1MDIuMDUxLDI5MS4yODksNDg3LjM5NywzMjcuNjIyLDQ3NC4zNjYsMzY1LjIzMXoiLz4NCgkJCTxwYXRoIGQ9Ik01ODcuNzksMzYzLjMxN2MtMzMuMjQzLDAuNDY3LTY1LjUwNywwLjk5NC05Ni43MjQsMS41ODhjMTIuNjE2LTM3LjYxNCwyNi44MDQtNzMuOTU4LDQyLjU1OS0xMDguNzY3DQoJCQkJYzI4LjYxNC0wLjY2OSw1OC4xNzgtMS4yNjIsODguNjI5LTEuNzg3QzYwOS40NjYsMjg5LjI5NCw1OTcuOTg5LDMyNS42OSw1ODcuNzksMzYzLjMxN3oiLz4NCgkJCTxwYXRoIGQ9Ik03MTIuNjA5LDM2MS44OWMtMzYuMTIxLDAuMzI1LTcxLjUyOCwwLjcxNS0xMDYuMTQ0LDEuMTcyYzkuNzMxLTM3LjYyOCwyMC42ODMtNzQuMDMsMzIuODkyLTEwOC45OTgNCgkJCQljMzEuNjk2LTAuNTE0LDY0LjEwOC0wLjk1Miw5Ny4xNjctMS4zMThDNzI3LjYyNywyODcuODMsNzE5LjY3MywzMjQuMjYzLDcxMi42MDksMzYxLjg5eiIvPg0KCQkJPHBhdGggZD0iTTg0NS4zODIsMzYwLjk5OGMtMzcuOTkzLDAuMTcyLTc1LjU2NSwwLjQxMS0xMTIuNjMyLDAuNzE4YzYuNTU4LTM3LjYyNywxMy45NDItNzQuMDY0LDIyLjIwNS0xMDkuMTY1DQoJCQkJYzMzLjkxNS0wLjM0NSw2OC4yODctMC42MTQsMTAzLjA0MS0wLjgwOEM4NTMuMjk0LDI4Ni45MjQsODQ5LjEwMywzMjMuMzc2LDg0NS4zODIsMzYwLjk5OHoiLz4NCgkJCTxwYXRoIGQ9Ik05ODIuMzY2LDM2MC42NjdjLTM4Ljc4OCwwLjAxMy03Ny40NjQsMC4wOTMtMTE1Ljk0LDAuMjQyYzMuMTkxLTM3LjYyMSw2Ljc4NS03NC4wNzUsMTAuODE4LTEwOS4yNjYNCgkJCQljMzUuMTktMC4xNjcsNzAuNTYxLTAuMjU4LDEwNi4wMzQtMC4yNzJDOTgyLjkzOCwyODYuNTkxLDk4Mi42MzUsMzIzLjA0OSw5ODIuMzY2LDM2MC42Njd6Ii8+DQoJCQk8cGF0aCBkPSJNMTExOS42NTUsMzYwLjkwOWMtMzguNDc1LTAuMTQ5LTc3LjE1MS0wLjIyOS0xMTUuOTQtMC4yNDJjLTAuMjY5LTM3LjYxOC0wLjU3Mi03NC4wNzYtMC45MTItMTA5LjI5Ng0KCQkJCWMzNS40NzMsMC4wMTQsNzAuODQ0LDAuMTA1LDEwNi4wMzQsMC4yNzJDMTExMi44NywyODYuODM1LDExMTYuNDY0LDMyMy4yODgsMTExOS42NTUsMzYwLjkwOXoiLz4NCgkJCTxwYXRoIGQ9Ik0xMjUzLjMzMiwzNjEuNzE2Yy0zNy4wNjctMC4zMDctNzQuNjM5LTAuNTQ2LTExMi42MzItMC43MThjLTMuNzIxLTM3LjYyMi03LjkxMi03NC4wNzQtMTIuNjE0LTEwOS4yNTUNCgkJCQljMzQuNzU0LDAuMTk0LDY5LjEyNiwwLjQ2MiwxMDMuMDQxLDAuODA4QzEyMzkuMzksMjg3LjY1MiwxMjQ2Ljc3NCwzMjQuMDg5LDEyNTMuMzMyLDM2MS43MTZ6Ii8+DQoJCQk8cGF0aCBkPSJNMTM3OS42MTcsMzYzLjA2MmMtMzQuNjE2LTAuNDU3LTcwLjAyNC0wLjg0Ni0xMDYuMTQ0LTEuMTcyYy03LjA2NS0zNy42MjgtMTUuMDE5LTc0LjA2MS0yMy45MTUtMTA5LjE0NA0KCQkJCWMzMy4wNTksMC4zNjYsNjUuNDcxLDAuODA0LDk3LjE2NywxLjMxOEMxMzU4LjkzNSwyODkuMDMyLDEzNjkuODg2LDMyNS40MzQsMTM3OS42MTcsMzYzLjA2MnoiLz4NCgkJCTxwYXRoIGQ9Ik0xNDk1LjAxNiwzNjQuOTA1Yy0zMS4yMTctMC41OTQtNjMuNDgxLTEuMTIyLTk2LjcyNC0xLjU4OGMtMTAuMTk5LTM3LjYyNy0yMS42NzctNzQuMDIyLTM0LjQ2NC0xMDguOTY2DQoJCQkJYzMwLjQ1MSwwLjUyNSw2MC4wMTUsMS4xMTksODguNjI5LDEuNzg3QzE0NjguMjEyLDI5MC45NDcsMTQ4Mi40LDMyNy4yOTEsMTQ5NS4wMTYsMzY0LjkwNXoiLz4NCgkJCTxwYXRoIGQ9Ik0xNTk2LjQzNiwzNjcuMTg3Yy0yNi45OTQtMC43MTYtNTUuMjUzLTEuMzY1LTg0LjcyMS0xLjk1NmMtMTMuMDMxLTM3LjYwOS0yNy42ODUtNzMuOTQzLTQzLjk0Ny0xMDguNzI2DQoJCQkJYzI3LjAyNiwwLjY2Niw1Mi45NTYsMS4zOTcsNzcuNzM2LDIuMjAzQzE1NjQuMzEyLDI5My4zNSwxNTgxLjMxLDMyOS42MTIsMTU5Ni40MzYsMzY3LjE4N3oiLz4NCgkJCTxwYXRoIGQ9Ik0xNjgxLjI4OCwzNjkuODRjLTIyLjA5Ni0wLjgxOS00NS42MzMtMS41NjktNzAuNTY0LTIuMjY0Yy0xNS40NzctMzcuNTY3LTMyLjg2Ny03My44MTQtNTIuMDk5LTEwOC40Mw0KCQkJCWMyMi45MDUsMC43ODQsNDQuNTQyLDEuNjI5LDY0Ljg2OCwyLjU1MkMxNjQ0Ljc5MiwyOTYuMTc1LDE2NjQuMDk3LDMzMi4zMzMsMTY4MS4yODgsMzY5Ljg0eiIvPg0KCQkJPHBhdGggZD0iTTE3NDcuNTUxLDM3Mi43ODZjLTE2LjY4OS0wLjkwNi0zNC45NDYtMS43MzEtNTQuNzM3LTIuNTA2Yy0xNy40NjgtMzcuNDk0LTM3LjA4MS03My42MzQtNTguNzEyLTEwOC4wODYNCgkJCQljMTguMjI4LDAuODc1LDM1LjA1OCwxLjgwNiw1MC40NTYsMi44MjhDMTcwNy43MzcsMjk5LjM0MiwxNzI4Ljc5MSwzMzUuMzc2LDE3NDcuNTUxLDM3Mi43ODZ6Ii8+DQoJCQk8cGF0aCBkPSJNMTc5My44MDksMzc1Ljk0Yy0xMC45NDItMC45ODMtMjMuNTM2LTEuODUyLTM3Ljc1NC0yLjY3N2MtMTguOTU3LTM3LjM5MS00MC4yMjktNzMuNDA2LTYzLjY0NC0xMDcuNzAzDQoJCQkJYzEzLjE0NiwwLjkzMywyNC44MDksMS45MTQsMzQuOTU4LDMuMDI0QzE3NTEuNzk1LDMwMi43NiwxNzc0LjAwOCwzMzguNjU4LDE3OTMuODA5LDM3NS45NHoiLz4NCgkJCTxwYXRoIGQ9Ik0xODE5LjI1NiwzNzkuMjE3Yy01LjAwMy0xLjEwOS0xMS43NDItMS45NDEtMjAuMTMtMi43NzVjLTE5LjkxNC0zNy4yNTktNDIuMjUzLTczLjEzNi02Ni44MTUtMTA3LjI5MQ0KCQkJCWM3LjgyLDAuOTQ0LDE0LjEzNiwxLjg5NCwxOC44MzksMy4xMzhDMTc3Ni4xODEsMzA2LjMzNCwxNzk4Ljk1NCwzNDIuMDg5LDE4MTkuMjU2LDM3OS4yMTd6Ii8+DQoJCQk8cGF0aCBkPSJNMTgyMy42NzgsMzgyLjUzYzEuMTE5LTAuNjE0LDAuMTU5LTIuMDgzLTIuMzYzLTIuOGMtMjAuMzMyLTM3LjEwMi00My4xMzgtNzIuODM0LTY4LjIwNS0xMDYuODYxDQoJCQkJYzIuNDY1LDAuODI5LDMuNTU4LDIuNDI3LDIuNTUyLDMuMTdDMTc4MC42NjUsMzA5Ljk2OSwxODAzLjQwOCwzNDUuNTc3LDE4MjMuNjc4LDM4Mi41M3oiLz4NCgkJCTxwYXRoIGQ9Ik0xMDEuODAyLDUyMC43NDFjLTIuNTQsMC41Mi0zLjMzNCwxLjY1OC0yLjEyNywyLjA4NWMxNC4wMjktMzkuNzQ0LDMwLjcxNS03OC41NjEsNDkuOTAzLTExNi4wODcNCgkJCQljLTEuMTM4LTAuNTgzLTAuMjA5LTIuMDA2LDIuMzE5LTIuNjkyQzEzMi42MzgsNDQxLjc1NCwxMTUuODg3LDQ4MC43NzQsMTAxLjgwMiw1MjAuNzQxeiIvPg0KCQkJPHBhdGggZD0iTTEyNS4yMDUsNTE4LjI5Yy04Ljg5MiwwLjYyLTE1Ljk5NiwxLjIzNS0yMS4yNjMsMi4wNjljMTQuMDY4LTQwLjAwNiwzMC43OTctNzkuMDY0LDUwLjAzMi0xMTYuODA1DQoJCQkJYzUuMDU4LTEuMDY4LDExLjg3My0xLjg2OCwyMC4zNjYtMi42NjlDMTU1LjQ0NSw0MzguODIsMTM5LjAxOCw0NzguMDc2LDEyNS4yMDUsNTE4LjI5eiIvPg0KCQkJPHBhdGggZD0iTTE3MS4xNDIsNTE1LjkxOGMtMTUuMTkyLDAuNjE2LTI4LjYyOCwxLjI2My00MC4yODUsMS45OThjMTMuNzM4LTQwLjI1MSwzMC4wNzUtNzkuNTQzLDQ4Ljg2OS0xMTcuNTE0DQoJCQkJYzExLjA4OS0wLjk0NiwyMy44NTctMS43ODEsMzguMjc1LTIuNTc1QzE5OS45NjksNDM1Ljk5OCwxODQuMzA5LDQ3NS40OCwxNzEuMTQyLDUxNS45MTh6Ii8+DQoJCQk8cGF0aCBkPSJNMjM4Ljg5LDUxMy42OWMtMjEuMjIzLDAuNTc5LTQwLjc4NiwxLjE5NS01OC42NTIsMS44NzJjMTMuMDM0LTQwLjQ3MSwyOC41MzUtNzkuOTg1LDQ2LjM5LTExOC4xOTQNCgkJCQljMTYuOTMxLTAuODcyLDM1LjQ1Ni0xLjY2NSw1NS41NC0yLjQxMUMyNjUuNDk1LDQzMy4zNjgsMjUxLjA0MSw0NzMuMDU1LDIzOC44OSw1MTMuNjl6Ii8+DQoJCQk8cGF0aCBkPSJNMzI3LjA1OSw1MTEuNjY4Yy0yNi43OTYsMC41Mi01Mi4wNzksMS4wOC03NS44MDIsMS42OTNjMTEuOTYyLTQwLjY2MiwyNi4xOS04MC4zNzksNDIuNjA4LTExOC44MjgNCgkJCQljMjIuNDI5LTAuNzg5LDQ2LjMyMy0xLjUxLDcxLjYzNi0yLjE3OUMzNTAuNjcsNDMxLjAwMSwzMzcuODQyLDQ3MC44NywzMjcuMDU5LDUxMS42Njh6Ii8+DQoJCQk8cGF0aCBkPSJNNDMzLjU5Miw1MDkuOTE0Yy0zMS43MjMsMC40NDMtNjIuMTMzLDAuOTI4LTkxLjE2OSwxLjQ2NGMxMC41NDEtNDAuODIsMjMuMDgyLTgwLjcxNSwzNy41ODctMTE5LjM5Nw0KCQkJCWMyNy40MTEtMC42ODksNTYuMTExLTEuMzEzLDg2LjAzOS0xLjg4M0M0NTMuNTA1LDQyOC45NjQsNDQyLjY4NSw0NjguOTg2LDQzMy41OTIsNTA5LjkxNHoiLz4NCgkJCTxwYXRoIGQ9Ik01NTUuNzkzLDUwOC40OGMtMzUuODI5LDAuMzQ5LTcwLjU5MywwLjc0NS0xMDQuMjE4LDEuMTljOC44MDUtNDAuOTQ1LDE5LjI4My04MC45ODcsMzEuNDM1LTExOS44ODYNCgkJCQljMzEuNzA5LTAuNTcyLDY0LjQ4NC0xLjA4LDk4LjI1NC0xLjUyOUM1NzEuNDAzLDQyNy4zMTQsNTYyLjkyMSw0NjcuNDU1LDU1NS43OTMsNTA4LjQ4eiIvPg0KCQkJPHBhdGggZD0iTTY5MC4zOTUsNTA3LjQxMWMtMzguOTYyLDAuMjQ0LTc3LjE0NywwLjUzNi0xMTQuNDcxLDAuODc4YzYuODAyLTQxLjAzNywxNC44OTctODEuMTkzLDI0LjMxMi0xMjAuMjgNCgkJCQljMzUuMTY5LTAuNDQsNzEuMTQzLTAuODE1LDEwNy44NDMtMS4xMjhDNzAxLjIyMiw0MjYuMDk1LDY5NS4zMzksNDY2LjMyLDY5MC4zOTUsNTA3LjQxMXoiLz4NCgkJCTxwYXRoIGQ9Ik04MzMuNjYyLDUwNi43NDJjLTQxLjAwMiwwLjEyOS04MS41NDYsMC4zMDgtMTIxLjUzOCwwLjUzOWM0LjU5LTQxLjA5OSwxMC4wNTItODEuMzM0LDE2LjQyLTEyMC41NjgNCgkJCQljMzcuNjYzLTAuMjk2LDc1Ljg0MS0wLjUyNiwxMTQuNDQ4LTAuNjkyQzgzOS4zNzEsNDI1LjMzNyw4MzYuMjY4LDQ2NS42MTMsODMzLjY2Miw1MDYuNzQyeiIvPg0KCQkJPHBhdGggZD0iTTk4MS41MTgsNTA2LjQ5NGMtNDEuODY5LDAuMDA5LTgzLjYxNSwwLjA3LTEyNS4xNDMsMC4xODFjMi4yMzUtNDEuMTMzLDQuODk2LTgxLjQxMyw4LjAwMi0xMjAuNzQNCgkJCQljMzkuMDk4LTAuMTQzLDc4LjQtMC4yMjEsMTE3LjgxNi0wLjIzM0M5ODEuOTMxLDQyNS4wNTgsOTgxLjcwNyw0NjUuMzUxLDk4MS41MTgsNTA2LjQ5NHoiLz4NCgkJCTxwYXRoIGQ9Ik0xMTI5LjcwNyw1MDYuNjc2Yy00MS41MjgtMC4xMTItODMuMjc0LTAuMTcyLTEyNS4xNDMtMC4xODFjLTAuMTg5LTQxLjE0My0wLjQxMy04MS40MzctMC42NzUtMTIwLjc5MQ0KCQkJCWMzOS40MTYsMC4wMTIsNzguNzE4LDAuMDksMTE3LjgxNiwwLjIzM0MxMTI0LjgxMSw0MjUuMjYyLDExMjcuNDcxLDQ2NS41NDMsMTEyOS43MDcsNTA2LjY3NnoiLz4NCgkJCTxwYXRoIGQ9Ik0xMjczLjk1OCw1MDcuMjgxYy0zOS45OTMtMC4yMy04MC41MzYtMC40MDktMTIxLjUzOC0wLjUzOWMtMi42MDctNDEuMTMtNS43MDktODEuNDA1LTkuMzMtMTIwLjcyMQ0KCQkJCWMzOC42MDcsMC4xNjYsNzYuNzg1LDAuMzk2LDExNC40NDgsMC42OTJDMTI2My45MDYsNDI1Ljk0NywxMjY5LjM2OCw0NjYuMTgyLDEyNzMuOTU4LDUwNy4yODF6Ii8+DQoJCQk8cGF0aCBkPSJNMTQxMC4xNTcsNTA4LjI4OWMtMzcuMzI0LTAuMzQyLTc1LjUwOS0wLjYzNC0xMTQuNDcxLTAuODc4Yy00Ljk0NC00MS4wOTEtMTAuODI3LTgxLjMxNi0xNy42ODQtMTIwLjUzDQoJCQkJYzM2LjcsMC4zMTMsNzIuNjc0LDAuNjg4LDEwNy44NDMsMS4xMjhDMTM5NS4yNiw0MjcuMDk3LDE0MDMuMzU1LDQ2Ny4yNTIsMTQxMC4xNTcsNTA4LjI4OXoiLz4NCgkJCTxwYXRoIGQ9Ik0xNTM0LjUwNyw1MDkuNjY5Yy0zMy42MjUtMC40NDUtNjguMzg5LTAuODQtMTA0LjIxOC0xLjE5Yy03LjEyOC00MS4wMjUtMTUuNjEtODEuMTY1LTI1LjQ3MS0xMjAuMjI2DQoJCQkJYzMzLjc3MSwwLjQ0OSw2Ni41NDUsMC45NTcsOTguMjU0LDEuNTI5QzE1MTUuMjI0LDQyOC42ODIsMTUyNS43MDEsNDY4LjcyNCwxNTM0LjUwNyw1MDkuNjY5eiIvPg0KCQkJPHBhdGggZD0iTTE2NDMuNjU5LDUxMS4zNzdjLTI5LjAzNi0wLjUzNi01OS40NDctMS4wMjEtOTEuMTY5LTEuNDY0Yy05LjA5My00MC45MjgtMTkuOTEzLTgwLjk1LTMyLjQ1Ni0xMTkuODE2DQoJCQkJYzI5LjkyOCwwLjU2OSw1OC42MjcsMS4xOTQsODYuMDM5LDEuODgzQzE2MjAuNTc3LDQzMC42NjIsMTYzMy4xMTgsNDcwLjU1NywxNjQzLjY1OSw1MTEuMzc3eiIvPg0KCQkJPHBhdGggZD0iTTE3MzQuODI1LDUxMy4zNjFjLTIzLjcyMy0wLjYxMy00OS4wMDYtMS4xNzMtNzUuODAyLTEuNjkzYy0xMC43ODMtNDAuNzk4LTIzLjYxMS04MC42NjctMzguNDQyLTExOS4zMTQNCgkJCQljMjUuMzEzLDAuNjY5LDQ5LjIwNywxLjM5MSw3MS42MzYsMi4xNzlDMTcwOC42MzQsNDMyLjk4MiwxNzIyLjg2Myw0NzIuNywxNzM0LjgyNSw1MTMuMzYxeiIvPg0KCQkJPHBhdGggZD0iTTE4MDUuODQ0LDUxNS41NjJjLTE3Ljg2Ny0wLjY3Ny0zNy40MjktMS4yOTMtNTguNjUyLTEuODcyYy0xMi4xNTItNDAuNjM0LTI2LjYwNS04MC4zMjItNDMuMjc4LTExOC43MzQNCgkJCQljMjAuMDg1LDAuNzQ2LDM4LjYxLDEuNTQsNTUuNTQsMi40MTFDMTc3Ny4zMDksNDM1LjU3NiwxNzkyLjgxLDQ3NS4wOTEsMTgwNS44NDQsNTE1LjU2MnoiLz4NCgkJCTxwYXRoIGQ9Ik0xODU1LjIyNSw1MTcuOTE2Yy0xMS42NTctMC43MzQtMjUuMDkzLTEuMzgyLTQwLjI4NS0xLjk5OGMtMTMuMTY4LTQwLjQzOC0yOC44MjctNzkuOTItNDYuODYtMTE4LjA5Mg0KCQkJCWMxNC40MTksMC43OTQsMjcuMTg2LDEuNjI5LDM4LjI3NSwyLjU3NUMxODI1LjE1LDQzOC4zNzMsMTg0MS40ODYsNDc3LjY2NSwxODU1LjIyNSw1MTcuOTE2eiIvPg0KCQkJPHBhdGggZD0iTTE4ODIuMTQsNTIwLjM1OWMtNS4yNjctMC44MzMtMTIuMzcxLTEuNDQ4LTIxLjI2My0yLjA2OWMtMTMuODE0LTQwLjIxNC0zMC4yNC03OS40NzEtNDkuMTM1LTExNy40MDYNCgkJCQljOC40OTMsMC44MDEsMTUuMzA4LDEuNjAxLDIwLjM2NiwyLjY2OUMxODUxLjM0Myw0NDEuMjk1LDE4NjguMDcyLDQ4MC4zNTIsMTg4Mi4xNCw1MjAuMzU5eiIvPg0KCQkJPHBhdGggZD0iTTE4ODYuNDA3LDUyMi44MjZjMS4yMDctMC40MjcsMC40MTItMS41NjQtMi4xMjctMi4wODVjLTE0LjA4NS0zOS45NjctMzAuODM2LTc4Ljk4Ny01MC4wOTUtMTE2LjY5NA0KCQkJCWMyLjUyOCwwLjY4NiwzLjQ1NywyLjEwOSwyLjMxOSwyLjY5MkMxODU1LjY5Miw0NDQuMjY1LDE4NzIuMzc4LDQ4My4wODIsMTg4Ni40MDcsNTIyLjgyNnoiLz4NCgkJCTxwYXRoIGQ9Ik02Mi40MDUsNjcwLjI2OGMtMi41MzEsMC4yODEtMy4yMDMsMC45MjctMS45NTEsMS4xNTFjNy40MTgtNDEuNDg5LDE3LjYwOS04Mi40OTMsMzAuNDc3LTEyMi42MjgNCgkJCQljLTEuMjE4LTAuMzkxLTAuNDQ5LTEuNDUyLDIuMDktMS45MzJDODAuMDk1LDU4Ny4yNCw2OS44NTgsNjI4LjUwNSw2Mi40MDUsNjcwLjI2OHoiLz4NCgkJCTxwYXRoIGQ9Ik04Ni41MzMsNjY4LjkxNGMtOS4xOTcsMC4zNDItMTYuNTE3LDAuNjgtMjEuOTQzLDEuMTQzYzcuNDQ1LTQxLjgxMiwxNy42Ny04My4xMjUsMzAuNTgyLTEyMy41NTINCgkJCQljNS4zMDItMC43NzMsMTIuNDU1LTEuMzQyLDIxLjQxNi0xLjkxN0MxMDMuODk2LDU4NS4yNyw5My44NDksNjI2LjgzOSw4Ni41MzMsNjY4LjkxNHoiLz4NCgkJCTxwYXRoIGQ9Ik0xMzQuMjMzLDY2Ny42MDNjLTE1Ljc5MywwLjM0LTI5Ljc0NywwLjY5OC00MS44NDMsMS4xMDRjNy4yNzctNDIuMTIyLDE3LjI3MS04My43MzcsMjkuODk2LTEyNC40NjcNCgkJCQljMTEuNzU1LTAuNjgxLDI1LjMwNy0xLjI4MSw0MC42MzQtMS44NTJDMTUwLjgsNTgzLjM3NSwxNDEuMjE0LDYyNS4yMzMsMTM0LjIzMyw2NjcuNjAzeiIvPg0KCQkJPHBhdGggZD0iTTIwNC43NzgsNjY2LjM3Yy0yMi4xMTQsMC4zMi00Mi40ODYsMC42NjEtNjEuMDg0LDEuMDM2YzYuOTEyLTQyLjQxMywxNi40MDEtODQuMzE0LDI4LjQwMy0xMjUuMzQ4DQoJCQkJYzE4LjAzLTAuNjI4LDM3Ljc3My0xLjE5OSw1OS4xOTYtMS43MzZDMjIwLjA4Miw1ODEuNjA3LDIxMS4yMjgsNjIzLjczMiwyMDQuNzc4LDY2Ni4zN3oiLz4NCgkJCTxwYXRoIGQ9Ik0yOTYuNzQsNjY1LjI1MWMtMjcuOTYsMC4yODgtNTQuMzMzLDAuNTk4LTc5LjA3LDAuOTM3YzYuMzUtNDIuNjc3LDE1LjA2Ny04NC44NDEsMjYuMTA4LTEyNi4xNw0KCQkJCWMyMy45NDktMC41NjgsNDkuNDc1LTEuMDg3LDc2LjUzMS0xLjU3QzMxMC4zMzMsNTgwLjAxNCwzMDIuNDcsNjIyLjM3NiwyOTYuNzQsNjY1LjI1MXoiLz4NCgkJCTxwYXRoIGQ9Ik00MDcuOTc5LDY2NC4yOGMtMzMuMTM1LDAuMjQ1LTY0Ljg5MSwwLjUxNC05NS4yMDQsMC44MTFjNS42MDMtNDIuOTA4LDEzLjI5MS04NS4zMDQsMjMuMDQ3LTEyNi45MTINCgkJCQljMjkuMzIxLTAuNDk3LDYwLjAzMS0wLjk0Nyw5Mi4wNjgtMS4zNTdDNDE5LjQ1NCw1NzguNjQxLDQxMi44MTcsNjIxLjIwNSw0MDcuOTc5LDY2NC4yOHoiLz4NCgkJCTxwYXRoIGQ9Ik01MzUuNjgzLDY2My40ODVjLTM3LjQ1MSwwLjE5NC03My43ODIsMC40MTItMTA4LjkxNywwLjY1OWM0LjY4Ni00My4xMDIsMTEuMTE0LTg1LjY5NCwxOS4yODYtMTI3LjU1DQoJCQkJYzMzLjk2Mi0wLjQxMyw2OS4wNzUtMC43NzksMTA1LjI2NS0xLjEwM0M1NDQuNjg2LDU3Ny41MjUsNTM5LjQ4LDYyMC4yNTIsNTM1LjY4Myw2NjMuNDg1eiIvPg0KCQkJPHBhdGggZD0iTTY3Ni40MjksNjYyLjg5M2MtNDAuNzQ3LDAuMTM1LTgwLjY3NiwwLjI5Ny0xMTkuNywwLjQ4N2MzLjYyNC00My4yNTUsOC41OTMtODYuMDAyLDE0LjkyMy0xMjguMDY1DQoJCQkJYzM3LjcwMi0wLjMxOCw3Ni4yNzYtMC41ODgsMTE1LjYzNS0wLjgxNEM2ODIuNjc4LDU3Ni42OTksNjc5LjA2NSw2MTkuNTQzLDY3Ni40MjksNjYyLjg5M3oiLz4NCgkJCTxwYXRoIGQ9Ik04MjYuMjkxLDY2Mi41MjJjLTQyLjg5NCwwLjA3Mi04NS4zMDUsMC4xNzEtMTI3LjEzNywwLjI5OWMyLjQ0Ny00My4zNjQsNS44MDItODYuMjIzLDEwLjA4My0xMjguNDQyDQoJCQkJYzQwLjQwMi0wLjIxNCw4MS4zNjEtMC4zOCwxMjIuNzg0LTAuNUM4MjkuNTg4LDU3Ni4xODMsODI3LjY4Miw2MTkuMTAxLDgyNi4yOTEsNjYyLjUyMnoiLz4NCgkJCTxwYXRoIGQ9Ik05ODAuOTg1LDY2Mi4zODVjLTQzLjgwNiwwLjAwNS04Ny40ODQsMC4wMzktMTMwLjkzMSwwLjEwMWMxLjE5My00My40MjgsMi44MjctODYuMzUzLDQuOTE1LTEyOC42NjcNCgkJCQljNDEuOTU1LTAuMTA0LDg0LjEzMS0wLjE2LDEyNi40MzEtMC4xNjhDOTgxLjIyMyw1NzUuOTkzLDk4MS4wODUsNjE4LjkzNyw5ODAuOTg1LDY2Mi4zODV6Ii8+DQoJCQk8cGF0aCBkPSJNMTEzNi4wMjgsNjYyLjQ4NWMtNDMuNDQ4LTAuMDYyLTg3LjEyNS0wLjA5NS0xMzAuOTMyLTAuMTAxYy0wLjEwMS00My40NDgtMC4yMzgtODYuMzkyLTAuNDE1LTEyOC43MzUNCgkJCQljNDIuMywwLjAwOSw4NC40NzYsMC4wNjUsMTI2LjQzMSwwLjE2OEMxMTMzLjIwMSw1NzYuMTMyLDExMzQuODM2LDYxOS4wNTcsMTEzNi4wMjgsNjYyLjQ4NXoiLz4NCgkJCTxwYXRoIGQ9Ik0xMjg2LjkyNyw2NjIuODIxYy00MS44MzItMC4xMjgtODQuMjQzLTAuMjI3LTEyNy4xMzctMC4yOTljLTEuMzkxLTQzLjQyMS0zLjI5Ni04Ni4zMzktNS43My0xMjguNjQzDQoJCQkJYzQxLjQyMywwLjEyLDgyLjM4MiwwLjI4NiwxMjIuNzg0LDAuNUMxMjgxLjEyNSw1NzYuNTk4LDEyODQuNDc5LDYxOS40NTcsMTI4Ni45MjcsNjYyLjgyMXoiLz4NCgkJCTxwYXRoIGQ9Ik0xNDI5LjM1Myw2NjMuMzhjLTM5LjAyNC0wLjE5LTc4Ljk1My0wLjM1Mi0xMTkuNy0wLjQ4N2MtMi42MzYtNDMuMzUtNi4yNDktODYuMTk0LTEwLjg1OC0xMjguMzkzDQoJCQkJYzM5LjM1OSwwLjIyNiw3Ny45MzMsMC40OTcsMTE1LjYzNSwwLjgxNEMxNDIwLjc2LDU3Ny4zNzgsMTQyNS43MjksNjIwLjEyNSwxNDI5LjM1Myw2NjMuMzh6Ii8+DQoJCQk8cGF0aCBkPSJNMTU1OS4zMTUsNjY0LjE0NGMtMzUuMTM1LTAuMjQ3LTcxLjQ2Ni0wLjQ2NS0xMDguOTE3LTAuNjU5Yy0zLjc5Ny00My4yMzQtOS4wMDMtODUuOTYtMTUuNjM0LTEyNy45OTQNCgkJCQljMzYuMTksMC4zMjQsNzEuMzAzLDAuNjkxLDEwNS4yNjUsMS4xMDNDMTU0OC4yMDIsNTc4LjQ1LDE1NTQuNjI5LDYyMS4wNDIsMTU1OS4zMTUsNjY0LjE0NHoiLz4NCgkJCTxwYXRoIGQ9Ik0xNjczLjMwNiw2NjUuMDljLTMwLjMxMy0wLjI5Ny02Mi4wNjktMC41NjUtOTUuMjA0LTAuODExYy00LjgzOC00My4wNzUtMTEuNDc1LTg1LjYzOS0xOS45MTEtMTI3LjQ1OQ0KCQkJCWMzMi4wMzcsMC40MSw2Mi43NDcsMC44NjEsOTIuMDY4LDEuMzU3QzE2NjAuMDE2LDU3OS43ODYsMTY2Ny43MDMsNjIyLjE4MiwxNjczLjMwNiw2NjUuMDl6Ii8+DQoJCQk8cGF0aCBkPSJNMTc2OC40MTIsNjY2LjE4OGMtMjQuNzM2LTAuMzM5LTUxLjEwOS0wLjY0OS03OS4wNy0wLjkzN2MtNS43My00Mi44NzUtMTMuNTk0LTg1LjIzNy0yMy41NjktMTI2LjgwMw0KCQkJCWMyNy4wNTYsMC40ODIsNTIuNTgyLDEuMDAyLDc2LjUzMSwxLjU3QzE3NTMuMzQ1LDU4MS4zNDgsMTc2Mi4wNjEsNjIzLjUxMSwxNzY4LjQxMiw2NjYuMTg4eiIvPg0KCQkJPHBhdGggZD0iTTE4NDIuMzg3LDY2Ny40MDZjLTE4LjU5Ny0wLjM3NC0zOC45Ny0wLjcxNS02MS4wODQtMS4wMzZjLTYuNDUtNDIuNjM4LTE1LjMwMy04NC43NjMtMjYuNTE1LTEyNi4wNDgNCgkJCQljMjEuNDIyLDAuNTM3LDQxLjE2NSwxLjEwOCw1OS4xOTYsMS43MzZDMTgyNS45ODUsNTgzLjA5MiwxODM1LjQ3NSw2MjQuOTkyLDE4NDIuMzg3LDY2Ny40MDZ6Ii8+DQoJCQk8cGF0aCBkPSJNMTg5My42OTIsNjY4LjcwN2MtMTIuMDk2LTAuNDA2LTI2LjA1LTAuNzY0LTQxLjg0My0xLjEwNGMtNi45ODEtNDIuMzctMTYuNTY3LTg0LjIyNy0yOC42ODctMTI1LjIxNA0KCQkJCWMxNS4zMjYsMC41NzEsMjguODc4LDEuMTcxLDQwLjYzNCwxLjg1MkMxODc2LjQyMSw1ODQuOTcsMTg4Ni40MTQsNjI2LjU4NSwxODkzLjY5Miw2NjguNzA3eiIvPg0KCQkJPHBhdGggZD0iTTE5MjEuNDkxLDY3MC4wNTdjLTUuNDI1LTAuNDYzLTEyLjc0NS0wLjgtMjEuOTQzLTEuMTQzYy03LjMxNi00Mi4wNzUtMTcuMzYzLTgzLjY0NC0zMC4wNTUtMTI0LjMyNw0KCQkJCWM4Ljk2MSwwLjU3NSwxNi4xMTQsMS4xNDQsMjEuNDE2LDEuOTE3QzE5MDMuODIxLDU4Ni45MzIsMTkxNC4wNDcsNjI4LjI0NSwxOTIxLjQ5MSw2NzAuMDU3eiIvPg0KCQkJPHBhdGggZD0iTTE5MjUuNjI3LDY3MS40MTljMS4yNTItMC4yMjQsMC41OC0wLjg3LTEuOTUxLTEuMTUxYy03LjQ1My00MS43NjItMTcuNjktODMuMDI4LTMwLjYxNy0xMjMuNDA5DQoJCQkJYzIuNTM5LDAuNDgsMy4zMDgsMS41NDEsMi4wOSwxLjkzMkMxOTA4LjAxOCw1ODguOTI1LDE5MTguMjA5LDYyOS45MjksMTkyNS42MjcsNjcxLjQxOXoiLz4NCgkJCTxwYXRoIGQ9Ik00Ny42NTQsODI0LjMwMWMtMi41MjMsMC4wMjMtMy4xNDUsMC4wNzgtMS44NzksMC4wOTZjMC42MTItNDIuMTQzLDQuMDM5LTg0LjI1NSwxMC4yNDktMTI1Ljk0Mg0KCQkJCWMtMS4yNTctMC4xODgtMC42LTAuNzMzLDEuOTI5LTAuOTY5QzUxLjcxNCw3MzkuNDYsNDguMjcsNzgxLjg2NCw0Ny42NTQsODI0LjMwMXoiLz4NCgkJCTxwYXRoIGQ9Ik03Mi4wNDcsODI0LjE4OGMtOS4zMSwwLjAyOS0xNi43MDcsMC4wNTctMjIuMTkxLDAuMDk1YzAuNjE1LTQyLjQ5Miw0LjA1NS04NC45NDksMTAuMjg5LTEyNi45NzUNCgkJCQljNS40NDMtMC4zOSwxMi43ODctMC42NzQsMjIuMDE4LTAuOTYyQzc2LjAzMiw3MzguNjYyLDcyLjY1MSw3ODEuNDA1LDcyLjA0Nyw4MjQuMTg4eiIvPg0KCQkJPHBhdGggZD0iTTEyMC40MDEsODI0LjA3OWMtMTYuMDE2LDAuMDI4LTMwLjE2MiwwLjA1OC00Mi40MjEsMC4wOTJjMC42MDEtNDIuODM2LDMuOTY1LTg1LjYzLDEwLjA2Mi0xMjcuOTk5DQoJCQkJYzEyLjE0NS0wLjM0MiwyNi4xNTctMC42NDMsNDIuMDE4LTAuOTNDMTI0LjIwNSw3MzcuODk1LDEyMC45NzgsNzgwLjk2MSwxMjAuNDAxLDgyNC4wNzl6Ii8+DQoJCQk8cGF0aCBkPSJNMTkxLjk5LDgyMy45NzZjLTIyLjQ0NiwwLjAyNy00My4xMjEsMC4wNTUtNjEuOTksMC4wODZjMC41NzEtNDMuMTY3LDMuNzY2LTg2LjI4Miw5LjU2NC0xMjguOTg2DQoJCQkJYzE4LjY4LTAuMzE1LDM5LjE0My0wLjYwMiw2MS4zNTctMC44NzJDMTk1LjUwNSw3MzcuMTgsMTkyLjUyMyw3ODAuNTQ2LDE5MS45OSw4MjMuOTc2eiIvPg0KCQkJPHBhdGggZD0iTTI4NS4zNjgsODIzLjg4MmMtMjguMzk2LDAuMDI0LTU1LjE3NiwwLjA1LTgwLjI5MSwwLjA3OGMwLjUyNS00My40NzYsMy40NjEtODYuODg1LDguNzk0LTEyOS45MDkNCgkJCQljMjQuODUxLTAuMjg2LDUxLjM0Ny0wLjU0Nyw3OS40MzktMC43ODlDMjg4LjQ5Miw3MzYuNTM3LDI4NS44NDIsNzgwLjE2OSwyODUuMzY4LDgyMy44ODJ6Ii8+DQoJCQk8cGF0aCBkPSJNMzk4LjM3LDgyMy44MDFjLTMzLjY2MywwLjAyMS02NS45MjQsMC4wNDMtOTYuNzE1LDAuMDY4YzAuNDY0LTQzLjc1NCwzLjA1NC04Ny40MjQsNy43NjYtMTMwLjc0Mg0KCQkJCWMzMC40NTgtMC4yNSw2Mi4zNjYtMC40NzYsOTUuNjYtMC42ODNDNDAxLjAwNyw3MzUuOTgxLDM5OC43NzEsNzc5Ljg0MywzOTguMzcsODIzLjgwMXoiLz4NCgkJCTxwYXRoIGQ9Ik01MjguMTM2LDgyMy43MzVjLTM4LjA1OSwwLjAxNi03NC45NzgsMC4wMzQtMTEwLjY3OSwwLjA1NWMwLjM4OC00My45OTIsMi41NTUtODcuODg1LDYuNTAxLTEzMS40NTkNCgkJCQljMzUuMzA1LTAuMjA4LDcxLjgxNC0wLjM5MiwxMDkuNDQ4LTAuNTU1QzUzMC4yMDcsNzM1LjUzLDUyOC40NTEsNzc5LjU3Nyw1MjguMTM2LDgyMy43MzV6Ii8+DQoJCQk8cGF0aCBkPSJNNjcxLjE4Niw4MjMuNjg1Yy00MS40MTYsMC4wMTEtODIsMC4wMjUtMTIxLjY2MiwwLjA0MWMwLjMwMS00NC4xODUsMS45NzYtODguMjU1LDUuMDMxLTEzMi4wMzkNCgkJCQljMzkuMjE2LTAuMTYsNzkuMzQzLTAuMjk2LDEyMC4yOTItMC40MUM2NzIuNjI0LDczNS4xOTYsNjcxLjQwNSw3NzkuMzc4LDY3MS4xODYsODIzLjY4NXoiLz4NCgkJCTxwYXRoIGQ9Ik04MjMuNTI0LDgyMy42NTRjLTQzLjYwNCwwLjAwNi04Ni43MTYsMC4wMTQtMTI5LjIzOCwwLjAyNWMwLjIwMy00NC4zMjUsMS4zMzUtODguNTI0LDMuNC0xMzIuNDYzDQoJCQkJYzQyLjA0LTAuMTA3LDg0LjY2Mi0wLjE5MSwxMjcuNzctMC4yNTFDODI0LjI4Myw3MzQuOTg3LDgyMy42NCw3NzkuMjU0LDgyMy41MjQsODIzLjY1NHoiLz4NCgkJCTxwYXRoIGQ9Ik05ODAuNzg1LDgyMy42NDNjLTQ0LjUzNCwwLTg4LjkzNiwwLjAwMy0xMzMuMTA0LDAuMDA4YzAuMDk5LTQ0LjQwOSwwLjY1LTg4LjY4NSwxLjY1Ny0xMzIuNzE3DQoJCQkJYzQzLjY2NS0wLjA1Miw4Ny41NjEtMC4wOCwxMzEuNTg3LTAuMDg1Qzk4MC44MzksNzM0LjkxLDk4MC43OTMsNzc5LjIwOCw5ODAuNzg1LDgyMy42NDN6Ii8+DQoJCQk8cGF0aCBkPSJNMTEzOC40MDEsODIzLjY1MWMtNDQuMTY4LTAuMDA1LTg4LjU3MS0wLjAwOC0xMzMuMTA0LTAuMDA4Yy0wLjAwOC00NC40MzQtMC4wNTUtODguNzMzLTAuMTQtMTMyLjc5NA0KCQkJCWM0NC4wMjYsMC4wMDQsODcuOTIyLDAuMDMzLDEzMS41ODcsMC4wODVDMTEzNy43NTEsNzM0Ljk2NiwxMTM4LjMwMiw3NzkuMjQyLDExMzguNDAxLDgyMy42NTF6Ii8+DQoJCQk8cGF0aCBkPSJNMTI5MS43OTUsODIzLjY3OWMtNDIuNTIyLTAuMDExLTg1LjYzNC0wLjAxOS0xMjkuMjM4LTAuMDI1Yy0wLjExNS00NC40LTAuNzU4LTg4LjY2Ny0xLjkzMi0xMzIuNjkNCgkJCQljNDMuMTA4LDAuMDYsODUuNzMxLDAuMTQ0LDEyNy43NywwLjI1MUMxMjkwLjQ2LDczNS4xNTUsMTI5MS41OTIsNzc5LjM1NCwxMjkxLjc5NSw4MjMuNjc5eiIvPg0KCQkJPHBhdGggZD0iTTE0MzYuNTU3LDgyMy43MjZjLTM5LjY2MS0wLjAxNi04MC4yNDUtMC4wMjktMTIxLjY2Mi0wLjA0MWMtMC4yMTktNDQuMzA3LTEuNDM3LTg4LjQ5LTMuNjYxLTEzMi40MDgNCgkJCQljNDAuOTQ5LDAuMTE0LDgxLjA3NiwwLjI1LDEyMC4yOTIsMC40MUMxNDM0LjU4MSw3MzUuNDcxLDE0MzYuMjU2LDc3OS41NDEsMTQzNi41NTcsODIzLjcyNnoiLz4NCgkJCTxwYXRoIGQ9Ik0xNTY4LjYyNCw4MjMuNzljLTM1LjctMC4wMjEtNzIuNjItMC4wMzktMTEwLjY3OS0wLjA1NWMtMC4zMTUtNDQuMTU4LTIuMDctODguMjA0LTUuMjcxLTEzMS45NTkNCgkJCQljMzcuNjM0LDAuMTYzLDc0LjE0MywwLjM0NywxMDkuNDQ4LDAuNTU1QzE1NjYuMDY5LDczNS45MDQsMTU2OC4yMzUsNzc5Ljc5NywxNTY4LjYyNCw4MjMuNzl6Ii8+DQoJCQk8cGF0aCBkPSJNMTY4NC40MjcsODIzLjg2OWMtMzAuNzkxLTAuMDI1LTYzLjA1MS0wLjA0Ny05Ni43MTUtMC4wNjhjLTAuNDAxLTQzLjk1OC0yLjYzOC04Ny44Mi02LjcxMS0xMzEuMzU2DQoJCQkJYzMzLjI5NCwwLjIwNiw2NS4yMDIsMC40MzMsOTUuNjYsMC42ODNDMTY4MS4zNzIsNzM2LjQ0NCwxNjgzLjk2Myw3ODAuMTE1LDE2ODQuNDI3LDgyMy44Njl6Ii8+DQoJCQk8cGF0aCBkPSJNMTc4MS4wMDUsODIzLjk2MWMtMjUuMTE1LTAuMDI4LTUxLjg5Ni0wLjA1NC04MC4yOTItMC4wNzhjLTAuNDc0LTQzLjcxMy0zLjEyNC04Ny4zNDYtNy45NDEtMTMwLjYyDQoJCQkJYzI4LjA5MiwwLjI0Miw1NC41ODgsMC41MDQsNzkuNDM5LDAuNzg5QzE3NzcuNTQ0LDczNy4wNzYsMTc4MC40OCw3ODAuNDg0LDE3ODEuMDA1LDgyMy45NjF6Ii8+DQoJCQk8cGF0aCBkPSJNMTg1Ni4wODIsODI0LjA2MmMtMTguODctMC4wMzEtMzkuNTQ0LTAuMDYtNjEuOTktMC4wODZjLTAuNTM0LTQzLjQzLTMuNTE1LTg2Ljc5NS04LjkzMS0xMjkuNzcxDQoJCQkJYzIyLjIxNCwwLjI3LDQyLjY3OCwwLjU1Nyw2MS4zNTcsMC44NzJDMTg1Mi4zMTYsNzM3Ljc4MSwxODU1LjUxMSw3ODAuODk1LDE4NTYuMDgyLDgyNC4wNjJ6Ii8+DQoJCQk8cGF0aCBkPSJNMTkwOC4xMDIsODI0LjE3MWMtMTIuMjU5LTAuMDM0LTI2LjQwNS0wLjA2NC00Mi40MjEtMC4wOTJjLTAuNTc3LTQzLjExNy0zLjgwNC04Ni4xODMtOS42NTktMTI4LjgzNg0KCQkJCWMxNS44NiwwLjI4NywyOS44NzIsMC41ODgsNDIuMDE4LDAuOTNDMTkwNC4xMzcsNzM4LjU0MSwxOTA3LjUwMSw3ODEuMzM1LDE5MDguMTAyLDgyNC4xNzF6Ii8+DQoJCQk8cGF0aCBkPSJNMTkzNi4yMjYsODI0LjI4NGMtNS40ODQtMC4wMzktMTIuODgyLTAuMDY3LTIyLjE5MS0wLjA5NWMtMC42MDQtNDIuNzg0LTMuOTg2LTg1LjUyNi0xMC4xMTUtMTI3Ljg0Mg0KCQkJCWM5LjIzMSwwLjI4OCwxNi41NzUsMC41NzIsMjIuMDE4LDAuOTYyQzE5MzIuMTcyLDczOS4zMzUsMTkzNS42MTIsNzgxLjc5MiwxOTM2LjIyNiw4MjQuMjg0eiIvPg0KCQkJPHBhdGggZD0iTTE5NDAuMzA2LDgyNC4zOTdjMS4yNjctMC4wMTgsMC42NDUtMC4wNzMtMS44NzktMC4wOTZjLTAuNjE1LTQyLjQzOC00LjA1OS04NC44NDItMTAuMy0xMjYuODE1DQoJCQkJYzIuNTI5LDAuMjM2LDMuMTg2LDAuNzgxLDEuOTI5LDAuOTY5QzE5MzYuMjY2LDc0MC4xNDMsMTkzOS42OTMsNzgyLjI1NSwxOTQwLjMwNiw4MjQuMzk3eiIvPg0KCQkJPHBhdGggZD0iTTU3Ljk1NCw5NzguNzA2Yy0yLjUyOS0wLjIzNi0zLjE4Ni0wLjc4MS0xLjkyOS0wLjk2OWMtNi4yMS00MS42ODctOS42MzctODMuNzk5LTEwLjI0OS0xMjUuOTQyDQoJCQkJYy0xLjI2NywwLjAxOC0wLjY0NSwwLjA3MywxLjg3OSwwLjA5NkM0OC4yNyw4OTQuMzI4LDUxLjcxNCw5MzYuNzMyLDU3Ljk1NCw5NzguNzA2eiIvPg0KCQkJPHBhdGggZD0iTTgyLjE2Miw5NzkuODQ1Yy05LjIzMS0wLjI4OC0xNi41NzUtMC41NzItMjIuMDE4LTAuOTYyQzUzLjkxLDkzNi44NTcsNTAuNDcsODk0LjQsNDkuODU1LDg1MS45MDgNCgkJCQljNS40ODQsMC4wMzksMTIuODgyLDAuMDY3LDIyLjE5MSwwLjA5NUM3Mi42NTEsODk0Ljc4Nyw3Ni4wMzIsOTM3LjUzLDgyLjE2Miw5NzkuODQ1eiIvPg0KCQkJPHBhdGggZD0iTTEzMC4wNiw5ODAuOTQ5Yy0xNS44Ni0wLjI4Ny0yOS44NzItMC41ODgtNDIuMDE4LTAuOTNjLTYuMDk4LTQyLjM2OC05LjQ2MS04NS4xNjItMTAuMDYyLTEyNy45OTkNCgkJCQljMTIuMjU5LDAuMDM0LDI2LjQwNSwwLjA2NCw0Mi40MjEsMC4wOTJDMTIwLjk3OCw4OTUuMjMxLDEyNC4yMDUsOTM4LjI5NywxMzAuMDYsOTgwLjk0OXoiLz4NCgkJCTxwYXRoIGQ9Ik0yMDAuOTIsOTgxLjk4N2MtMjIuMjE0LTAuMjctNDIuNjc4LTAuNTU3LTYxLjM1Ny0wLjg3MmMtNS43OTctNDIuNzA0LTguOTkyLTg1LjgxOC05LjU2NC0xMjguOTg2DQoJCQkJYzE4Ljg3LDAuMDMxLDM5LjU0NCwwLjA2LDYxLjk5LDAuMDg2QzE5Mi41MjMsODk1LjY0NiwxOTUuNTA1LDkzOS4wMTIsMjAwLjkyLDk4MS45ODd6Ii8+DQoJCQk8cGF0aCBkPSJNMjkzLjMwOSw5ODIuOTI5Yy0yOC4wOTItMC4yNDItNTQuNTg4LTAuNTA0LTc5LjQzOS0wLjc4OWMtNS4zMzMtNDMuMDI0LTguMjY5LTg2LjQzMy04Ljc5NC0xMjkuOTA5DQoJCQkJYzI1LjExNSwwLjAyOCw1MS44OTUsMC4wNTQsODAuMjkxLDAuMDc4QzI4NS44NDIsODk2LjAyMywyODguNDkyLDkzOS42NTUsMjkzLjMwOSw5ODIuOTI5eiIvPg0KCQkJPHBhdGggZD0iTTQwNS4wODEsOTgzLjc0N2MtMzMuMjk0LTAuMjA2LTY1LjIwMi0wLjQzMy05NS42Ni0wLjY4M2MtNC43MTItNDMuMzE3LTcuMzAyLTg2Ljk4OC03Ljc2Ni0xMzAuNzQyDQoJCQkJYzMwLjc5MSwwLjAyNSw2My4wNTEsMC4wNDcsOTYuNzE1LDAuMDY4QzM5OC43NzEsODk2LjM0OSw0MDEuMDA3LDk0MC4yMTEsNDA1LjA4MSw5ODMuNzQ3eiIvPg0KCQkJPHBhdGggZD0iTTUzMy40MDcsOTg0LjQxNmMtMzcuNjM0LTAuMTYzLTc0LjE0My0wLjM0Ny0xMDkuNDQ4LTAuNTU1Yy0zLjk0Ni00My41NzQtNi4xMTItODcuNDY3LTYuNTAxLTEzMS40NTkNCgkJCQljMzUuNywwLjAyMSw3Mi42MiwwLjAzOSwxMTAuNjc5LDAuMDU1QzUyOC40NTEsODk2LjYxNSw1MzAuMjA3LDk0MC42NjIsNTMzLjQwNyw5ODQuNDE2eiIvPg0KCQkJPHBhdGggZD0iTTY3NC44NDgsOTg0LjkxNWMtNDAuOTQ5LTAuMTE0LTgxLjA3Ni0wLjI1LTEyMC4yOTItMC40MWMtMy4wNTUtNDMuNzg0LTQuNzMxLTg3Ljg1NC01LjAzMS0xMzIuMDM5DQoJCQkJYzM5LjY2MSwwLjAxNiw4MC4yNDUsMC4wMjksMTIxLjY2MiwwLjA0MUM2NzEuNDA1LDg5Ni44MTQsNjcyLjYyNCw5NDAuOTk2LDY3NC44NDgsOTg0LjkxNXoiLz4NCgkJCTxwYXRoIGQ9Ik04MjUuNDU3LDk4NS4yMjdjLTQzLjEwOC0wLjA2LTg1LjczMS0wLjE0NC0xMjcuNzctMC4yNTFjLTIuMDY1LTQzLjkzOS0zLjE5Ny04OC4xMzgtMy40LTEzMi40NjMNCgkJCQljNDIuNTIyLDAuMDExLDg1LjYzNCwwLjAxOSwxMjkuMjM4LDAuMDI1QzgyMy42NCw4OTYuOTM4LDgyNC4yODMsOTQxLjIwNSw4MjUuNDU3LDk4NS4yMjd6Ii8+DQoJCQk8cGF0aCBkPSJNOTgwLjkyNCw5ODUuMzQzYy00NC4wMjYtMC4wMDQtODcuOTIyLTAuMDMzLTEzMS41ODctMC4wODVjLTEuMDA3LTQ0LjAzMy0xLjU1OC04OC4zMDgtMS42NTctMTMyLjcxNw0KCQkJCWM0NC4xNjgsMC4wMDUsODguNTcxLDAuMDA4LDEzMy4xMDQsMC4wMDhDOTgwLjc5Myw4OTYuOTg0LDk4MC44MzksOTQxLjI4Miw5ODAuOTI0LDk4NS4zNDN6Ii8+DQoJCQk8cGF0aCBkPSJNMTEzNi43NDQsOTg1LjI1OGMtNDMuNjY1LDAuMDUyLTg3LjU2MSwwLjA4LTEzMS41ODcsMC4wODVjMC4wODUtNDQuMDYxLDAuMTMxLTg4LjM1OSwwLjE0LTEzMi43OTQNCgkJCQljNDQuNTM0LDAsODguOTM2LTAuMDAzLDEzMy4xMDQtMC4wMDhDMTEzOC4zMDIsODk2Ljk1LDExMzcuNzUxLDk0MS4yMjYsMTEzNi43NDQsOTg1LjI1OHoiLz4NCgkJCTxwYXRoIGQ9Ik0xMjg4LjM5NSw5ODQuOTc2Yy00Mi4wNCwwLjEwNy04NC42NjIsMC4xOTEtMTI3Ljc3LDAuMjUxYzEuMTc0LTQ0LjAyMiwxLjgxNy04OC4yOSwxLjkzMi0xMzIuNjkNCgkJCQljNDMuNjA0LTAuMDA2LDg2LjcxNi0wLjAxNCwxMjkuMjM4LTAuMDI1QzEyOTEuNTkyLDg5Ni44MzgsMTI5MC40Niw5NDEuMDM3LDEyODguMzk1LDk4NC45NzZ6Ii8+DQoJCQk8cGF0aCBkPSJNMTQzMS41MjYsOTg0LjUwNWMtMzkuMjE2LDAuMTYtNzkuMzQzLDAuMjk2LTEyMC4yOTIsMC40MWMyLjIyNC00My45MTksMy40NDMtODguMTAxLDMuNjYxLTEzMi40MDgNCgkJCQljNDEuNDE2LTAuMDExLDgyLTAuMDI1LDEyMS42NjItMC4wNDFDMTQzNi4yNTYsODk2LjY1MSwxNDM0LjU4MSw5NDAuNzIxLDE0MzEuNTI2LDk4NC41MDV6Ii8+DQoJCQk8cGF0aCBkPSJNMTU2Mi4xMjMsOTgzLjg2MWMtMzUuMzA1LDAuMjA4LTcxLjgxNCwwLjM5Mi0xMDkuNDQ4LDAuNTU1YzMuMjAxLTQzLjc1NSw0Ljk1Ni04Ny44MDEsNS4yNzEtMTMxLjk1OQ0KCQkJCWMzOC4wNTktMC4wMTYsNzQuOTc4LTAuMDM0LDExMC42NzktMC4wNTVDMTU2OC4yMzUsODk2LjM5NSwxNTY2LjA2OSw5NDAuMjg4LDE1NjIuMTIzLDk4My44NjF6Ii8+DQoJCQk8cGF0aCBkPSJNMTY3Ni42NjEsOTgzLjA2NWMtMzAuNDU4LDAuMjUtNjIuMzY2LDAuNDc2LTk1LjY2LDAuNjgzYzQuMDczLTQzLjUzNyw2LjMxLTg3LjM5OCw2LjcxMS0xMzEuMzU2DQoJCQkJYzMzLjY2My0wLjAyMSw2NS45MjQtMC4wNDMsOTYuNzE1LTAuMDY4QzE2ODMuOTYzLDg5Ni4wNzcsMTY4MS4zNzIsOTM5Ljc0OCwxNjc2LjY2MSw5ODMuMDY1eiIvPg0KCQkJPHBhdGggZD0iTTE3NzIuMjExLDk4Mi4xNGMtMjQuODUxLDAuMjg2LTUxLjM0NywwLjU0Ny03OS40MzksMC43ODljNC44MTgtNDMuMjc0LDcuNDY3LTg2LjkwNiw3Ljk0MS0xMzAuNjINCgkJCQljMjguMzk2LTAuMDI0LDU1LjE3Ni0wLjA1LDgwLjI5Mi0wLjA3OEMxNzgwLjQ4LDg5NS43MDgsMTc3Ny41NDQsOTM5LjExNiwxNzcyLjIxMSw5ODIuMTR6Ii8+DQoJCQk8cGF0aCBkPSJNMTg0Ni41MTksOTgxLjExNWMtMTguNjgsMC4zMTUtMzkuMTQzLDAuNjAyLTYxLjM1NywwLjg3MmM1LjQxNS00Mi45NzYsOC4zOTctODYuMzQxLDguOTMxLTEyOS43NzENCgkJCQljMjIuNDQ2LTAuMDI3LDQzLjEyMS0wLjA1NSw2MS45OS0wLjA4NkMxODU1LjUxMSw4OTUuMjk3LDE4NTIuMzE2LDkzOC40MTEsMTg0Ni41MTksOTgxLjExNXoiLz4NCgkJCTxwYXRoIGQ9Ik0xODk4LjAzOSw5ODAuMDJjLTEyLjE0NSwwLjM0Mi0yNi4xNTcsMC42NDMtNDIuMDE4LDAuOTNjNS44NTQtNDIuNjUzLDkuMDgyLTg1LjcxOSw5LjY1OS0xMjguODM2DQoJCQkJYzE2LjAxNi0wLjAyOCwzMC4xNjItMC4wNTgsNDIuNDIxLTAuMDkyQzE5MDcuNTAxLDg5NC44NTcsMTkwNC4xMzcsOTM3LjY1MSwxODk4LjAzOSw5ODAuMDJ6Ii8+DQoJCQk8cGF0aCBkPSJNMTkyNS45MzgsOTc4Ljg4M2MtNS40NDMsMC4zOS0xMi43ODcsMC42NzQtMjIuMDE4LDAuOTYyYzYuMTMtNDIuMzE1LDkuNTExLTg1LjA1OCwxMC4xMTUtMTI3Ljg0Mg0KCQkJCWM5LjMxLTAuMDI5LDE2LjcwNy0wLjA1NywyMi4xOTEtMC4wOTVDMTkzNS42MTIsODk0LjQsMTkzMi4xNzIsOTM2Ljg1NywxOTI1LjkzOCw5NzguODgzeiIvPg0KCQkJPHBhdGggZD0iTTE5MzAuMDU3LDk3Ny43MzdjMS4yNTcsMC4xODgsMC42LDAuNzMzLTEuOTI5LDAuOTY5YzYuMjQtNDEuOTczLDkuNjg0LTg0LjM3NywxMC4zLTEyNi44MTUNCgkJCQljMi41MjMtMC4wMjMsMy4xNDUtMC4wNzgsMS44NzktMC4wOTZDMTkzOS42OTMsODkzLjkzNywxOTM2LjI2Niw5MzYuMDQ5LDE5MzAuMDU3LDk3Ny43Mzd6Ii8+DQoJCQk8cGF0aCBkPSJNOTMuMDIyLDExMjkuMzM0Yy0yLjUzOS0wLjQ4LTMuMzA4LTEuNTQxLTIuMDktMS45MzJjLTEyLjg2OC00MC4xMzUtMjMuMDU5LTgxLjEzOS0zMC40NzctMTIyLjYyOA0KCQkJCWMtMS4yNTIsMC4yMjQtMC41OCwwLjg3LDEuOTUxLDEuMTUxQzY5Ljg1OCwxMDQ3LjY4Nyw4MC4wOTUsMTA4OC45NTIsOTMuMDIyLDExMjkuMzM0eiIvPg0KCQkJPHBhdGggZD0iTTExNi41ODgsMTEzMS42MDVjLTguOTYxLTAuNTc1LTE2LjExNC0xLjE0NC0yMS40MTYtMS45MTdjLTEyLjkxMi00MC40MjgtMjMuMTM3LTgxLjc0MS0zMC41ODItMTIzLjU1Mg0KCQkJCWM1LjQyNSwwLjQ2MywxMi43NDUsMC44LDIxLjk0MywxLjE0M0M5My44NDksMTA0OS4zNTQsMTAzLjg5NiwxMDkwLjkyMiwxMTYuNTg4LDExMzEuNjA1eiIvPg0KCQkJPHBhdGggZD0iTTE2Mi45MiwxMTMzLjgwNGMtMTUuMzI2LTAuNTcxLTI4Ljg3OC0xLjE3MS00MC42MzQtMS44NTJjLTEyLjYyNi00MC43My0yMi42MTktODIuMzQ1LTI5Ljg5Ni0xMjQuNDY3DQoJCQkJYzEyLjA5NiwwLjQwNiwyNi4wNSwwLjc2NCw0MS44NDMsMS4xMDRDMTQxLjIxNCwxMDUwLjk1OSwxNTAuOCwxMDkyLjgxNywxNjIuOTIsMTEzMy44MDR6Ii8+DQoJCQk8cGF0aCBkPSJNMjMxLjI5MywxMTM1Ljg3Yy0yMS40MjItMC41MzctNDEuMTY1LTEuMTA4LTU5LjE5Ni0xLjczNmMtMTIuMDAxLTQxLjAzNC0yMS40OTEtODIuOTM1LTI4LjQwMy0xMjUuMzQ4DQoJCQkJYzE4LjU5NywwLjM3NCwzOC45NywwLjcxNSw2MS4wODQsMS4wMzZDMjExLjIyOCwxMDUyLjQ2LDIyMC4wODIsMTA5NC41ODUsMjMxLjI5MywxMTM1Ljg3eiIvPg0KCQkJPHBhdGggZD0iTTMyMC4zMDgsMTEzNy43NDRjLTI3LjA1Ni0wLjQ4Mi01Mi41ODItMS4wMDItNzYuNTMxLTEuNTdjLTExLjA0MS00MS4zMy0xOS43NTctODMuNDkzLTI2LjEwOC0xMjYuMTcxDQoJCQkJYzI0LjczNiwwLjMzOSw1MS4xMDksMC42NDksNzkuMDcsMC45MzdDMzAyLjQ3LDEwNTMuODE2LDMxMC4zMzMsMTA5Ni4xNzgsMzIwLjMwOCwxMTM3Ljc0NHoiLz4NCgkJCTxwYXRoIGQ9Ik00MjcuODksMTEzOS4zNzFjLTMyLjAzNy0wLjQxLTYyLjc0Ny0wLjg2MS05Mi4wNjgtMS4zNTdjLTkuNzU2LTQxLjYwOC0xNy40NDQtODQuMDA0LTIzLjA0Ny0xMjYuOTEyDQoJCQkJYzMwLjMxMywwLjI5Nyw2Mi4wNywwLjU2NSw5NS4yMDQsMC44MTFDNDEyLjgxNywxMDU0Ljk4Nyw0MTkuNDU0LDEwOTcuNTUxLDQyNy44OSwxMTM5LjM3MXoiLz4NCgkJCTxwYXRoIGQ9Ik01NTEuMzE3LDExNDAuNzAxYy0zNi4xOS0wLjMyNC03MS4zMDMtMC42OTEtMTA1LjI2NS0xLjEwM2MtOC4xNzMtNDEuODU2LTE0LjYtODQuNDQ4LTE5LjI4Ni0xMjcuNTUNCgkJCQljMzUuMTM1LDAuMjQ3LDcxLjQ2NiwwLjQ2NSwxMDguOTE3LDAuNjU5QzUzOS40OCwxMDU1Ljk0LDU0NC42ODYsMTA5OC42NjcsNTUxLjMxNywxMTQwLjcwMXoiLz4NCgkJCTxwYXRoIGQ9Ik02ODcuMjg3LDExNDEuNjkyYy0zOS4zNTktMC4yMjYtNzcuOTMzLTAuNDk3LTExNS42MzUtMC44MTRjLTYuMzMtNDIuMDYzLTExLjI5OS04NC44MTEtMTQuOTIzLTEyOC4wNjUNCgkJCQljMzkuMDI0LDAuMTksNzguOTUzLDAuMzUyLDExOS43LDAuNDg3QzY3OS4wNjUsMTA1Ni42NDksNjgyLjY3OCwxMDk5LjQ5Myw2ODcuMjg3LDExNDEuNjkyeiIvPg0KCQkJPHBhdGggZD0iTTgzMi4wMjIsMTE0Mi4zMTJjLTQxLjQyMy0wLjEyLTgyLjM4Mi0wLjI4Ni0xMjIuNzg0LTAuNWMtNC4yODEtNDIuMjE5LTcuNjM1LTg1LjA3OC0xMC4wODMtMTI4LjQ0Mg0KCQkJCWM0MS44MzIsMC4xMjgsODQuMjQzLDAuMjI3LDEyNy4xMzcsMC4yOTlDODI3LjY4MiwxMDU3LjA5MSw4MjkuNTg4LDExMDAuMDA5LDgzMi4wMjIsMTE0Mi4zMTJ6Ii8+DQoJCQk8cGF0aCBkPSJNOTgxLjM5OSwxMTQyLjU0MmMtNDIuMy0wLjAwOS04NC40NzYtMC4wNjUtMTI2LjQzMS0wLjE2OGMtMi4wODgtNDIuMzE0LTMuNzIyLTg1LjIzOS00LjkxNS0xMjguNjY3DQoJCQkJYzQzLjQ0OCwwLjA2Miw4Ny4xMjUsMC4wOTUsMTMwLjkzMSwwLjEwMUM5ODEuMDg1LDEwNTcuMjU1LDk4MS4yMjMsMTEwMC4xOTksOTgxLjM5OSwxMTQyLjU0MnoiLz4NCgkJCTxwYXRoIGQ9Ik0xMTMxLjExNCwxMTQyLjM3NGMtNDEuOTU1LDAuMTA0LTg0LjEzMSwwLjE2LTEyNi40MzEsMC4xNjhjMC4xNzYtNDIuMzQzLDAuMzE0LTg1LjI4NywwLjQxNS0xMjguNzM1DQoJCQkJYzQzLjgwNy0wLjAwNSw4Ny40ODQtMC4wMzksMTMwLjkzMi0wLjEwMUMxMTM0LjgzNiwxMDU3LjEzNSwxMTMzLjIwMSwxMTAwLjA2LDExMzEuMTE0LDExNDIuMzc0eiIvPg0KCQkJPHBhdGggZD0iTTEyNzYuODQ0LDExNDEuODEzYy00MC40MDIsMC4yMTQtODEuMzYxLDAuMzgtMTIyLjc4NCwwLjVjMi40MzQtNDIuMzA0LDQuMzQtODUuMjIxLDUuNzMtMTI4LjY0Mw0KCQkJCWM0Mi44OTQtMC4wNzIsODUuMzA1LTAuMTcxLDEyNy4xMzctMC4yOTlDMTI4NC40NzksMTA1Ni43MzUsMTI4MS4xMjUsMTA5OS41OTQsMTI3Ni44NDQsMTE0MS44MTN6Ii8+DQoJCQk8cGF0aCBkPSJNMTQxNC40MywxMTQwLjg3N2MtMzcuNzAyLDAuMzE4LTc2LjI3NiwwLjU4OC0xMTUuNjM1LDAuODE0YzQuNjA5LTQyLjE5OSw4LjIyMi04NS4wNDMsMTAuODU4LTEyOC4zOTMNCgkJCQljNDAuNzQ3LTAuMTM1LDgwLjY3Ni0wLjI5NywxMTkuNy0wLjQ4N0MxNDI1LjcyOSwxMDU2LjA2NywxNDIwLjc2LDEwOTguODE0LDE0MTQuNDMsMTE0MC44Nzd6Ii8+DQoJCQk8cGF0aCBkPSJNMTU0MC4wMjksMTEzOS41OThjLTMzLjk2MSwwLjQxMy02OS4wNzUsMC43NzktMTA1LjI2NSwxLjEwM2M2LjYzLTQyLjAzNCwxMS44MzctODQuNzYsMTUuNjM0LTEyNy45OTQNCgkJCQljMzcuNDUxLTAuMTk0LDczLjc4Mi0wLjQxMiwxMDguOTE3LTAuNjU5QzE1NTQuNjI5LDEwNTUuMTUsMTU0OC4yMDIsMTA5Ny43NDIsMTU0MC4wMjksMTEzOS41OTh6Ii8+DQoJCQk8cGF0aCBkPSJNMTY1MC4yNiwxMTM4LjAxNGMtMjkuMzIxLDAuNDk3LTYwLjAzMSwwLjk0Ny05Mi4wNjgsMS4zNTdjOC40MzYtNDEuODIsMTUuMDczLTg0LjM4NCwxOS45MTEtMTI3LjQ1OQ0KCQkJCWMzMy4xMzUtMC4yNDUsNjQuODkxLTAuNTE0LDk1LjIwNC0wLjgxMUMxNjY3LjcwMywxMDU0LjAxLDE2NjAuMDE2LDEwOTYuNDA2LDE2NTAuMjYsMTEzOC4wMTR6Ii8+DQoJCQk8cGF0aCBkPSJNMTc0Mi4zMDQsMTEzNi4xNzRjLTIzLjk0OSwwLjU2OC00OS40NzUsMS4wODctNzYuNTMxLDEuNTdjOS45NzUtNDEuNTY2LDE3LjgzOS04My45MjgsMjMuNTY5LTEyNi44MDMNCgkJCQljMjcuOTYtMC4yODgsNTQuMzMzLTAuNTk4LDc5LjA3LTAuOTM3QzE3NjIuMDYxLDEwNTIuNjgxLDE3NTMuMzQ1LDEwOTQuODQ0LDE3NDIuMzA0LDExMzYuMTc0eiIvPg0KCQkJPHBhdGggZD0iTTE4MTMuOTg0LDExMzQuMTM0Yy0xOC4wMywwLjYyNy0zNy43NzMsMS4xOTktNTkuMTk2LDEuNzM2YzExLjIxMS00MS4yODUsMjAuMDY1LTgzLjQxLDI2LjUxNS0xMjYuMDQ4DQoJCQkJYzIyLjExNC0wLjMyLDQyLjQ4Ni0wLjY2MSw2MS4wODQtMS4wMzZDMTgzNS40NzUsMTA1MS4yLDE4MjUuOTg1LDEwOTMuMSwxODEzLjk4NCwxMTM0LjEzNHoiLz4NCgkJCTxwYXRoIGQ9Ik0xODYzLjc5NSwxMTMxLjk1MmMtMTEuNzU1LDAuNjgxLTI1LjMwNywxLjI4MS00MC42MzQsMS44NTJjMTIuMTItNDAuOTg3LDIxLjcwNi04Mi44NDUsMjguNjg3LTEyNS4yMTQNCgkJCQljMTUuNzkzLTAuMzQsMjkuNzQ3LTAuNjk4LDQxLjg0My0xLjEwNEMxODg2LjQxNCwxMDQ5LjYwNywxODc2LjQyMSwxMDkxLjIyMiwxODYzLjc5NSwxMTMxLjk1MnoiLz4NCgkJCTxwYXRoIGQ9Ik0xODkwLjkxLDExMjkuNjg4Yy01LjMwMiwwLjc3My0xMi40NTUsMS4zNDItMjEuNDE2LDEuOTE3YzEyLjY5Mi00MC42ODMsMjIuNzM5LTgyLjI1MSwzMC4wNTUtMTI0LjMyNw0KCQkJCWM5LjE5Ny0wLjM0MiwxNi41MTctMC42OCwyMS45NDMtMS4xNDNDMTkxNC4wNDcsMTA0Ny45NDcsMTkwMy44MjEsMTA4OS4yNiwxODkwLjkxLDExMjkuNjg4eiIvPg0KCQkJPHBhdGggZD0iTTE4OTUuMTUsMTEyNy40MDJjMS4yMTgsMC4zOTEsMC40NDksMS40NTItMi4wOSwxLjkzMmMxMi45MjYtNDAuMzgyLDIzLjE2NC04MS42NDcsMzAuNjE3LTEyMy40MDkNCgkJCQljMi41MzEtMC4yODEsMy4yMDMtMC45MjcsMS45NTEtMS4xNTFDMTkxOC4yMDksMTA0Ni4yNjMsMTkwOC4wMTgsMTA4Ny4yNjcsMTg5NS4xNSwxMTI3LjQwMnoiLz4NCgkJCTxwYXRoIGQ9Ik0xNTEuODk3LDEyNzIuMTQ1Yy0yLjUyOC0wLjY4Ni0zLjQ1Ny0yLjEwOS0yLjMxOS0yLjY5MmMtMTkuMTg4LTM3LjUyNi0zNS44NzUtNzYuMzQzLTQ5LjkwMy0xMTYuMDg3DQoJCQkJYy0xLjIwNywwLjQyNy0wLjQxMiwxLjU2NCwyLjEyNywyLjA4NUMxMTUuODg3LDExOTUuNDE4LDEzMi42MzgsMTIzNC40MzgsMTUxLjg5NywxMjcyLjE0NXoiLz4NCgkJCTxwYXRoIGQ9Ik0xNzQuMzQsMTI3NS4zMDdjLTguNDkzLTAuODAxLTE1LjMwOC0xLjYwMS0yMC4zNjYtMi42NjljLTE5LjIzNS0zNy43NDItMzUuOTY0LTc2Ljc5OS01MC4wMzItMTE2LjgwNQ0KCQkJCWM1LjI2NywwLjgzMywxMi4zNzEsMS40NDgsMjEuMjYzLDIuMDY5QzEzOS4wMTgsMTE5OC4xMTYsMTU1LjQ0NSwxMjM3LjM3MiwxNzQuMzQsMTI3NS4zMDd6Ii8+DQoJCQk8cGF0aCBkPSJNMjE4LjAwMSwxMjc4LjM2NmMtMTQuNDE5LTAuNzk0LTI3LjE4Ni0xLjYyOS0zOC4yNzUtMi41NzVjLTE4Ljc5NC0zNy45NzEtMzUuMTMxLTc3LjI2My00OC44NjktMTE3LjUxNA0KCQkJCWMxMS42NTcsMC43MzQsMjUuMDkzLDEuMzgyLDQwLjI4NSwxLjk5OEMxODQuMzA5LDEyMDAuNzEyLDE5OS45NjksMTI0MC4xOTQsMjE4LjAwMSwxMjc4LjM2NnoiLz4NCgkJCTxwYXRoIGQ9Ik0yODIuMTY3LDEyODEuMjM2Yy0yMC4wODUtMC43NDYtMzguNjEtMS41NC01NS41NC0yLjQxMWMtMTcuODU0LTM4LjIwOS0zMy4zNTUtNzcuNzI0LTQ2LjM5LTExOC4xOTQNCgkJCQljMTcuODY3LDAuNjc3LDM3LjQyOSwxLjI5Myw1OC42NTIsMS44NzJDMjUxLjA0MSwxMjAzLjEzNywyNjUuNDk1LDEyNDIuODI0LDI4Mi4xNjcsMTI4MS4yMzZ6Ii8+DQoJCQk8cGF0aCBkPSJNMzY1LjUwMSwxMjgzLjgzOGMtMjUuMzEzLTAuNjY5LTQ5LjIwNi0xLjM5MS03MS42MzYtMi4xNzljLTE2LjQxOC0zOC40NDktMzAuNjQ2LTc4LjE2Ni00Mi42MDgtMTE4LjgyOA0KCQkJCWMyMy43MjMsMC42MTMsNDkuMDA2LDEuMTczLDc1LjgwMiwxLjY5M0MzMzcuODQyLDEyMDUuMzIyLDM1MC42NywxMjQ1LjE5MSwzNjUuNTAxLDEyODMuODM4eiIvPg0KCQkJPHBhdGggZD0iTTQ2Ni4wNDgsMTI4Ni4wOTVjLTI5LjkyOC0wLjU2OS01OC42MjctMS4xOTQtODYuMDM5LTEuODgzYy0xNC41MDUtMzguNjgyLTI3LjA0Ni03OC41NzctMzcuNTg3LTExOS4zOTcNCgkJCQljMjkuMDM2LDAuNTM2LDU5LjQ0NywxLjAyMSw5MS4xNjksMS40NjRDNDQyLjY4NSwxMjA3LjIwNiw0NTMuNTA1LDEyNDcuMjI4LDQ2Ni4wNDgsMTI4Ni4wOTV6Ii8+DQoJCQk8cGF0aCBkPSJNNTgxLjI2NCwxMjg3LjkzOGMtMzMuNzcxLTAuNDQ5LTY2LjU0NS0wLjk1Ny05OC4yNTQtMS41MjljLTEyLjE1Mi0zOC44OTktMjIuNjMtNzguOTQxLTMxLjQzNS0xMTkuODg2DQoJCQkJYzMzLjYyNSwwLjQ0NSw2OC4zODksMC44NCwxMDQuMjE4LDEuMTlDNTYyLjkyMSwxMjA4LjczNyw1NzEuNDAzLDEyNDguODc4LDU4MS4yNjQsMTI4Ny45Mzh6Ii8+DQoJCQk8cGF0aCBkPSJNNzA4LjA3OSwxMjg5LjMxMWMtMzYuNy0wLjMxMy03Mi42NzQtMC42ODgtMTA3Ljg0My0xLjEyOGMtOS40MTUtMzkuMDg3LTE3LjUxLTc5LjI0My0yNC4zMTItMTIwLjI4DQoJCQkJYzM3LjMyNCwwLjM0Miw3NS41MDksMC42MzQsMTE0LjQ3MSwwLjg3OEM2OTUuMzM5LDEyMDkuODcyLDcwMS4yMjIsMTI1MC4wOTcsNzA4LjA3OSwxMjg5LjMxMXoiLz4NCgkJCTxwYXRoIGQ9Ik04NDIuOTkyLDEyOTAuMTcxYy0zOC42MDctMC4xNjYtNzYuNzg1LTAuMzk2LTExNC40NDgtMC42OTJjLTYuMzY4LTM5LjIzNC0xMS44MzEtNzkuNDY5LTE2LjQyLTEyMC41NjgNCgkJCQljMzkuOTkzLDAuMjMsODAuNTM2LDAuNDA5LDEyMS41MzgsMC41MzhDODM2LjI2OCwxMjEwLjU3OSw4MzkuMzcxLDEyNTAuODU1LDg0Mi45OTIsMTI5MC4xNzF6Ii8+DQoJCQk8cGF0aCBkPSJNOTgyLjE5MywxMjkwLjQ4OWMtMzkuNDE2LTAuMDEyLTc4LjcxOC0wLjA5LTExNy44MTYtMC4yMzNjLTMuMTA3LTM5LjMyNi01Ljc2Ny03OS42MDYtOC4wMDItMTIwLjc0DQoJCQkJYzQxLjUyOCwwLjExMiw4My4yNzQsMC4xNzIsMTI1LjE0MywwLjE4MUM5ODEuNzA3LDEyMTAuODQxLDk4MS45MzEsMTI1MS4xMzQsOTgyLjE5MywxMjkwLjQ4OXoiLz4NCgkJCTxwYXRoIGQ9Ik0xMTIxLjcwNSwxMjkwLjI1NmMtMzkuMDk4LDAuMTQzLTc4LjQsMC4yMjEtMTE3LjgxNiwwLjIzM2MwLjI2Mi0zOS4zNTQsMC40ODctNzkuNjQ4LDAuNjc1LTEyMC43OTENCgkJCQljNDEuODY5LTAuMDA5LDgzLjYxNS0wLjA3LDEyNS4xNDMtMC4xODFDMTEyNy40NzEsMTIxMC42NDksMTEyNC44MTEsMTI1MC45MywxMTIxLjcwNSwxMjkwLjI1NnoiLz4NCgkJCTxwYXRoIGQ9Ik0xMjU3LjUzNywxMjg5LjQ3OWMtMzcuNjYzLDAuMjk2LTc1Ljg0MSwwLjUyNi0xMTQuNDQ4LDAuNjkyYzMuNjIyLTM5LjMxNiw2LjcyNC03OS41OTEsOS4zMy0xMjAuNzIxDQoJCQkJYzQxLjAwMi0wLjEyOSw4MS41NDYtMC4zMDgsMTIxLjUzOC0wLjUzOEMxMjY5LjM2OCwxMjEwLjAxLDEyNjMuOTA2LDEyNTAuMjQ1LDEyNTcuNTM3LDEyODkuNDc5eiIvPg0KCQkJPHBhdGggZD0iTTEzODUuODQ2LDEyODguMTgzYy0zNS4xNjksMC40NC03MS4xNDMsMC44MTUtMTA3Ljg0MywxLjEyOGM2Ljg1Ny0zOS4yMTQsMTIuNzQtNzkuNDM5LDE3LjY4NC0xMjAuNTMNCgkJCQljMzguOTYyLTAuMjQ0LDc3LjE0Ny0wLjUzNiwxMTQuNDcxLTAuODc4QzE0MDMuMzU1LDEyMDguOTQsMTM5NS4yNiwxMjQ5LjA5NSwxMzg1Ljg0NiwxMjg4LjE4M3oiLz4NCgkJCTxwYXRoIGQ9Ik0xNTAzLjA3MiwxMjg2LjQwOWMtMzEuNzA5LDAuNTcyLTY0LjQ4NCwxLjA4LTk4LjI1NCwxLjUyOWM5Ljg2MS0zOS4wNiwxOC4zNDQtNzkuMjAxLDI1LjQ3MS0xMjAuMjI2DQoJCQkJYzM1LjgyOS0wLjM0OSw3MC41OTMtMC43NDUsMTA0LjIxOC0xLjE5QzE1MjUuNzAxLDEyMDcuNDY4LDE1MTUuMjI0LDEyNDcuNTEsMTUwMy4wNzIsMTI4Ni40MDl6Ii8+DQoJCQk8cGF0aCBkPSJNMTYwNi4wNzIsMTI4NC4yMTJjLTI3LjQxMSwwLjY4OS01Ni4xMSwxLjMxMy04Ni4wMzksMS44ODNjMTIuNTQ0LTM4Ljg2NywyMy4zNjMtNzguODg5LDMyLjQ1Ni0xMTkuODE2DQoJCQkJYzMxLjcyMy0wLjQ0Myw2Mi4xMzMtMC45MjgsOTEuMTY5LTEuNDY0QzE2MzMuMTE4LDEyMDUuNjM1LDE2MjAuNTc3LDEyNDUuNTMsMTYwNi4wNzIsMTI4NC4yMTJ6Ii8+DQoJCQk8cGF0aCBkPSJNMTY5Mi4yMTYsMTI4MS42NTljLTIyLjQyOSwwLjc4OS00Ni4zMjMsMS41MS03MS42MzYsMi4xNzljMTQuODMyLTM4LjY0NywyNy42NTktNzguNTE2LDM4LjQ0Mi0xMTkuMzE0DQoJCQkJYzI2Ljc5Ni0wLjUyLDUyLjA3OS0xLjA4LDc1LjgwMi0xLjY5M0MxNzIyLjg2MywxMjAzLjQ5MiwxNzA4LjYzNCwxMjQzLjIxLDE2OTIuMjE2LDEyODEuNjU5eiIvPg0KCQkJPHBhdGggZD0iTTE3NTkuNDU1LDEyNzguODI1Yy0xNi45MzEsMC44NzItMzUuNDU1LDEuNjY1LTU1LjU0LDIuNDExYzE2LjY3My0zOC40MTIsMzEuMTI2LTc4LjEsNDMuMjc4LTExOC43MzQNCgkJCQljMjEuMjIzLTAuNTc5LDQwLjc4Ni0xLjE5NSw1OC42NTItMS44NzJDMTc5Mi44MSwxMjAxLjEwMSwxNzc3LjMwOSwxMjQwLjYxNiwxNzU5LjQ1NSwxMjc4LjgyNXoiLz4NCgkJCTxwYXRoIGQ9Ik0xODA2LjM1NiwxMjc1Ljc5Yy0xMS4wODksMC45NDYtMjMuODU3LDEuNzgxLTM4LjI3NSwyLjU3NWMxOC4wMzItMzguMTcyLDMzLjY5Mi03Ny42NTMsNDYuODYtMTE4LjA5Mg0KCQkJCWMxNS4xOTItMC42MTYsMjguNjI4LTEuMjYzLDQwLjI4NS0xLjk5OEMxODQxLjQ4NiwxMTk4LjUyNywxODI1LjE1LDEyMzcuODE5LDE4MDYuMzU2LDEyNzUuNzl6Ii8+DQoJCQk8cGF0aCBkPSJNMTgzMi4xMDgsMTI3Mi42MzljLTUuMDU4LDEuMDY4LTExLjg3MywxLjg2OC0yMC4zNjYsMi42NjljMTguODk1LTM3LjkzNSwzNS4zMjItNzcuMTkyLDQ5LjEzNS0xMTcuNDA2DQoJCQkJYzguODkyLTAuNjIsMTUuOTk2LTEuMjM1LDIxLjI2My0yLjA2OUMxODY4LjA3MiwxMTk1Ljg0LDE4NTEuMzQzLDEyMzQuODk3LDE4MzIuMTA4LDEyNzIuNjM5eiIvPg0KCQkJPHBhdGggZD0iTTE4MzYuNTA0LDEyNjkuNDUzYzEuMTM4LDAuNTgzLDAuMjA5LDIuMDA2LTIuMzE5LDIuNjkyYzE5LjI1OS0zNy43MDcsMzYuMDEtNzYuNzI4LDUwLjA5NS0xMTYuNjk0DQoJCQkJYzIuNTQtMC41MjEsMy4zMzQtMS42NTgsMi4xMjctMi4wODVDMTg3Mi4zNzgsMTE5My4xMSwxODU1LjY5MiwxMjMxLjkyNywxODM2LjUwNCwxMjY5LjQ1M3oiLz4NCgkJCTxwYXRoIGQ9Ik0yMzIuOTcyLDE0MDMuMzIzYy0yLjQ2NS0wLjgyOS0zLjU1OS0yLjQyNy0yLjU1Mi0zLjE3Yy0yNS4wMDMtMzMuOTMtNDcuNzQ2LTY5LjUzOC02OC4wMTYtMTA2LjQ5MQ0KCQkJCWMtMS4xMTgsMC42MTQtMC4xNTksMi4wODMsMi4zNjMsMi44QzE4NS4wOTgsMTMzMy41NjQsMjA3LjkwNSwxMzY5LjI5NywyMzIuOTcyLDE0MDMuMzIzeiIvPg0KCQkJPHBhdGggZD0iTTI1My43NywxNDA3LjA0MmMtNy44Mi0wLjk0NC0xNC4xMzYtMS44OTQtMTguODM5LTMuMTM4Yy0yNS4wMy0zNC4wNDUtNDcuODA0LTY5LjgtNjguMTA2LTEwNi45MjgNCgkJCQljNS4wMDMsMS4xMDksMTEuNzQyLDEuOTQxLDIwLjEzLDIuNzc1QzIwNi44NywxMzM3LjAxLDIyOS4yMDksMTM3Mi44ODYsMjUzLjc3LDE0MDcuMDQyeiIvPg0KCQkJPHBhdGggZD0iTTI5My42NzEsMTQxMC42MzJjLTEzLjE0Ni0wLjkzMy0yNC44MDktMS45MTQtMzQuOTU4LTMuMDI0Yy0yNC40MjYtMzQuMTc2LTQ2LjYzOS03MC4wNzUtNjYuNDQtMTA3LjM1Nw0KCQkJCWMxMC45NDIsMC45ODMsMjMuNTM2LDEuODUyLDM3Ljc1NCwyLjY3N0MyNDguOTg0LDEzNDAuMzIxLDI3MC4yNTUsMTM3Ni4zMzUsMjkzLjY3MSwxNDEwLjYzMnoiLz4NCgkJCTxwYXRoIGQ9Ik0zNTEuOTgsMTQxMy45OTljLTE4LjIyOC0wLjg3NS0zNS4wNTgtMS44MDYtNTAuNDU2LTIuODI4Yy0yMy4xOC0zNC4zMjEtNDQuMjMzLTcwLjM1NS02Mi45OTQtMTA3Ljc2NQ0KCQkJCWMxNi42ODksMC45MDYsMzQuOTQ2LDEuNzMxLDU0LjczNywyLjUwNkMzMTAuNzM2LDEzNDMuNDA3LDMzMC4zNDksMTM3OS41NDYsMzUxLjk4LDE0MTMuOTk5eiIvPg0KCQkJPHBhdGggZD0iTTQyNy40NTYsMTQxNy4wNDZjLTIyLjkwNS0wLjc4NC00NC41NDItMS42MjktNjQuODY4LTIuNTUyYy0yMS4yOTktMzQuNDc4LTQwLjYwMy03MC42MzUtNTcuNzk1LTEwOC4xNDINCgkJCQljMjIuMDk2LDAuODE5LDQ1LjYzMywxLjU2OSw3MC41NjQsMi4yNjRDMzkwLjgzNCwxMzQ2LjE4Myw0MDguMjI0LDEzODIuNDMsNDI3LjQ1NiwxNDE3LjA0NnoiLz4NCgkJCTxwYXRoIGQ9Ik01MTguMzE0LDE0MTkuNjg3Yy0yNy4wMjYtMC42NjYtNTIuOTU2LTEuMzk3LTc3LjczNi0yLjIwM2MtMTguODA4LTM0LjY0Mi0zNS44MDYtNzAuOTA0LTUwLjkzMi0xMDguNDc5DQoJCQkJYzI2Ljk5NCwwLjcxNiw1NS4yNTMsMS4zNjUsODQuNzIxLDEuOTU2QzQ4Ny4zOTcsMTM0OC41Nyw1MDIuMDUxLDEzODQuOTAzLDUxOC4zMTQsMTQxOS42ODd6Ii8+DQoJCQk8cGF0aCBkPSJNNjIyLjI1NCwxNDIxLjg0MWMtMzAuNDUxLTAuNTI1LTYwLjAxNS0xLjExOS04OC42MjktMS43ODdjLTE1Ljc1Ni0zNC44MDktMjkuOTQ0LTcxLjE1My00Mi41NTktMTA4Ljc2Nw0KCQkJCWMzMS4yMTcsMC41OTQsNjMuNDgxLDEuMTIyLDk2LjcyNCwxLjU4OUM1OTcuOTg5LDEzNTAuNTAyLDYwOS40NjYsMTM4Ni44OTcsNjIyLjI1NCwxNDIxLjg0MXoiLz4NCgkJCTxwYXRoIGQ9Ik03MzYuNTIzLDE0MjMuNDQ1Yy0zMy4wNTktMC4zNjYtNjUuNDcxLTAuODA0LTk3LjE2Ny0xLjMxOGMtMTIuMjEtMzQuOTY3LTIzLjE2MS03MS4zNy0zMi44OTItMTA4Ljk5OA0KCQkJCWMzNC42MTYsMC40NTcsNzAuMDI0LDAuODQ2LDEwNi4xNDQsMS4xNzJDNzE5LjY3MywxMzUxLjkyOSw3MjcuNjI3LDEzODguMzYyLDczNi41MjMsMTQyMy40NDV6Ii8+DQoJCQk8cGF0aCBkPSJNODU3Ljk5NSwxNDI0LjQ0OWMtMzQuNzU0LTAuMTk0LTY5LjEyNi0wLjQ2Mi0xMDMuMDQxLTAuODA4Yy04LjI2My0zNS4xMDEtMTUuNjQ3LTcxLjUzOC0yMi4yMDUtMTA5LjE2NQ0KCQkJCWMzNy4wNjcsMC4zMDcsNzQuNjM5LDAuNTQ2LDExMi42MzIsMC43MThDODQ5LjEwMywxMzUyLjgxNiw4NTMuMjk0LDEzODkuMjY4LDg1Ny45OTUsMTQyNC40NDl6Ii8+DQoJCQk8cGF0aCBkPSJNOTgzLjI3OSwxNDI0LjgyYy0zNS40NzMtMC4wMTQtNzAuODQ0LTAuMTA1LTEwNi4wMzQtMC4yNzJjLTQuMDMzLTM1LjE5MS03LjYyNy03MS42NDUtMTAuODE4LTEwOS4yNjYNCgkJCQljMzguNDc1LDAuMTQ5LDc3LjE1MSwwLjIyOSwxMTUuOTQsMC4yNDJDOTgyLjYzNSwxMzUzLjE0Myw5ODIuOTM4LDEzODkuNjAxLDk4My4yNzksMTQyNC44MnoiLz4NCgkJCTxwYXRoIGQ9Ik0xMTA4LjgzNywxNDI0LjU0OGMtMzUuMTksMC4xNjctNzAuNTYxLDAuMjU4LTEwNi4wMzQsMC4yNzJjMC4zNC0zNS4yMiwwLjY0My03MS42NzcsMC45MTItMTA5LjI5Ng0KCQkJCWMzOC43ODgtMC4wMTMsNzcuNDY0LTAuMDkzLDExNS45NC0wLjI0MkMxMTE2LjQ2NCwxMzUyLjkwNCwxMTEyLjg3LDEzODkuMzU3LDExMDguODM3LDE0MjQuNTQ4eiIvPg0KCQkJPHBhdGggZD0iTTEyMzEuMTI3LDE0MjMuNjQxYy0zMy45MTUsMC4zNDUtNjguMjg4LDAuNjE0LTEwMy4wNDEsMC44MDhjNC43MDEtMzUuMTgxLDguODkyLTcxLjYzMywxMi42MTQtMTA5LjI1NQ0KCQkJCWMzNy45OTMtMC4xNzIsNzUuNTY1LTAuNDExLDExMi42MzItMC43MThDMTI0Ni43NzQsMTM1Mi4xMDMsMTIzOS4zOSwxMzg4LjU0LDEyMzEuMTI3LDE0MjMuNjQxeiIvPg0KCQkJPHBhdGggZD0iTTEzNDYuNzI1LDE0MjIuMTI3Yy0zMS42OTYsMC41MTQtNjQuMTA4LDAuOTUyLTk3LjE2NywxLjMxOGM4Ljg5Ni0zNS4wODMsMTYuODUtNzEuNTE2LDIzLjkxNS0xMDkuMTQ0DQoJCQkJYzM2LjEyMS0wLjMyNSw3MS41MjgtMC43MTUsMTA2LjE0NC0xLjE3MkMxMzY5Ljg4NiwxMzUwLjc1OCwxMzU4LjkzNSwxMzg3LjE2LDEzNDYuNzI1LDE0MjIuMTI3eiIvPg0KCQkJPHBhdGggZD0iTTE0NTIuNDU3LDE0MjAuMDU0Yy0yOC42MTQsMC42NjktNTguMTc4LDEuMjYyLTg4LjYyOSwxLjc4N2MxMi43ODgtMzQuOTQ0LDI0LjI2NS03MS4zMzksMzQuNDY0LTEwOC45NjYNCgkJCQljMzMuMjQzLTAuNDY3LDY1LjUwNy0wLjk5NCw5Ni43MjQtMS41ODlDMTQ4Mi40LDEzNDguOTAxLDE0NjguMjEyLDEzODUuMjQ1LDE0NTIuNDU3LDE0MjAuMDU0eiIvPg0KCQkJPHBhdGggZD0iTTE1NDUuNTA0LDE0MTcuNDg0Yy0yNC43OCwwLjgwNi01MC43MDksMS41MzctNzcuNzM2LDIuMjAzYzE2LjI2My0zNC43ODMsMzAuOTE2LTcxLjExNyw0My45NDctMTA4LjcyNg0KCQkJCWMyOS40NjctMC41OTEsNTcuNzI3LTEuMjQsODQuNzIxLTEuOTU2QzE1ODEuMzEsMTM0Ni41OCwxNTY0LjMxMiwxMzgyLjg0MiwxNTQ1LjUwNCwxNDE3LjQ4NHoiLz4NCgkJCTxwYXRoIGQ9Ik0xNjIzLjQ5MywxNDE0LjQ5NGMtMjAuMzI1LDAuOTIzLTQxLjk2MiwxLjc2OC02NC44NjgsMi41NTJjMTkuMjMyLTM0LjYxNiwzNi42MjItNzAuODYzLDUyLjA5OS0xMDguNDMNCgkJCQljMjQuOTMxLTAuNjk2LDQ4LjQ2Ny0xLjQ0NSw3MC41NjQtMi4yNjRDMTY2NC4wOTcsMTM0My44NTksMTY0NC43OTIsMTM4MC4wMTcsMTYyMy40OTMsMTQxNC40OTR6Ii8+DQoJCQk8cGF0aCBkPSJNMTY4NC41NTcsMTQxMS4xNzFjLTE1LjM5OCwxLjAyMi0zMi4yMjgsMS45NTMtNTAuNDU2LDIuODI4YzIxLjYzMS0zNC40NTMsNDEuMjQ0LTcwLjU5Miw1OC43MTItMTA4LjA4Ng0KCQkJCWMxOS43OTEtMC43NzUsMzguMDQ4LTEuNiw1NC43MzctMi41MDZDMTcyOC43OTEsMTM0MC44MTYsMTcwNy43MzcsMTM3Ni44NSwxNjg0LjU1NywxNDExLjE3MXoiLz4NCgkJCTxwYXRoIGQ9Ik0xNzI3LjM2OSwxNDA3LjYwOWMtMTAuMTQ5LDEuMTA5LTIxLjgxMSwyLjA5MS0zNC45NTgsMy4wMjRjMjMuNDE1LTM0LjI5OCw0NC42ODctNzAuMzEyLDYzLjY0NC0xMDcuNzAzDQoJCQkJYzE0LjIxOS0wLjgyNiwyNi44MTMtMS42OTQsMzcuNzU0LTIuNjc3QzE3NzQuMDA4LDEzMzcuNTM0LDE3NTEuNzk1LDEzNzMuNDMyLDE3MjcuMzY5LDE0MDcuNjA5eiIvPg0KCQkJPHBhdGggZD0iTTE3NTEuMTUsMTQwMy45MDRjLTQuNzAzLDEuMjQ0LTExLjAxOSwyLjE5NC0xOC44MzksMy4xMzhjMjQuNTYyLTM0LjE1NSw0Ni45MDEtNzAuMDMyLDY2LjgxNS0xMDcuMjkxDQoJCQkJYzguMzg4LTAuODMzLDE1LjEyNy0xLjY2NiwyMC4xMy0yLjc3NUMxNzk4Ljk1NCwxMzM0LjEwMywxNzc2LjE4MSwxMzY5Ljg1OCwxNzUxLjE1LDE0MDMuOTA0eiIvPg0KCQkJPHBhdGggZD0iTTE3NTUuNjYxLDE0MDAuMTUzYzEuMDA3LDAuNzQzLTAuMDg3LDIuMzQxLTIuNTUyLDMuMTdjMjUuMDY3LTM0LjAyNiw0Ny44NzQtNjkuNzU5LDY4LjIwNS0xMDYuODYxDQoJCQkJYzIuNTIyLTAuNzE3LDMuNDgxLTIuMTg1LDIuMzYzLTIuOEMxODAzLjQwOCwxMzMwLjYxNSwxNzgwLjY2NSwxMzY2LjIyMywxNzU1LjY2MSwxNDAwLjE1M3oiLz4NCgkJCTxwYXRoIGQ9Ik0zMzQuMDM3LDE1MTkuMzc4Yy0yLjMyLTAuODg3LTMuNTMtMi40NjktMi43MDYtMy4zMTVjLTMwLjE2LTI5LjQ0MS01OC4zNjEtNjAuOTAzLTg0LjMzOS05NC4wOTINCgkJCQljLTAuOTc4LDAuNzY3LDAuMTQyLDIuMzc1LDIuNTg3LDMuMjIxQzI3NS42MDIsMTQ1OC40NDEsMzAzLjg0NCwxNDg5LjkzNiwzMzQuMDM3LDE1MTkuMzc4eiIvPg0KCQkJPHBhdGggZD0iTTM1Mi42MywxNTIzLjI2Yy02LjkzNi0wLjk4OC0xMi41NzgtMS45ODktMTYuODA1LTMuMjc2Yy0zMC4xNDEtMjkuNDQzLTU4LjMzNC02MC45NDQtODQuMzEzLTk0LjIwMw0KCQkJCWM0LjYyOCwxLjI2MiwxMC44MzcsMi4yMjgsMTguNTE1LDMuMTg4QzI5NS40NzUsMTQ2Mi4yNzEsMzIzLjA5NSwxNDkzLjgwMywzNTIuNjMsMTUyMy4yNnoiLz4NCgkJCTxwYXRoIGQ9Ik0zODcuNzA1LDE1MjcuMDAzYy0xMS41MjQtMC45NzMtMjEuNzcxLTEuOTk3LTMwLjcwOS0zLjE1MWMtMjkuMzY0LTI5LjQ2MS01Ni44MjItNjAuOTk5LTgyLjEyLTk0LjMwNw0KCQkJCWM5Ljk1MywxLjEyNiwyMS4zODYsMi4xMjQsMzQuMjY4LDMuMDcxQzMzMy4zMywxNDY1Ljk0NiwzNTkuNTkzLDE0OTcuNTE0LDM4Ny43MDUsMTUyNy4wMDN6Ii8+DQoJCQk8cGF0aCBkPSJNNDM4LjYxMywxNTMwLjUwN2MtMTUuODg5LTAuOTEtMzAuNTc3LTEuODc5LTQ0LjAzNC0yLjk0MmMtMjcuODI0LTI5LjQ5Ni01My44MTItNjEuMDY5LTc3Ljc0LTk0LjQwMg0KCQkJCWMxNS4wODEsMS4wMzcsMzEuNTYxLDEuOTgzLDQ5LjQwNywyLjg3MUMzODguNDkzLDE0NjkuMzY2LDQxMi42NzcsMTUwMC45NjYsNDM4LjYxMywxNTMwLjUwN3oiLz4NCgkJCTxwYXRoIGQ9Ik01MDQuMjM5LDE1MzMuNjczYy0xOS44OTQtMC44MTQtMzguNzAzLTEuNjkyLTU2LjM4OC0yLjY1MWMtMjUuNTMzLTI5LjU1MS00OS4zMzItNjEuMTU1LTcxLjIyMi05NC40ODUNCgkJCQljMTkuODkzLDAuOTM3LDQxLjA2NiwxLjc5NSw2My40NzgsMi41OUM0NTkuNzgzLDE0NzIuNDMzLDQ4MS4yLDE1MDQuMDU4LDUwNC4yMzksMTUzMy42NzN6Ii8+DQoJCQk8cGF0aCBkPSJNNTgzLjAxNiwxNTM2LjQxM2MtMjMuNDE0LTAuNjkxLTQ1Ljg5Mi0xLjQ0OS02Ny4zODctMi4yODVjLTIyLjUyOS0yOS42MjktNDMuNDU5LTYxLjI1Ny02Mi42ODQtOTQuNTU3DQoJCQkJYzI0LjI0LDAuODE4LDQ5LjYwMywxLjU1OSw3Ni4wMzUsMi4yMzVDNTQ1LjUxNSwxNDc1LjA2MSw1NjMuNTQsMTUwNi42OTksNTgzLjAxNiwxNTM2LjQxM3oiLz4NCgkJCTxwYXRoIGQ9Ik02NzIuOTUxLDE1MzguNjQ3Yy0yNi4zMzMtMC41NDQtNTEuOTEtMS4xNTktNzYuNjc3LTEuODUzYy0xOC44NjgtMjkuNzMxLTM2LjMxOC02MS4zNzEtNTIuMzIxLTk0LjYxNQ0KCQkJCWMyNy45ODEsMC42NzksNTYuODg4LDEuMjgxLDg2LjY2MSwxLjgxNEM2NDMuNTMxLDE0NzcuMTc2LDY1Ny42MzIsMTUwOC44MTQsNjcyLjk1MSwxNTM4LjY0N3oiLz4NCgkJCTxwYXRoIGQ9Ik03NzEuNjgsMTU0MC4zMDhjLTI4LjU1MS0wLjM3OS01Ni41NTMtMC44MzMtODMuOTQ0LTEuMzY1Yy0xNC42MjgtMjkuODUyLTI4LjA4MS02MS40ODktNDAuNC05NC42Ng0KCQkJCWMzMC45ODYsMC41MjEsNjIuNjcyLDAuOTY2LDk0Ljk4OCwxLjMzN0M3NTEuMjUzLDE0NzguNzI2LDc2MS4wMTMsMTUxMC4zNSw3NzEuNjgsMTU0MC4zMDh6Ii8+DQoJCQk8cGF0aCBkPSJNODc2LjUzMSwxNTQxLjM0NmMtMjkuOTkxLTAuMjAxLTU5LjY1OC0wLjQ3OS04OC45MzctMC44MzZjLTkuOTA5LTI5Ljk3Ni0xOC45NjgtNjEuNTk3LTI3LjI1NS05NC42OTINCgkJCQljMzMuMTUsMC4zNSw2Ni43NDcsMC42MjMsMTAwLjcxNSwwLjgxOUM4NjUuNzUxLDE0NzkuNjgyLDg3MC44ODgsMTUxMS4yODUsODc2LjUzMSwxNTQxLjM0NnoiLz4NCgkJCTxwYXRoIGQ9Ik05ODQuNjE5LDE1NDEuNzMxYy0zMC42MDItMC4wMTUtNjEuMTE3LTAuMTA4LTkxLjQ3OS0wLjI4MWMtNC44NDEtMzAuMDcyLTkuMjQ2LTYxLjY3My0xMy4yNzMtOTQuNzExDQoJCQkJYzM0LjM5MywwLjE3LDY4Ljk2MywwLjI2MiwxMDMuNjMzLDAuMjc2Qzk4My44MzksMTQ4MC4wMzIsOTg0LjIxLDE1MTEuNjI1LDk4NC42MTksMTU0MS43MzF6Ii8+DQoJCQk8cGF0aCBkPSJNMTA5Mi45NDEsMTU0MS40NDljLTMwLjM2MSwwLjE3My02MC44NzcsMC4yNjctOTEuNDc5LDAuMjgxYzAuNDA5LTMwLjEwNSwwLjc4LTYxLjY5OCwxLjExOS05NC43MTYNCgkJCQljMzQuNjY5LTAuMDE0LDY5LjIzOS0wLjEwNiwxMDMuNjMzLTAuMjc2QzExMDIuMTg3LDE0NzkuNzc2LDEwOTcuNzgzLDE1MTEuMzc3LDEwOTIuOTQxLDE1NDEuNDQ5eiIvPg0KCQkJPHBhdGggZD0iTTExOTguNDg3LDE1NDAuNTFjLTI5LjI3OCwwLjM1Ny01OC45NDYsMC42MzUtODguOTM3LDAuODM2YzUuNjQzLTMwLjA2MSwxMC43OC02MS42NjUsMTUuNDc3LTk0LjcwOQ0KCQkJCWMzMy45NjgtMC4xOTcsNjcuNTY0LTAuNDY5LDEwMC43MTUtMC44MTlDMTIxNy40NTUsMTQ3OC45MTMsMTIwOC4zOTcsMTUxMC41MzQsMTE5OC40ODcsMTU0MC41MXoiLz4NCgkJCTxwYXRoIGQ9Ik0xMjk4LjM0NiwxNTM4Ljk0M2MtMjcuMzkxLDAuNTMyLTU1LjM5MywwLjk4Ni04My45NDQsMS4zNjVjMTAuNjY3LTI5Ljk1OCwyMC40MjctNjEuNTgyLDI5LjM1Ny05NC42ODgNCgkJCQljMzIuMzE1LTAuMzcxLDY0LjAwMS0wLjgxNiw5NC45ODgtMS4zMzdDMTMyNi40MjYsMTQ3Ny40NTQsMTMxMi45NzQsMTUwOS4wOTEsMTI5OC4zNDYsMTUzOC45NDN6Ii8+DQoJCQk8cGF0aCBkPSJNMTM4OS44MDcsMTUzNi43OTRjLTI0Ljc2NywwLjY5My01MC4zNDQsMS4zMDktNzYuNjc3LDEuODUzYzE1LjMxOS0yOS44MzMsMjkuNDItNjEuNDcxLDQyLjMzNi05NC42NTQNCgkJCQljMjkuNzczLTAuNTMzLDU4LjY4MS0xLjEzNSw4Ni42NjEtMS44MTRDMTQyNi4xMjUsMTQ3NS40MjMsMTQwOC42NzUsMTUwNy4wNjMsMTM4OS44MDcsMTUzNi43OTR6Ii8+DQoJCQk8cGF0aCBkPSJNMTQ3MC40NTMsMTUzNC4xMjhjLTIxLjQ5NSwwLjgzNi00My45NzMsMS41OTUtNjcuMzg3LDIuMjg1YzE5LjQ3NS0yOS43MTQsMzcuNTAxLTYxLjM1Miw1NC4wMzYtOTQuNjA3DQoJCQkJYzI2LjQzMi0wLjY3Niw1MS43OTUtMS40MTcsNzYuMDM1LTIuMjM1QzE1MTMuOTEyLDE0NzIuODcxLDE0OTIuOTgyLDE1MDQuNDk5LDE0NzAuNDUzLDE1MzQuMTI4eiIvPg0KCQkJPHBhdGggZD0iTTE1MzguMjMsMTUzMS4wMjJjLTE3LjY4NSwwLjk1OS0zNi40OTMsMS44MzctNTYuMzg4LDIuNjUxYzIzLjAzOS0yOS42MTUsNDQuNDU2LTYxLjI0LDY0LjEzMi05NC41NDcNCgkJCQljMjIuNDExLTAuNzk2LDQzLjU4NS0xLjY1Myw2My40NzgtMi41OUMxNTg3LjU2MiwxNDY5Ljg2NiwxNTYzLjc2NCwxNTAxLjQ3MSwxNTM4LjIzLDE1MzEuMDIyeiIvPg0KCQkJPHBhdGggZD0iTTE1OTEuNTAzLDE1MjcuNTY0Yy0xMy40NTcsMS4wNjMtMjguMTQ2LDIuMDMyLTQ0LjAzNCwyLjk0MmMyNS45MzYtMjkuNTQxLDUwLjEyLTYxLjE0MSw3Mi4zNjgtOTQuNDczDQoJCQkJYzE3Ljg0NS0wLjg4OCwzNC4zMjUtMS44MzQsNDkuNDA3LTIuODcxQzE2NDUuMzE0LDE0NjYuNDk1LDE2MTkuMzI3LDE0OTguMDY4LDE1OTEuNTAzLDE1MjcuNTY0eiIvPg0KCQkJPHBhdGggZD0iTTE2MjkuMDg1LDE1MjMuODUyYy04LjkzOCwxLjE1NS0xOS4xODUsMi4xNzktMzAuNzA5LDMuMTUxYzI4LjExMi0yOS40OSw1NC4zNzUtNjEuMDU4LDc4LjU2MS05NC4zODgNCgkJCQljMTIuODgzLTAuOTQ3LDI0LjMxNi0xLjk0NCwzNC4yNjgtMy4wNzFDMTY4NS45MDcsMTQ2Mi44NTMsMTY1OC40NSwxNDk0LjM5MSwxNjI5LjA4NSwxNTIzLjg1MnoiLz4NCgkJCTxwYXRoIGQ9Ik0xNjUwLjI1NiwxNTE5Ljk4NGMtNC4yMjcsMS4yODctOS44NjgsMi4yODgtMTYuODA1LDMuMjc2YzI5LjUzNS0yOS40NTcsNTcuMTU1LTYwLjk5LDgyLjYwMy05NC4yOTINCgkJCQljNy42NzgtMC45NTksMTMuODg3LTEuOTI2LDE4LjUxNS0zLjE4OEMxNzA4LjU5LDE0NTkuMDQsMTY4MC4zOTcsMTQ5MC41NDEsMTY1MC4yNTYsMTUxOS45ODR6Ii8+DQoJCQk8cGF0aCBkPSJNMTY1NC43NSwxNTE2LjA2M2MwLjgyNCwwLjg0Ni0wLjM4NiwyLjQyOC0yLjcwNiwzLjMxNWMzMC4xOTMtMjkuNDQyLDU4LjQzNS02MC45MzcsODQuNDU4LTk0LjE4Nw0KCQkJCWMyLjQ0Ni0wLjg0NiwzLjU2NS0yLjQ1NCwyLjU4Ny0zLjIyMUMxNzEzLjExMiwxNDU1LjE2LDE2ODQuOTExLDE0ODYuNjIyLDE2NTQuNzUsMTUxNi4wNjN6Ii8+DQoJCQk8cGF0aCBkPSJNNDUyLjM1LDE2MTcuMjQ1Yy0yLjA3LTAuODQ5LTMuMjk4LTIuMjQ5LTIuNjk1LTMuMTEzYy0zNC41MjMtMjQuMTc3LTY3LjQ0LTUwLjY2Ni05OC40NDMtNzkuMjE4DQoJCQkJYy0wLjc4NywwLjg1NiwwLjQzNSwyLjQxNywyLjcxOCwzLjMwNEMzODQuOTM4LDE1NjYuNzM2LDQxNy44NDksMTU5My4xNjIsNDUyLjM1LDE2MTcuMjQ1eiIvPg0KCQkJPHBhdGggZD0iTTQ2OC4xNDIsMTYyMC44ODRjLTUuODM5LTAuOTI4LTEwLjYyMy0xLjg3NS0xNC4yMzgtMy4wN2MtMzQuNDMtMjQuMDY3LTY3LjI3NS01MC40ODEtOTguMjIxLTc4Ljk5MQ0KCQkJCWM0LjEyOCwxLjI4LDkuNjMxLDIuMjgsMTYuMzg3LDMuMjY0QzQwMi4zMzYsMTU3MC41NDgsNDM0LjQ2MywxNTk2LjkwMSw0NjguMTQyLDE2MjAuODg0eiIvPg0KCQkJPHBhdGggZD0iTTQ5Ny4zNzksMTYyNC4zODVjLTkuNTc1LTAuOTEtMTguMTExLTEuODY5LTI1LjU3Ny0yLjk0OGMtMzMuNDc0LTIzLjk2OS02NS40MDQtNTAuMzExLTk1LjQ4My03OC43NjINCgkJCQljOC42OTQsMS4xNSwxOC42NTgsMi4xNywyOS44NTgsMy4xMzlDNDM0Ljg4OSwxNTc0LjIwMSw0NjUuMzg2LDE2MDAuNDg1LDQ5Ny4zNzksMTYyNC4zODV6Ii8+DQoJCQk8cGF0aCBkPSJNNTM5LjQ4MSwxNjI3LjY1NmMtMTMuMTE2LTAuODUtMjUuMjU5LTEuNzU1LTM2LjQwMi0yLjc0N2MtMzEuNjU2LTIzLjg5LTYxLjgyNS01MC4xNjMtOTAuMjI0LTc4LjUzNg0KCQkJCWMxMy4wNzEsMS4wNTgsMjcuMzM0LDIuMDIzLDQyLjc1OSwyLjkzQzQ4MS45NzgsMTU3Ny41OTQsNTEwLjAxNywxNjAzLjgxNCw1MzkuNDgxLDE2MjcuNjU2eiIvPg0KCQkJPHBhdGggZD0iTTU5My41LDE2MzAuNjA4Yy0xNi4zNTUtMC43NTktMzEuODMyLTEuNTc3LTQ2LjQwMS0yLjQ3MWMtMjktMjMuODM2LTU2LjU4Ni01MC4wNDctODIuNTE3LTc4LjMyMQ0KCQkJCWMxNy4xNjMsMC45NTUsMzUuNDEzLDEuODI5LDU0LjcxMywyLjY0QzU0Mi41NjUsMTU4MC42MjksNTY3LjM2MywxNjA2Ljc5Miw1OTMuNSwxNjMwLjYwOHoiLz4NCgkJCTxwYXRoIGQ9Ik02NTguMTMyLDE2MzMuMTU4Yy0xOS4xOTItMC42NDMtMzcuNjMtMS4zNDgtNTUuMjc2LTIuMTI3Yy0yNS41NTQtMjMuODE1LTQ5Ljc4NC00OS45Ny03Mi41MTQtNzguMTIzDQoJCQkJYzIwLjg0OCwwLjgzMyw0Mi42NDcsMS41ODcsNjUuMzUxLDIuMjc0QzYxNS4yMDcsMTU4My4yMTYsNjM2LjA1MywxNjA5LjMyNSw2NTguMTMyLDE2MzMuMTU4eiIvPg0KCQkJPHBhdGggZD0iTTczMS43NDUsMTYzNS4yMzRjLTIxLjUzOS0wLjUwNS00Mi40Ny0xLjA3Ny02Mi43NS0xLjcyMmMtMjEuMzktMjMuODQtNDEuNTY3LTQ5Ljk0LTYwLjQ0Ni03Ny45NQ0KCQkJCWMyNC4wMTEsMC42OSw0OC44MDYsMS4zMDIsNzQuMzMsMS44NDNDNjk4LjA4NCwxNTg1LjI4LDcxNC4zNjksMTYxMS4zMzIsNzMxLjc0NSwxNjM1LjIzNHoiLz4NCgkJCTxwYXRoIGQ9Ik04MTIuNDE4LDE2MzYuNzc2Yy0yMy4zMTgtMC4zNTItNDYuMTk2LTAuNzczLTY4LjU4NS0xLjI2N2MtMTYuNTk1LTIzLjkxNy0zMi4xMjgtNDkuOTYtNDYuNjI0LTc3LjgwOQ0KCQkJCWMyNi41NDgsMC41Myw1My42ODUsMC45ODEsODEuMzUyLDEuMzU4Qzc4OS4wNDUsMTU4Ni43NzEsODAwLjI5NywxNjEyLjc1OSw4MTIuNDE4LDE2MzYuNzc2eiIvPg0KCQkJPHBhdGggZD0iTTg5Ny45OTksMTYzNy43NGMtMjQuNDcyLTAuMTg2LTQ4LjY4NS0wLjQ0NC03Mi41ODYtMC43NzZjLTExLjI2NS0yNC4wMzgtMjEuNzA1LTUwLjAxNS0zMS40My03Ny43MDUNCgkJCQljMjguMzcsMC4zNTUsNTcuMTE3LDAuNjMyLDg2LjE3NiwwLjgzMkM4ODUuNjYsMTU4Ny42NzIsODkxLjU3LDE2MTMuNTk1LDg5Ny45OTksMTYzNy43NHoiLz4NCgkJCTxwYXRoIGQ9Ik05ODYuMTcyLDE2MzguMDk2Yy0yNC45NjEtMC4wMTQtNDkuODUzLTAuMS03NC42MjItMC4yNjFjLTUuNTE4LTI0LjE2LTEwLjU4My01MC4wNzUtMTUuMjk5LTc3LjY0Mg0KCQkJCWMyOS40MTcsMC4xNzIsNTguOTgyLDAuMjY2LDg4LjYzMSwwLjI4Qzk4NS4yNzksMTU4Ny45OTgsOTg1LjcwNSwxNjEzLjg4OCw5ODYuMTcyLDE2MzguMDk2eiIvPg0KCQkJPHBhdGggZD0iTTEwNzQuNTMyLDE2MzcuODM1Yy0yNC43NjksMC4xNjEtNDkuNjYxLDAuMjQ3LTc0LjYyMiwwLjI2MWMwLjQ2Ni0yNC4yMDgsMC44OTMtNTAuMDk5LDEuMjktNzcuNjIzDQoJCQkJYzI5LjY0OS0wLjAxNSw1OS4yMTQtMC4xMDgsODguNjMxLTAuMjhDMTA4NS4xMTUsMTU4Ny43NiwxMDgwLjA0OSwxNjEzLjY3NSwxMDc0LjUzMiwxNjM3LjgzNXoiLz4NCgkJCTxwYXRoIGQ9Ik0xMTYwLjY2OSwxNjM2Ljk2NGMtMjMuOTAxLDAuMzMyLTQ4LjExNCwwLjU4OS03Mi41ODcsMC43NzZjNi40MjktMjQuMTQ0LDEyLjMzOS01MC4wNjcsMTcuODQxLTc3LjY0OQ0KCQkJCWMyOS4wNTktMC4yLDU3LjgwNS0wLjQ3Niw4Ni4xNzYtMC44MzJDMTE4Mi4zNzQsMTU4Ni45NDksMTE3MS45MzQsMTYxMi45MjYsMTE2MC42NjksMTYzNi45NjR6Ii8+DQoJCQk8cGF0aCBkPSJNMTI0Mi4yNDksMTYzNS41MDljLTIyLjM4OCwwLjQ5NC00NS4yNjYsMC45MTUtNjguNTg1LDEuMjY3YzEyLjEyMS0yNC4wMTcsMjMuMzczLTUwLjAwNSwzMy44NTctNzcuNzE4DQoJCQkJYzI3LjY2OC0wLjM3Nyw1NC44MDUtMC44MjgsODEuMzUyLTEuMzU4QzEyNzQuMzc2LDE1ODUuNTQ5LDEyNTguODQzLDE2MTEuNTkyLDEyNDIuMjQ5LDE2MzUuNTA5eiIvPg0KCQkJPHBhdGggZD0iTTEzMTcuMDg3LDE2MzMuNTEyYy0yMC4yOCwwLjY0NC00MS4yMTIsMS4yMTYtNjIuNzUsMS43MjJjMTcuMzc1LTIzLjkwMSwzMy42NjEtNDkuOTU0LDQ4Ljg2Ni03Ny44MjgNCgkJCQljMjUuNTI1LTAuNTQxLDUwLjMxOS0xLjE1NCw3NC4zMy0xLjg0M0MxMzU4LjY1NCwxNTgzLjU3MiwxMzM4LjQ3OCwxNjA5LjY3MiwxMzE3LjA4NywxNjMzLjUxMnoiLz4NCgkJCTxwYXRoIGQ9Ik0xMzgzLjIyNSwxNjMxLjAzMWMtMTcuNjQ2LDAuNzc4LTM2LjA4NCwxLjQ4NC01NS4yNzYsMi4xMjdjMjIuMDc5LTIzLjgzMyw0Mi45MjUtNDkuOTQxLDYyLjQzOS03Ny45NzUNCgkJCQljMjIuNzA0LTAuNjg3LDQ0LjUwMi0xLjQ0Miw2NS4zNTEtMi4yNzRDMTQzMy4wMSwxNTgxLjA2MiwxNDA4Ljc4LDE2MDcuMjE2LDEzODMuMjI1LDE2MzEuMDMxeiIvPg0KCQkJPHBhdGggZD0iTTE0MzguOTgzLDE2MjguMTM3Yy0xNC41NjgsMC44OTQtMzAuMDQ2LDEuNzEyLTQ2LjQwMSwyLjQ3MWMyNi4xMzctMjMuODE2LDUwLjkzNS00OS45NzksNzQuMjA2LTc4LjE1Mg0KCQkJCWMxOS4zLTAuODExLDM3LjU1LTEuNjg0LDU0LjcxMy0yLjY0QzE0OTUuNTY5LDE1NzguMDksMTQ2Ny45ODIsMTYwNC4zMDEsMTQzOC45ODMsMTYyOC4xMzd6Ii8+DQoJCQk8cGF0aCBkPSJNMTQ4My4wMDIsMTYyNC45MWMtMTEuMTQzLDAuOTkyLTIzLjI4NiwxLjg5Ny0zNi40MDIsMi43NDdjMjkuNDY0LTIzLjg0Miw1Ny41MDMtNTAuMDYyLDgzLjg2Ny03OC4zNTMNCgkJCQljMTUuNDI1LTAuOTA2LDI5LjY4OC0xLjg3MSw0Mi43NTktMi45M0MxNTQ0LjgyNywxNTc0Ljc0NiwxNTE0LjY1OCwxNjAxLjAyLDE0ODMuMDAyLDE2MjQuOTF6Ii8+DQoJCQk8cGF0aCBkPSJNMTUxNC4yOCwxNjIxLjQzOGMtNy40NjYsMS4wNzktMTYuMDAyLDIuMDM4LTI1LjU3NywyLjk0OGMzMS45OTQtMjMuOTAxLDYyLjQ5LTUwLjE4NCw5MS4yMDItNzguNTcNCgkJCQljMTEuMi0wLjk2OSwyMS4xNjQtMS45ODksMjkuODU4LTMuMTM5QzE1NzkuNjgzLDE1NzEuMTI3LDE1NDcuNzU0LDE1OTcuNDY5LDE1MTQuMjgsMTYyMS40Mzh6Ii8+DQoJCQk8cGF0aCBkPSJNMTUzMi4xNzgsMTYxNy44MTRjLTMuNjE1LDEuMTk2LTguMzk5LDIuMTQzLTE0LjIzOSwzLjA3YzMzLjY3OS0yMy45ODMsNjUuODA2LTUwLjMzNiw5Ni4wNzMtNzguNzk3DQoJCQkJYzYuNzU2LTAuOTg0LDEyLjI1OS0xLjk4NCwxNi4zODctMy4yNjRDMTU5OS40NTMsMTU2Ny4zMzMsMTU2Ni42MDgsMTU5My43NDcsMTUzMi4xNzgsMTYxNy44MTR6Ii8+DQoJCQk8cGF0aCBkPSJNMTUzNi40MjcsMTYxNC4xMzFjMC42MDQsMC44NjQtMC42MjQsMi4yNjQtMi42OTUsMy4xMTNjMzQuNTAxLTI0LjA4Myw2Ny40MTEtNTAuNTA4LDk4LjQxOS03OS4wMjcNCgkJCQljMi4yODQtMC44ODgsMy41MDUtMi40NDgsMi43MTgtMy4zMDRDMTYwMy44NjcsMTU2My40NjYsMTU3MC45NSwxNTg5Ljk1NCwxNTM2LjQyNywxNjE0LjEzMXoiLz4NCgkJPC9nPg0KCTwvZz4NCjwvZz4NCjwvc3ZnPg0K;" vertex="1" parent="1">
          <mxGeometry x="857.0005263157896" y="630.9973684210527" width="178" height="150" as="geometry" />
        </mxCell>
        <mxCell id="4KK3DppAldW4RQbn6xzX-73" value="" style="group" vertex="1" connectable="0" parent="1">
          <mxGeometry x="1782" y="177.5" width="137.5" height="137.5" as="geometry" />
        </mxCell>
        <mxCell id="4KK3DppAldW4RQbn6xzX-50" value="" style="ellipse;whiteSpace=wrap;html=1;aspect=fixed;fillColor=#003300;strokeColor=#00FFFF;strokeWidth=2;" vertex="1" parent="4KK3DppAldW4RQbn6xzX-73">
          <mxGeometry width="137.5" height="137.5" as="geometry" />
        </mxCell>
        <mxCell id="4KK3DppAldW4RQbn6xzX-51" value="&lt;span style=&quot;font-weight: normal;&quot;&gt;DATA FLOW&lt;/span&gt;&lt;div&gt;ATLAS&lt;/div&gt;" style="text;strokeColor=none;align=center;fillColor=#0000FF;html=1;verticalAlign=middle;whiteSpace=wrap;rounded=1;fontSize=16;fontStyle=1;arcSize=50;fontColor=#00FFFF;absoluteArcSize=0;" vertex="1" parent="4KK3DppAldW4RQbn6xzX-73">
          <mxGeometry x="0.75" y="47.5" width="136" height="42.5" as="geometry" />
        </mxCell>
        <mxCell id="4KK3DppAldW4RQbn6xzX-52" value="" style="html=1;shadow=0;dashed=0;align=center;verticalAlign=middle;shape=mxgraph.arrows2.stripedArrow;dy=0.6;dx=40;notch=25;fillColor=#00FFFF;" vertex="1" parent="4KK3DppAldW4RQbn6xzX-73">
          <mxGeometry x="18.75" y="19.5" width="100" height="25" as="geometry" />
        </mxCell>
        <mxCell id="4KK3DppAldW4RQbn6xzX-53" value="" style="html=1;shadow=0;dashed=0;align=center;verticalAlign=middle;shape=mxgraph.arrows2.stripedArrow;dy=0.6;dx=40;notch=25;fillColor=#00FFFF;direction=west;" vertex="1" parent="4KK3DppAldW4RQbn6xzX-73">
          <mxGeometry x="18.75" y="92.5" width="100" height="25" as="geometry" />
        </mxCell>
        <mxCell id="4KK3DppAldW4RQbn6xzX-54" value="" style="ellipse;whiteSpace=wrap;html=1;aspect=fixed;fillColor=none;strokeColor=#00FFFF;strokeWidth=2;" vertex="1" parent="4KK3DppAldW4RQbn6xzX-73">
          <mxGeometry width="137.5" height="137.5" as="geometry" />
        </mxCell>
        <mxCell id="4KK3DppAldW4RQbn6xzX-74" value="" style="group" vertex="1" connectable="0" parent="1">
          <mxGeometry x="1492" y="544.5" width="140" height="137.5" as="geometry" />
        </mxCell>
        <mxCell id="4KK3DppAldW4RQbn6xzX-68" value="" style="ellipse;whiteSpace=wrap;html=1;aspect=fixed;fillColor=#003300;strokeColor=#00FFFF;strokeWidth=2;" vertex="1" parent="4KK3DppAldW4RQbn6xzX-74">
          <mxGeometry x="0.5" width="137.5" height="137.5" as="geometry" />
        </mxCell>
        <mxCell id="4KK3DppAldW4RQbn6xzX-66" value="" style="shape=image;aspect=fixed;image=data:image/svg+xml,PD94bWwgdmVyc2lvbj0iMS4wIiBlbmNvZGluZz0idXRmLTgiPz4NCg0KPCFET0NUWVBFIHN2ZyBQVUJMSUMgIi0vL1czQy8vRFREIFNWRyAxLjEvL0VOIiAiaHR0cDovL3d3dy53My5vcmcvR3JhcGhpY3MvU1ZHLzEuMS9EVEQvc3ZnMTEuZHRkIj4NCjxzdmcgdmVyc2lvbj0iMS4xIiBpZD0iTGF5ZXJfMSIgeG1sbnM9Imh0dHA6Ly93d3cudzMub3JnLzIwMDAvc3ZnIiB4bWxuczp4bGluaz0iaHR0cDovL3d3dy53My5vcmcvMTk5OS94bGluayIgeD0iMHB4IiB5PSIwcHgiDQoJIHZpZXdCb3g9IjAgMCAxOTg2LjA4MiAxNjc2LjE5MiIgZW5hYmxlLWJhY2tncm91bmQ9Im5ldyAwIDAgMTk4Ni4wODIgMTY3Ni4xOTIiIHhtbDpzcGFjZT0icHJlc2VydmUiPg0KPGc+DQoJPGc+DQoJCTxnPg0KCQkJPHBhdGggZD0iTTM1My45MywxMzcuOTc0Yy0yLjI4NCwwLjg4OC0zLjUwNiwyLjQ0OC0yLjcxOCwzLjMwNGMzMS4wMDMtMjguNTUyLDYzLjkyLTU1LjA0MSw5OC40NDMtNzkuMjE4DQoJCQkJYy0wLjYwNC0wLjg2NCwwLjYyNC0yLjI2NCwyLjY5NS0zLjExM0M0MTcuODQ5LDgzLjAzLDM4NC45MzgsMTA5LjQ1NiwzNTMuOTMsMTM3Ljk3NHoiLz4NCgkJCTxwYXRoIGQ9Ik0zNzIuMDY5LDEzNC4xMDVjLTYuNzU2LDAuOTg0LTEyLjI1OSwxLjk4NC0xNi4zODcsMy4yNjRjMzAuOTQ3LTI4LjUxMSw2My43OTEtNTQuOTI1LDk4LjIyMS03OC45OTENCgkJCQljMy42MTUtMS4xOTYsOC4zOTktMi4xNDMsMTQuMjM4LTMuMDdDNDM0LjQ2Myw3OS4yOTEsNDAyLjMzNiwxMDUuNjQ0LDM3Mi4wNjksMTM0LjEwNXoiLz4NCgkJCTxwYXRoIGQ9Ik00MDYuMTc3LDEzMC4zNzdjLTExLjIsMC45NjktMjEuMTY0LDEuOTg5LTI5Ljg1OCwzLjEzOWMzMC4wNzktMjguNDUxLDYyLjAwOC01NC43OTMsOTUuNDgzLTc4Ljc2Mg0KCQkJCWM3LjQ2Ni0xLjA3OSwxNi4wMDItMi4wMzgsMjUuNTc3LTIuOTQ4QzQ2NS4zODYsNzUuNzA3LDQzNC44ODksMTAxLjk5MSw0MDYuMTc3LDEzMC4zNzd6Ii8+DQoJCQk8cGF0aCBkPSJNNDU1LjYxNSwxMjYuODg4Yy0xNS40MjUsMC45MDYtMjkuNjg4LDEuODcxLTQyLjc1OSwyLjkzYzI4LjM5OS0yOC4zNzMsNTguNTY4LTU0LjY0Niw5MC4yMjQtNzguNTM2DQoJCQkJYzExLjE0My0wLjk5MiwyMy4yODYtMS44OTcsMzYuNDAyLTIuNzQ3QzUxMC4wMTcsNzIuMzc4LDQ4MS45NzgsOTguNTk4LDQ1NS42MTUsMTI2Ljg4OHoiLz4NCgkJCTxwYXRoIGQ9Ik01MTkuMjk0LDEyMy43MzZjLTE5LjMsMC44MTEtMzcuNTUsMS42ODQtNTQuNzEzLDIuNjRjMjUuOTMxLTI4LjI3NCw1My41MTgtNTQuNDg1LDgyLjUxNy03OC4zMg0KCQkJCWMxNC41NjktMC44OTQsMzAuMDQ2LTEuNzEyLDQ2LjQwMS0yLjQ3MUM1NjcuMzYzLDY5LjQsNTQyLjU2NSw5NS41NjMsNTE5LjI5NCwxMjMuNzM2eiIvPg0KCQkJPHBhdGggZD0iTTU5NS42OTMsMTIxLjAwOWMtMjIuNzA0LDAuNjg3LTQ0LjUwMiwxLjQ0Mi02NS4zNTEsMi4yNzRjMjIuNzMtMjguMTUzLDQ2Ljk2LTU0LjMwNyw3Mi41MTQtNzguMTIzDQoJCQkJYzE3LjY0Ni0wLjc3OCwzNi4wODQtMS40ODQsNTUuMjc2LTIuMTI3QzYzNi4wNTMsNjYuODY3LDYxNS4yMDcsOTIuOTc2LDU5NS42OTMsMTIxLjAwOXoiLz4NCgkJCTxwYXRoIGQ9Ik02ODIuODc5LDExOC43ODdjLTI1LjUyNSwwLjU0MS01MC4zMTksMS4xNTQtNzQuMzMsMS44NDNjMTguODc5LTI4LjAxLDM5LjA1NS01NC4xMSw2MC40NDYtNzcuOTUNCgkJCQljMjAuMjgtMC42NDQsNDEuMjEyLTEuMjE2LDYyLjc1LTEuNzIyQzcxNC4zNjksNjQuODYsNjk4LjA4NCw5MC45MTIsNjgyLjg3OSwxMTguNzg3eiIvPg0KCQkJPHBhdGggZD0iTTc3OC41NjEsMTE3LjEzNGMtMjcuNjY4LDAuMzc3LTU0LjgwNSwwLjgyOC04MS4zNTIsMS4zNThjMTQuNDk3LTI3Ljg0OSwzMC4wMy01My44OTIsNDYuNjI0LTc3LjgwOQ0KCQkJCWMyMi4zODgtMC40OTQsNDUuMjY2LTAuOTE1LDY4LjU4NS0xLjI2N0M4MDAuMjk3LDYzLjQzMyw3ODkuMDQ1LDg5LjQyMiw3NzguNTYxLDExNy4xMzR6Ii8+DQoJCQk8cGF0aCBkPSJNODgwLjE1OCwxMTYuMTAxYy0yOS4wNTksMC4yLTU3LjgwNSwwLjQ3Ni04Ni4xNzYsMC44MzFjOS43MjUtMjcuNjg5LDIwLjE2NS01My42NjcsMzEuNDMtNzcuNzA1DQoJCQkJYzIzLjkwMS0wLjMzMiw0OC4xMTQtMC41ODksNzIuNTg2LTAuNzc1Qzg5MS41Nyw2Mi41OTcsODg1LjY2LDg4LjUyLDg4MC4xNTgsMTE2LjEwMXoiLz4NCgkJCTxwYXRoIGQ9Ik05ODQuODgxLDExNS43MTljLTI5LjY0OSwwLjAxNS01OS4yMTQsMC4xMDgtODguNjMxLDAuMjhjNC43MTYtMjcuNTY2LDkuNzgyLTUzLjQ4MiwxNS4yOTktNzcuNjQyDQoJCQkJYzI0Ljc2OS0wLjE2MSw0OS42NjEtMC4yNDcsNzQuNjIyLTAuMjYxQzk4NS43MDUsNjIuMzA0LDk4NS4yNzksODguMTk0LDk4NC44ODEsMTE1LjcxOXoiLz4NCgkJCTxwYXRoIGQ9Ik0xMDg5LjgzMSwxMTUuOTk5Yy0yOS40MTctMC4xNzItNTguOTgyLTAuMjY1LTg4LjYzMS0wLjI4Yy0wLjM5Ny0yNy41MjQtMC44MjQtNTMuNDE0LTEuMjktNzcuNjIzDQoJCQkJYzI0Ljk2MSwwLjAxNCw0OS44NTMsMC4xLDc0LjYyMiwwLjI2MUMxMDgwLjA0OSw2Mi41MTcsMTA4NS4xMTUsODguNDMyLDEwODkuODMxLDExNS45OTl6Ii8+DQoJCQk8cGF0aCBkPSJNMTE5Mi4wOTksMTE2LjkzM2MtMjguMzctMC4zNTUtNTcuMTE3LTAuNjMyLTg2LjE3Ni0wLjgzMWMtNS41MDEtMjcuNTgxLTExLjQxMS01My41MDUtMTcuODQxLTc3LjY0OQ0KCQkJCWMyNC40NzIsMC4xODYsNDguNjg1LDAuNDQ0LDcyLjU4NywwLjc3NUMxMTcxLjkzNCw2My4yNjYsMTE4Mi4zNzQsODkuMjQzLDExOTIuMDk5LDExNi45MzN6Ii8+DQoJCQk8cGF0aCBkPSJNMTI4OC44NzMsMTE4LjQ5MmMtMjYuNTQ4LTAuNTMtNTMuNjg1LTAuOTgxLTgxLjM1Mi0xLjM1OGMtMTAuNDg0LTI3LjcxMy0yMS43MzUtNTMuNzAxLTMzLjg1Ny03Ny43MTgNCgkJCQljMjMuMzE4LDAuMzUyLDQ2LjE5NiwwLjc3Myw2OC41ODUsMS4yNjdDMTI1OC44NDMsNjQuNiwxMjc0LjM3Niw5MC42NDMsMTI4OC44NzMsMTE4LjQ5MnoiLz4NCgkJCTxwYXRoIGQ9Ik0xMzc3LjUzMywxMjAuNjNjLTI0LjAxMS0wLjY5LTQ4LjgwNi0xLjMwMi03NC4zMy0xLjg0M2MtMTUuMjA1LTI3Ljg3NS0zMS40OTEtNTMuOTI3LTQ4Ljg2Ni03Ny44MjgNCgkJCQljMjEuNTM5LDAuNTA1LDQyLjQ3LDEuMDc3LDYyLjc1LDEuNzIyQzEzMzguNDc4LDY2LjUyLDEzNTguNjU0LDkyLjYyLDEzNzcuNTMzLDEyMC42M3oiLz4NCgkJCTxwYXRoIGQ9Ik0xNDU1LjczOSwxMjMuMjg0Yy0yMC44NDgtMC44MzItNDIuNjQ3LTEuNTg3LTY1LjM1MS0yLjI3NGMtMTkuNTE0LTI4LjAzMy00MC4zNi01NC4xNDItNjIuNDM5LTc3Ljk3NQ0KCQkJCWMxOS4xOTIsMC42NDMsMzcuNjMsMS4zNDgsNTUuMjc2LDIuMTI3QzE0MDguNzgsNjguOTc2LDE0MzMuMDEsOTUuMTMsMTQ1NS43MzksMTIzLjI4NHoiLz4NCgkJCTxwYXRoIGQ9Ik0xNTIxLjUsMTI2LjM3NmMtMTcuMTYzLTAuOTU1LTM1LjQxMy0xLjgyOS01NC43MTMtMi42NGMtMjMuMjcxLTI4LjE3My00OC4wNjgtNTQuMzM2LTc0LjIwNi03OC4xNTINCgkJCQljMTYuMzU1LDAuNzU5LDMxLjgzMywxLjU3Nyw0Ni40MDEsMi40NzFDMTQ2Ny45ODIsNzEuODkxLDE0OTUuNTY5LDk4LjEwMiwxNTIxLjUsMTI2LjM3NnoiLz4NCgkJCTxwYXRoIGQ9Ik0xNTczLjIyNiwxMjkuODE4Yy0xMy4wNzEtMS4wNTgtMjcuMzM0LTIuMDIzLTQyLjc1OS0yLjkzYy0yNi4zNjQtMjguMjkxLTU0LjQwMi01NC41MTEtODMuODY3LTc4LjM1Mw0KCQkJCWMxMy4xMTYsMC44NSwyNS4yNTksMS43NTUsMzYuNDAyLDIuNzQ3QzE1MTQuNjU4LDc1LjE3MiwxNTQ0LjgyNywxMDEuNDQ2LDE1NzMuMjI2LDEyOS44MTh6Ii8+DQoJCQk8cGF0aCBkPSJNMTYwOS43NjMsMTMzLjUxNmMtOC42OTQtMS4xNS0xOC42NTgtMi4xNy0yOS44NTgtMy4xMzljLTI4LjcxMi0yOC4zODYtNTkuMjA4LTU0LjY3LTkxLjIwMi03OC41Nw0KCQkJCWM5LjU3NSwwLjkxLDE4LjExMSwxLjg2OSwyNS41NzcsMi45NDhDMTU0Ny43NTQsNzguNzIzLDE1NzkuNjgzLDEwNS4wNjUsMTYwOS43NjMsMTMzLjUxNnoiLz4NCgkJCTxwYXRoIGQ9Ik0xNjMwLjM5OSwxMzcuMzdjLTQuMTI4LTEuMjgtOS42My0yLjI4LTE2LjM4Ny0zLjI2NGMtMzAuMjY3LTI4LjQ2MS02Mi4zOTQtNTQuODE0LTk2LjA3My03OC43OTcNCgkJCQljNS44MzksMC45MjgsMTAuNjIzLDEuODc1LDE0LjIzOSwzLjA3QzE1NjYuNjA4LDgyLjQ0NSwxNTk5LjQ1MywxMDguODU5LDE2MzAuMzk5LDEzNy4zN3oiLz4NCgkJCTxwYXRoIGQ9Ik0xNjM0Ljg3LDE0MS4yNzljMC43ODctMC44NTYtMC40MzUtMi40MTctMi43MTgtMy4zMDRjLTMxLjAwOC0yOC41MTgtNjMuOTE5LTU0Ljk0NC05OC40MTktNzkuMDI3DQoJCQkJYzIuMDcsMC44NDksMy4yOTgsMi4yNDksMi42OTUsMy4xMTNDMTU3MC45NSw4Ni4yMzgsMTYwMy44NjcsMTEyLjcyNiwxNjM0Ljg3LDE0MS4yNzl6Ii8+DQoJCQk8cGF0aCBkPSJNMjQ5LjU3OSwyNTEuMDAxYy0yLjQ0NiwwLjg0Ni0zLjU2NSwyLjQ1NC0yLjU4NywzLjIyMWMyNS45NzgtMzMuMTg5LDU0LjE3OS02NC42NTEsODQuMzM5LTk0LjA5Mg0KCQkJCWMtMC44MjQtMC44NDYsMC4zODYtMi40MjgsMi43MDYtMy4zMTVDMzAzLjg0NCwxODYuMjU2LDI3NS42MDIsMjE3Ljc1MSwyNDkuNTc5LDI1MS4wMDF6Ii8+DQoJCQk8cGF0aCBkPSJNMjcwLjAyNywyNDcuMjIzYy03LjY3OCwwLjk1OS0xMy44ODcsMS45MjYtMTguNTE1LDMuMTg4YzI1Ljk3OS0zMy4yNTksNTQuMTcyLTY0Ljc2LDg0LjMxMy05NC4yMDMNCgkJCQljNC4yMjctMS4yODcsOS44NjgtMi4yODgsMTYuODA1LTMuMjc2QzMyMy4wOTUsMTgyLjM4OSwyOTUuNDc1LDIxMy45MjEsMjcwLjAyNywyNDcuMjIzeiIvPg0KCQkJPHBhdGggZD0iTTMwOS4xNDUsMjQzLjU3N2MtMTIuODgzLDAuOTQ3LTI0LjMxNiwxLjk0NC0zNC4yNjgsMy4wNzFjMjUuMjk4LTMzLjMwOCw1Mi43NTUtNjQuODQ2LDgyLjEyLTk0LjMwNw0KCQkJCWM4LjkzOC0xLjE1NSwxOS4xODUtMi4xNzksMzAuNzA5LTMuMTUxQzM1OS41OTMsMTc4LjY3OCwzMzMuMzMsMjEwLjI0NiwzMDkuMTQ1LDI0My41Nzd6Ii8+DQoJCQk8cGF0aCBkPSJNMzY2LjI0NSwyNDAuMTU5Yy0xNy44NDUsMC44ODgtMzQuMzI1LDEuODM0LTQ5LjQwNywyLjg3MWMyMy45MjktMzMuMzMyLDQ5LjkxNi02NC45MDYsNzcuNzQtOTQuNDAyDQoJCQkJYzEzLjQ1Ny0xLjA2MywyOC4xNDUtMi4wMzIsNDQuMDM0LTIuOTQyQzQxMi42NzcsMTc1LjIyNiwzODguNDkzLDIwNi44MjYsMzY2LjI0NSwyNDAuMTU5eiIvPg0KCQkJPHBhdGggZD0iTTQ0MC4xMDcsMjM3LjA2NmMtMjIuNDExLDAuNzk2LTQzLjU4NSwxLjY1My02My40NzgsMi41OWMyMS44OS0zMy4zMyw0NS42ODgtNjQuOTM1LDcxLjIyMi05NC40ODUNCgkJCQljMTcuNjg1LTAuOTYsMzYuNDkzLTEuODM3LDU2LjM4OC0yLjY1MkM0ODEuMiwxNzIuMTM0LDQ1OS43ODMsMjAzLjc1OSw0NDAuMTA3LDIzNy4wNjZ6Ii8+DQoJCQk8cGF0aCBkPSJNNTI4Ljk4LDIzNC4zODZjLTI2LjQzMywwLjY3Ni01MS43OTUsMS40MTctNzYuMDM1LDIuMjM1YzE5LjIyNS0zMy4zLDQwLjE1NS02NC45MjgsNjIuNjg0LTk0LjU1Nw0KCQkJCWMyMS40OTUtMC44MzYsNDMuOTczLTEuNTk1LDY3LjM4Ny0yLjI4NUM1NjMuNTQsMTY5LjQ5Myw1NDUuNTE1LDIwMS4xMzEsNTI4Ljk4LDIzNC4zODZ6Ii8+DQoJCQk8cGF0aCBkPSJNNjMwLjYxNSwyMzIuMmMtMjkuNzczLDAuNTMzLTU4LjY4MSwxLjEzNS04Ni42NjEsMS44MTRjMTYuMDAzLTMzLjI0NSwzMy40NTMtNjQuODg0LDUyLjMyMS05NC42MTUNCgkJCQljMjQuNzY3LTAuNjkzLDUwLjM0NC0xLjMwOSw3Ni42NzctMS44NTNDNjU3LjYzMiwxNjcuMzc4LDY0My41MzEsMTk5LjAxNiw2MzAuNjE1LDIzMi4yeiIvPg0KCQkJPHBhdGggZD0iTTc0Mi4zMjMsMjMwLjU3MmMtMzIuMzE1LDAuMzcxLTY0LjAwMSwwLjgxNi05NC45ODgsMS4zMzdjMTIuMzItMzMuMTcxLDI1Ljc3Mi02NC44MDgsNDAuNC05NC42Ng0KCQkJCWMyNy4zOTEtMC41MzIsNTUuMzkzLTAuOTg2LDgzLjk0NC0xLjM2NUM3NjEuMDEzLDE2NS44NDIsNzUxLjI1MywxOTcuNDY2LDc0Mi4zMjMsMjMwLjU3MnoiLz4NCgkJCTxwYXRoIGQ9Ik04NjEuMDU0LDIyOS41NTVjLTMzLjk2OCwwLjE5Ny02Ny41NjQsMC40NjktMTAwLjcxNSwwLjgxOWM4LjI4Ny0zMy4wOTUsMTcuMzQ2LTY0LjcxNiwyNy4yNTUtOTQuNjkyDQoJCQkJYzI5LjI3OC0wLjM1Nyw1OC45NDYtMC42MzUsODguOTM3LTAuODM2Qzg3MC44ODgsMTY0LjkwNyw4NjUuNzUxLDE5Ni41MSw4NjEuMDU0LDIyOS41NTV6Ii8+DQoJCQk8cGF0aCBkPSJNOTgzLjUsMjI5LjE3OGMtMzQuNjY5LDAuMDE0LTY5LjIzOSwwLjEwNi0xMDMuNjMzLDAuMjc2YzQuMDI3LTMzLjAzNyw4LjQzMi02NC42MzksMTMuMjczLTk0LjcxMQ0KCQkJCWMzMC4zNjEtMC4xNzMsNjAuODc3LTAuMjY3LDkxLjQ3OS0wLjI4MUM5ODQuMjEsMTY0LjU2Nyw5ODMuODM5LDE5Ni4xNiw5ODMuNSwyMjkuMTc4eiIvPg0KCQkJPHBhdGggZD0iTTExMDYuMjE0LDIyOS40NTRjLTM0LjM5My0wLjE3LTY4Ljk2My0wLjI2Mi0xMDMuNjMzLTAuMjc2Yy0wLjMzOS0zMy4wMTgtMC43MTEtNjQuNjExLTEuMTE5LTk0LjcxNg0KCQkJCWMzMC42MDIsMC4wMTUsNjEuMTE3LDAuMTA4LDkxLjQ3OSwwLjI4MUMxMDk3Ljc4MywxNjQuODE1LDExMDIuMTg3LDE5Ni40MTYsMTEwNi4yMTQsMjI5LjQ1NHoiLz4NCgkJCTxwYXRoIGQ9Ik0xMjI1Ljc0MiwyMzAuMzc0Yy0zMy4xNS0wLjM1LTY2Ljc0Ny0wLjYyMy0xMDAuNzE1LTAuODE5Yy00LjY5Ny0zMy4wNDQtOS44MzQtNjQuNjQ4LTE1LjQ3Ny05NC43MDkNCgkJCQljMjkuOTkxLDAuMjAxLDU5LjY1OCwwLjQ3OSw4OC45MzcsMC44MzZDMTIwOC4zOTcsMTY1LjY1OCwxMjE3LjQ1NSwxOTcuMjc5LDEyMjUuNzQyLDIzMC4zNzR6Ii8+DQoJCQk8cGF0aCBkPSJNMTMzOC43NDYsMjMxLjkwOWMtMzAuOTg2LTAuNTIxLTYyLjY3Mi0wLjk2Ni05NC45ODgtMS4zMzdjLTguOTMtMzMuMTA2LTE4LjY5LTY0LjczLTI5LjM1Ny05NC42ODgNCgkJCQljMjguNTUxLDAuMzc5LDU2LjU1MiwwLjgzMyw4My45NDQsMS4zNjVDMTMxMi45NzQsMTY3LjEwMSwxMzI2LjQyNiwxOTguNzM4LDEzMzguNzQ2LDIzMS45MDl6Ii8+DQoJCQk8cGF0aCBkPSJNMTQ0Mi4xMjgsMjM0LjAxM2MtMjcuOTgxLTAuNjc5LTU2Ljg4OC0xLjI4MS04Ni42NjEtMS44MTRjLTEyLjkxNi0zMy4xODMtMjcuMDE3LTY0LjgyMi00Mi4zMzYtOTQuNjU0DQoJCQkJYzI2LjMzMywwLjU0NCw1MS45MSwxLjE1OSw3Ni42NzcsMS44NTNDMTQwOC42NzUsMTY5LjEyOSwxNDI2LjEyNSwyMDAuNzY5LDE0NDIuMTI4LDIzNC4wMTN6Ii8+DQoJCQk8cGF0aCBkPSJNMTUzMy4xMzcsMjM2LjYyMWMtMjQuMjQtMC44MTgtNDkuNjAzLTEuNTU5LTc2LjAzNS0yLjIzNWMtMTYuNTM1LTMzLjI1NS0zNC41NjEtNjQuODkzLTU0LjAzNi05NC42MDcNCgkJCQljMjMuNDE0LDAuNjkxLDQ1Ljg5MiwxLjQ0OSw2Ny4zODcsMi4yODVDMTQ5Mi45ODIsMTcxLjY5MywxNTEzLjkxMiwyMDMuMzIxLDE1MzMuMTM3LDIzNi42MjF6Ii8+DQoJCQk8cGF0aCBkPSJNMTYwOS40NTIsMjM5LjY1NmMtMTkuODkzLTAuOTM3LTQxLjA2Ni0xLjc5NS02My40NzgtMi41OWMtMTkuNjc2LTMzLjMwNy00MS4wOTMtNjQuOTMxLTY0LjEzMi05NC41NDcNCgkJCQljMTkuODk0LDAuODE0LDM4LjcwMywxLjY5Miw1Ni4zODgsMi42NTJDMTU2My43NjQsMTc0LjcyMSwxNTg3LjU2MiwyMDYuMzI2LDE2MDkuNDUyLDIzOS42NTZ6Ii8+DQoJCQk8cGF0aCBkPSJNMTY2OS4yNDMsMjQzLjAzYy0xNS4wODEtMS4wMzctMzEuNTYxLTEuOTgzLTQ5LjQwNy0yLjg3MWMtMjIuMjQ4LTMzLjMzMi00Ni40MzEtNjQuOTMyLTcyLjM2OC05NC40NzMNCgkJCQljMTUuODg5LDAuOTEsMzAuNTc3LDEuODc5LDQ0LjAzNCwyLjk0MkMxNjE5LjMyNywxNzguMTI0LDE2NDUuMzE0LDIwOS42OTcsMTY2OS4yNDMsMjQzLjAzeiIvPg0KCQkJPHBhdGggZD0iTTE3MTEuMjA1LDI0Ni42NDdjLTkuOTUzLTEuMTI2LTIxLjM4Ni0yLjEyNC0zNC4yNjgtMy4wNzFjLTI0LjE4NS0zMy4zMy01MC40NDgtNjQuODk5LTc4LjU2MS05NC4zODgNCgkJCQljMTEuNTI0LDAuOTczLDIxLjc3MSwxLjk5NywzMC43MDksMy4xNTFDMTY1OC40NSwxODEuODAxLDE2ODUuOTA3LDIxMy4zMzksMTcxMS4yMDUsMjQ2LjY0N3oiLz4NCgkJCTxwYXRoIGQ9Ik0xNzM0LjU2OSwyNTAuNDExYy00LjYyOC0xLjI2Mi0xMC44MzctMi4yMjgtMTguNTE1LTMuMTg4Yy0yNS40NDgtMzMuMzAyLTUzLjA2OC02NC44MzQtODIuNjAzLTk0LjI5Mg0KCQkJCWM2LjkzNiwwLjk4OCwxMi41NzgsMS45ODksMTYuODA1LDMuMjc2QzE2ODAuMzk3LDE4NS42NTEsMTcwOC41OSwyMTcuMTUyLDE3MzQuNTY5LDI1MC40MTF6Ii8+DQoJCQk8cGF0aCBkPSJNMTczOS4wOSwyNTQuMjIyYzAuOTc4LTAuNzY3LTAuMTQyLTIuMzc1LTIuNTg3LTMuMjIxYy0yNi4wMjMtMzMuMjUtNTQuMjY1LTY0Ljc0NC04NC40NTgtOTQuMTg3DQoJCQkJYzIuMzIsMC44ODcsMy41MywyLjQ2OSwyLjcwNiwzLjMxNUMxNjg0LjkxMSwxODkuNTcsMTcxMy4xMTIsMjIxLjAzMiwxNzM5LjA5LDI1NC4yMjJ6Ii8+DQoJCQk8cGF0aCBkPSJNMTY0Ljc2NiwzNzkuNzNjLTIuNTIyLDAuNzE3LTMuNDgxLDIuMTg1LTIuMzYzLDIuOGMyMC4yNy0zNi45NTMsNDMuMDEzLTcyLjU2MSw2OC4wMTYtMTA2LjQ5MQ0KCQkJCWMtMS4wMDctMC43NDMsMC4wODctMi4zNCwyLjU1Mi0zLjE3QzIwNy45MDUsMzA2Ljg5NSwxODUuMDk4LDM0Mi42MjgsMTY0Ljc2NiwzNzkuNzN6Ii8+DQoJCQk8cGF0aCBkPSJNMTg2Ljk1NSwzNzYuNDQyYy04LjM4OCwwLjgzMy0xNS4xMjcsMS42NjYtMjAuMTMsMi43NzVjMjAuMzAyLTM3LjEyOCw0My4wNzUtNzIuODgzLDY4LjEwNi0xMDYuOTI4DQoJCQkJYzQuNzAzLTEuMjQ0LDExLjAxOS0yLjE5NCwxOC44MzktMy4xMzhDMjI5LjIwOSwzMDMuMzA2LDIwNi44NywzMzkuMTgyLDE4Ni45NTUsMzc2LjQ0MnoiLz4NCgkJCTxwYXRoIGQ9Ik0yMzAuMDI3LDM3My4yNjNjLTE0LjIxOSwwLjgyNi0yNi44MTIsMS42OTQtMzcuNzU0LDIuNjc3YzE5LjgwMS0zNy4yODIsNDIuMDE0LTczLjE4LDY2LjQ0LTEwNy4zNTcNCgkJCQljMTAuMTQ5LTEuMTA5LDIxLjgxMS0yLjA5MSwzNC45NTgtMy4wMjRDMjcwLjI1NSwyOTkuODU3LDI0OC45ODQsMzM1Ljg3MiwyMzAuMDI3LDM3My4yNjN6Ii8+DQoJCQk8cGF0aCBkPSJNMjkzLjI2OCwzNzAuMjc5Yy0xOS43OTEsMC43NzUtMzguMDQ4LDEuNi01NC43MzcsMi41MDZjMTguNzYxLTM3LjQwOSwzOS44MTQtNzMuNDQ0LDYyLjk5NC0xMDcuNzY1DQoJCQkJYzE1LjM5OC0xLjAyMiwzMi4yMjgtMS45NTMsNTAuNDU2LTIuODI4QzMzMC4zNDksMjk2LjY0NiwzMTAuNzM2LDMzMi43ODUsMjkzLjI2OCwzNzAuMjc5eiIvPg0KCQkJPHBhdGggZD0iTTM3NS4zNTcsMzY3LjU3NmMtMjQuOTMxLDAuNjk2LTQ4LjQ2NywxLjQ0NS03MC41NjQsMi4yNjRjMTcuMTkyLTM3LjUwOCwzNi40OTYtNzMuNjY1LDU3Ljc5NS0xMDguMTQyDQoJCQkJYzIwLjMyNi0wLjkyNCw0MS45NjItMS43NjgsNjQuODY4LTIuNTUyQzQwOC4yMjQsMjkzLjc2MiwzOTAuODM0LDMzMC4wMDksMzc1LjM1NywzNjcuNTc2eiIvPg0KCQkJPHBhdGggZD0iTTQ3NC4zNjYsMzY1LjIzMWMtMjkuNDY3LDAuNTkxLTU3LjcyNywxLjI0LTg0LjcyMSwxLjk1NmMxNS4xMjYtMzcuNTc1LDMyLjEyNC03My44MzcsNTAuOTMyLTEwOC40NzkNCgkJCQljMjQuNzgtMC44MDYsNTAuNzA5LTEuNTM3LDc3LjczNi0yLjIwM0M1MDIuMDUxLDI5MS4yODksNDg3LjM5NywzMjcuNjIyLDQ3NC4zNjYsMzY1LjIzMXoiLz4NCgkJCTxwYXRoIGQ9Ik01ODcuNzksMzYzLjMxN2MtMzMuMjQzLDAuNDY3LTY1LjUwNywwLjk5NC05Ni43MjQsMS41ODhjMTIuNjE2LTM3LjYxNCwyNi44MDQtNzMuOTU4LDQyLjU1OS0xMDguNzY3DQoJCQkJYzI4LjYxNC0wLjY2OSw1OC4xNzgtMS4yNjIsODguNjI5LTEuNzg3QzYwOS40NjYsMjg5LjI5NCw1OTcuOTg5LDMyNS42OSw1ODcuNzksMzYzLjMxN3oiLz4NCgkJCTxwYXRoIGQ9Ik03MTIuNjA5LDM2MS44OWMtMzYuMTIxLDAuMzI1LTcxLjUyOCwwLjcxNS0xMDYuMTQ0LDEuMTcyYzkuNzMxLTM3LjYyOCwyMC42ODMtNzQuMDMsMzIuODkyLTEwOC45OTgNCgkJCQljMzEuNjk2LTAuNTE0LDY0LjEwOC0wLjk1Miw5Ny4xNjctMS4zMThDNzI3LjYyNywyODcuODMsNzE5LjY3MywzMjQuMjYzLDcxMi42MDksMzYxLjg5eiIvPg0KCQkJPHBhdGggZD0iTTg0NS4zODIsMzYwLjk5OGMtMzcuOTkzLDAuMTcyLTc1LjU2NSwwLjQxMS0xMTIuNjMyLDAuNzE4YzYuNTU4LTM3LjYyNywxMy45NDItNzQuMDY0LDIyLjIwNS0xMDkuMTY1DQoJCQkJYzMzLjkxNS0wLjM0NSw2OC4yODctMC42MTQsMTAzLjA0MS0wLjgwOEM4NTMuMjk0LDI4Ni45MjQsODQ5LjEwMywzMjMuMzc2LDg0NS4zODIsMzYwLjk5OHoiLz4NCgkJCTxwYXRoIGQ9Ik05ODIuMzY2LDM2MC42NjdjLTM4Ljc4OCwwLjAxMy03Ny40NjQsMC4wOTMtMTE1Ljk0LDAuMjQyYzMuMTkxLTM3LjYyMSw2Ljc4NS03NC4wNzUsMTAuODE4LTEwOS4yNjYNCgkJCQljMzUuMTktMC4xNjcsNzAuNTYxLTAuMjU4LDEwNi4wMzQtMC4yNzJDOTgyLjkzOCwyODYuNTkxLDk4Mi42MzUsMzIzLjA0OSw5ODIuMzY2LDM2MC42Njd6Ii8+DQoJCQk8cGF0aCBkPSJNMTExOS42NTUsMzYwLjkwOWMtMzguNDc1LTAuMTQ5LTc3LjE1MS0wLjIyOS0xMTUuOTQtMC4yNDJjLTAuMjY5LTM3LjYxOC0wLjU3Mi03NC4wNzYtMC45MTItMTA5LjI5Ng0KCQkJCWMzNS40NzMsMC4wMTQsNzAuODQ0LDAuMTA1LDEwNi4wMzQsMC4yNzJDMTExMi44NywyODYuODM1LDExMTYuNDY0LDMyMy4yODgsMTExOS42NTUsMzYwLjkwOXoiLz4NCgkJCTxwYXRoIGQ9Ik0xMjUzLjMzMiwzNjEuNzE2Yy0zNy4wNjctMC4zMDctNzQuNjM5LTAuNTQ2LTExMi42MzItMC43MThjLTMuNzIxLTM3LjYyMi03LjkxMi03NC4wNzQtMTIuNjE0LTEwOS4yNTUNCgkJCQljMzQuNzU0LDAuMTk0LDY5LjEyNiwwLjQ2MiwxMDMuMDQxLDAuODA4QzEyMzkuMzksMjg3LjY1MiwxMjQ2Ljc3NCwzMjQuMDg5LDEyNTMuMzMyLDM2MS43MTZ6Ii8+DQoJCQk8cGF0aCBkPSJNMTM3OS42MTcsMzYzLjA2MmMtMzQuNjE2LTAuNDU3LTcwLjAyNC0wLjg0Ni0xMDYuMTQ0LTEuMTcyYy03LjA2NS0zNy42MjgtMTUuMDE5LTc0LjA2MS0yMy45MTUtMTA5LjE0NA0KCQkJCWMzMy4wNTksMC4zNjYsNjUuNDcxLDAuODA0LDk3LjE2NywxLjMxOEMxMzU4LjkzNSwyODkuMDMyLDEzNjkuODg2LDMyNS40MzQsMTM3OS42MTcsMzYzLjA2MnoiLz4NCgkJCTxwYXRoIGQ9Ik0xNDk1LjAxNiwzNjQuOTA1Yy0zMS4yMTctMC41OTQtNjMuNDgxLTEuMTIyLTk2LjcyNC0xLjU4OGMtMTAuMTk5LTM3LjYyNy0yMS42NzctNzQuMDIyLTM0LjQ2NC0xMDguOTY2DQoJCQkJYzMwLjQ1MSwwLjUyNSw2MC4wMTUsMS4xMTksODguNjI5LDEuNzg3QzE0NjguMjEyLDI5MC45NDcsMTQ4Mi40LDMyNy4yOTEsMTQ5NS4wMTYsMzY0LjkwNXoiLz4NCgkJCTxwYXRoIGQ9Ik0xNTk2LjQzNiwzNjcuMTg3Yy0yNi45OTQtMC43MTYtNTUuMjUzLTEuMzY1LTg0LjcyMS0xLjk1NmMtMTMuMDMxLTM3LjYwOS0yNy42ODUtNzMuOTQzLTQzLjk0Ny0xMDguNzI2DQoJCQkJYzI3LjAyNiwwLjY2Niw1Mi45NTYsMS4zOTcsNzcuNzM2LDIuMjAzQzE1NjQuMzEyLDI5My4zNSwxNTgxLjMxLDMyOS42MTIsMTU5Ni40MzYsMzY3LjE4N3oiLz4NCgkJCTxwYXRoIGQ9Ik0xNjgxLjI4OCwzNjkuODRjLTIyLjA5Ni0wLjgxOS00NS42MzMtMS41NjktNzAuNTY0LTIuMjY0Yy0xNS40NzctMzcuNTY3LTMyLjg2Ny03My44MTQtNTIuMDk5LTEwOC40Mw0KCQkJCWMyMi45MDUsMC43ODQsNDQuNTQyLDEuNjI5LDY0Ljg2OCwyLjU1MkMxNjQ0Ljc5MiwyOTYuMTc1LDE2NjQuMDk3LDMzMi4zMzMsMTY4MS4yODgsMzY5Ljg0eiIvPg0KCQkJPHBhdGggZD0iTTE3NDcuNTUxLDM3Mi43ODZjLTE2LjY4OS0wLjkwNi0zNC45NDYtMS43MzEtNTQuNzM3LTIuNTA2Yy0xNy40NjgtMzcuNDk0LTM3LjA4MS03My42MzQtNTguNzEyLTEwOC4wODYNCgkJCQljMTguMjI4LDAuODc1LDM1LjA1OCwxLjgwNiw1MC40NTYsMi44MjhDMTcwNy43MzcsMjk5LjM0MiwxNzI4Ljc5MSwzMzUuMzc2LDE3NDcuNTUxLDM3Mi43ODZ6Ii8+DQoJCQk8cGF0aCBkPSJNMTc5My44MDksMzc1Ljk0Yy0xMC45NDItMC45ODMtMjMuNTM2LTEuODUyLTM3Ljc1NC0yLjY3N2MtMTguOTU3LTM3LjM5MS00MC4yMjktNzMuNDA2LTYzLjY0NC0xMDcuNzAzDQoJCQkJYzEzLjE0NiwwLjkzMywyNC44MDksMS45MTQsMzQuOTU4LDMuMDI0QzE3NTEuNzk1LDMwMi43NiwxNzc0LjAwOCwzMzguNjU4LDE3OTMuODA5LDM3NS45NHoiLz4NCgkJCTxwYXRoIGQ9Ik0xODE5LjI1NiwzNzkuMjE3Yy01LjAwMy0xLjEwOS0xMS43NDItMS45NDEtMjAuMTMtMi43NzVjLTE5LjkxNC0zNy4yNTktNDIuMjUzLTczLjEzNi02Ni44MTUtMTA3LjI5MQ0KCQkJCWM3LjgyLDAuOTQ0LDE0LjEzNiwxLjg5NCwxOC44MzksMy4xMzhDMTc3Ni4xODEsMzA2LjMzNCwxNzk4Ljk1NCwzNDIuMDg5LDE4MTkuMjU2LDM3OS4yMTd6Ii8+DQoJCQk8cGF0aCBkPSJNMTgyMy42NzgsMzgyLjUzYzEuMTE5LTAuNjE0LDAuMTU5LTIuMDgzLTIuMzYzLTIuOGMtMjAuMzMyLTM3LjEwMi00My4xMzgtNzIuODM0LTY4LjIwNS0xMDYuODYxDQoJCQkJYzIuNDY1LDAuODI5LDMuNTU4LDIuNDI3LDIuNTUyLDMuMTdDMTc4MC42NjUsMzA5Ljk2OSwxODAzLjQwOCwzNDUuNTc3LDE4MjMuNjc4LDM4Mi41M3oiLz4NCgkJCTxwYXRoIGQ9Ik0xMDEuODAyLDUyMC43NDFjLTIuNTQsMC41Mi0zLjMzNCwxLjY1OC0yLjEyNywyLjA4NWMxNC4wMjktMzkuNzQ0LDMwLjcxNS03OC41NjEsNDkuOTAzLTExNi4wODcNCgkJCQljLTEuMTM4LTAuNTgzLTAuMjA5LTIuMDA2LDIuMzE5LTIuNjkyQzEzMi42MzgsNDQxLjc1NCwxMTUuODg3LDQ4MC43NzQsMTAxLjgwMiw1MjAuNzQxeiIvPg0KCQkJPHBhdGggZD0iTTEyNS4yMDUsNTE4LjI5Yy04Ljg5MiwwLjYyLTE1Ljk5NiwxLjIzNS0yMS4yNjMsMi4wNjljMTQuMDY4LTQwLjAwNiwzMC43OTctNzkuMDY0LDUwLjAzMi0xMTYuODA1DQoJCQkJYzUuMDU4LTEuMDY4LDExLjg3My0xLjg2OCwyMC4zNjYtMi42NjlDMTU1LjQ0NSw0MzguODIsMTM5LjAxOCw0NzguMDc2LDEyNS4yMDUsNTE4LjI5eiIvPg0KCQkJPHBhdGggZD0iTTE3MS4xNDIsNTE1LjkxOGMtMTUuMTkyLDAuNjE2LTI4LjYyOCwxLjI2My00MC4yODUsMS45OThjMTMuNzM4LTQwLjI1MSwzMC4wNzUtNzkuNTQzLDQ4Ljg2OS0xMTcuNTE0DQoJCQkJYzExLjA4OS0wLjk0NiwyMy44NTctMS43ODEsMzguMjc1LTIuNTc1QzE5OS45NjksNDM1Ljk5OCwxODQuMzA5LDQ3NS40OCwxNzEuMTQyLDUxNS45MTh6Ii8+DQoJCQk8cGF0aCBkPSJNMjM4Ljg5LDUxMy42OWMtMjEuMjIzLDAuNTc5LTQwLjc4NiwxLjE5NS01OC42NTIsMS44NzJjMTMuMDM0LTQwLjQ3MSwyOC41MzUtNzkuOTg1LDQ2LjM5LTExOC4xOTQNCgkJCQljMTYuOTMxLTAuODcyLDM1LjQ1Ni0xLjY2NSw1NS41NC0yLjQxMUMyNjUuNDk1LDQzMy4zNjgsMjUxLjA0MSw0NzMuMDU1LDIzOC44OSw1MTMuNjl6Ii8+DQoJCQk8cGF0aCBkPSJNMzI3LjA1OSw1MTEuNjY4Yy0yNi43OTYsMC41Mi01Mi4wNzksMS4wOC03NS44MDIsMS42OTNjMTEuOTYyLTQwLjY2MiwyNi4xOS04MC4zNzksNDIuNjA4LTExOC44MjgNCgkJCQljMjIuNDI5LTAuNzg5LDQ2LjMyMy0xLjUxLDcxLjYzNi0yLjE3OUMzNTAuNjcsNDMxLjAwMSwzMzcuODQyLDQ3MC44NywzMjcuMDU5LDUxMS42Njh6Ii8+DQoJCQk8cGF0aCBkPSJNNDMzLjU5Miw1MDkuOTE0Yy0zMS43MjMsMC40NDMtNjIuMTMzLDAuOTI4LTkxLjE2OSwxLjQ2NGMxMC41NDEtNDAuODIsMjMuMDgyLTgwLjcxNSwzNy41ODctMTE5LjM5Nw0KCQkJCWMyNy40MTEtMC42ODksNTYuMTExLTEuMzEzLDg2LjAzOS0xLjg4M0M0NTMuNTA1LDQyOC45NjQsNDQyLjY4NSw0NjguOTg2LDQzMy41OTIsNTA5LjkxNHoiLz4NCgkJCTxwYXRoIGQ9Ik01NTUuNzkzLDUwOC40OGMtMzUuODI5LDAuMzQ5LTcwLjU5MywwLjc0NS0xMDQuMjE4LDEuMTljOC44MDUtNDAuOTQ1LDE5LjI4My04MC45ODcsMzEuNDM1LTExOS44ODYNCgkJCQljMzEuNzA5LTAuNTcyLDY0LjQ4NC0xLjA4LDk4LjI1NC0xLjUyOUM1NzEuNDAzLDQyNy4zMTQsNTYyLjkyMSw0NjcuNDU1LDU1NS43OTMsNTA4LjQ4eiIvPg0KCQkJPHBhdGggZD0iTTY5MC4zOTUsNTA3LjQxMWMtMzguOTYyLDAuMjQ0LTc3LjE0NywwLjUzNi0xMTQuNDcxLDAuODc4YzYuODAyLTQxLjAzNywxNC44OTctODEuMTkzLDI0LjMxMi0xMjAuMjgNCgkJCQljMzUuMTY5LTAuNDQsNzEuMTQzLTAuODE1LDEwNy44NDMtMS4xMjhDNzAxLjIyMiw0MjYuMDk1LDY5NS4zMzksNDY2LjMyLDY5MC4zOTUsNTA3LjQxMXoiLz4NCgkJCTxwYXRoIGQ9Ik04MzMuNjYyLDUwNi43NDJjLTQxLjAwMiwwLjEyOS04MS41NDYsMC4zMDgtMTIxLjUzOCwwLjUzOWM0LjU5LTQxLjA5OSwxMC4wNTItODEuMzM0LDE2LjQyLTEyMC41NjgNCgkJCQljMzcuNjYzLTAuMjk2LDc1Ljg0MS0wLjUyNiwxMTQuNDQ4LTAuNjkyQzgzOS4zNzEsNDI1LjMzNyw4MzYuMjY4LDQ2NS42MTMsODMzLjY2Miw1MDYuNzQyeiIvPg0KCQkJPHBhdGggZD0iTTk4MS41MTgsNTA2LjQ5NGMtNDEuODY5LDAuMDA5LTgzLjYxNSwwLjA3LTEyNS4xNDMsMC4xODFjMi4yMzUtNDEuMTMzLDQuODk2LTgxLjQxMyw4LjAwMi0xMjAuNzQNCgkJCQljMzkuMDk4LTAuMTQzLDc4LjQtMC4yMjEsMTE3LjgxNi0wLjIzM0M5ODEuOTMxLDQyNS4wNTgsOTgxLjcwNyw0NjUuMzUxLDk4MS41MTgsNTA2LjQ5NHoiLz4NCgkJCTxwYXRoIGQ9Ik0xMTI5LjcwNyw1MDYuNjc2Yy00MS41MjgtMC4xMTItODMuMjc0LTAuMTcyLTEyNS4xNDMtMC4xODFjLTAuMTg5LTQxLjE0My0wLjQxMy04MS40MzctMC42NzUtMTIwLjc5MQ0KCQkJCWMzOS40MTYsMC4wMTIsNzguNzE4LDAuMDksMTE3LjgxNiwwLjIzM0MxMTI0LjgxMSw0MjUuMjYyLDExMjcuNDcxLDQ2NS41NDMsMTEyOS43MDcsNTA2LjY3NnoiLz4NCgkJCTxwYXRoIGQ9Ik0xMjczLjk1OCw1MDcuMjgxYy0zOS45OTMtMC4yMy04MC41MzYtMC40MDktMTIxLjUzOC0wLjUzOWMtMi42MDctNDEuMTMtNS43MDktODEuNDA1LTkuMzMtMTIwLjcyMQ0KCQkJCWMzOC42MDcsMC4xNjYsNzYuNzg1LDAuMzk2LDExNC40NDgsMC42OTJDMTI2My45MDYsNDI1Ljk0NywxMjY5LjM2OCw0NjYuMTgyLDEyNzMuOTU4LDUwNy4yODF6Ii8+DQoJCQk8cGF0aCBkPSJNMTQxMC4xNTcsNTA4LjI4OWMtMzcuMzI0LTAuMzQyLTc1LjUwOS0wLjYzNC0xMTQuNDcxLTAuODc4Yy00Ljk0NC00MS4wOTEtMTAuODI3LTgxLjMxNi0xNy42ODQtMTIwLjUzDQoJCQkJYzM2LjcsMC4zMTMsNzIuNjc0LDAuNjg4LDEwNy44NDMsMS4xMjhDMTM5NS4yNiw0MjcuMDk3LDE0MDMuMzU1LDQ2Ny4yNTIsMTQxMC4xNTcsNTA4LjI4OXoiLz4NCgkJCTxwYXRoIGQ9Ik0xNTM0LjUwNyw1MDkuNjY5Yy0zMy42MjUtMC40NDUtNjguMzg5LTAuODQtMTA0LjIxOC0xLjE5Yy03LjEyOC00MS4wMjUtMTUuNjEtODEuMTY1LTI1LjQ3MS0xMjAuMjI2DQoJCQkJYzMzLjc3MSwwLjQ0OSw2Ni41NDUsMC45NTcsOTguMjU0LDEuNTI5QzE1MTUuMjI0LDQyOC42ODIsMTUyNS43MDEsNDY4LjcyNCwxNTM0LjUwNyw1MDkuNjY5eiIvPg0KCQkJPHBhdGggZD0iTTE2NDMuNjU5LDUxMS4zNzdjLTI5LjAzNi0wLjUzNi01OS40NDctMS4wMjEtOTEuMTY5LTEuNDY0Yy05LjA5My00MC45MjgtMTkuOTEzLTgwLjk1LTMyLjQ1Ni0xMTkuODE2DQoJCQkJYzI5LjkyOCwwLjU2OSw1OC42MjcsMS4xOTQsODYuMDM5LDEuODgzQzE2MjAuNTc3LDQzMC42NjIsMTYzMy4xMTgsNDcwLjU1NywxNjQzLjY1OSw1MTEuMzc3eiIvPg0KCQkJPHBhdGggZD0iTTE3MzQuODI1LDUxMy4zNjFjLTIzLjcyMy0wLjYxMy00OS4wMDYtMS4xNzMtNzUuODAyLTEuNjkzYy0xMC43ODMtNDAuNzk4LTIzLjYxMS04MC42NjctMzguNDQyLTExOS4zMTQNCgkJCQljMjUuMzEzLDAuNjY5LDQ5LjIwNywxLjM5MSw3MS42MzYsMi4xNzlDMTcwOC42MzQsNDMyLjk4MiwxNzIyLjg2Myw0NzIuNywxNzM0LjgyNSw1MTMuMzYxeiIvPg0KCQkJPHBhdGggZD0iTTE4MDUuODQ0LDUxNS41NjJjLTE3Ljg2Ny0wLjY3Ny0zNy40MjktMS4yOTMtNTguNjUyLTEuODcyYy0xMi4xNTItNDAuNjM0LTI2LjYwNS04MC4zMjItNDMuMjc4LTExOC43MzQNCgkJCQljMjAuMDg1LDAuNzQ2LDM4LjYxLDEuNTQsNTUuNTQsMi40MTFDMTc3Ny4zMDksNDM1LjU3NiwxNzkyLjgxLDQ3NS4wOTEsMTgwNS44NDQsNTE1LjU2MnoiLz4NCgkJCTxwYXRoIGQ9Ik0xODU1LjIyNSw1MTcuOTE2Yy0xMS42NTctMC43MzQtMjUuMDkzLTEuMzgyLTQwLjI4NS0xLjk5OGMtMTMuMTY4LTQwLjQzOC0yOC44MjctNzkuOTItNDYuODYtMTE4LjA5Mg0KCQkJCWMxNC40MTksMC43OTQsMjcuMTg2LDEuNjI5LDM4LjI3NSwyLjU3NUMxODI1LjE1LDQzOC4zNzMsMTg0MS40ODYsNDc3LjY2NSwxODU1LjIyNSw1MTcuOTE2eiIvPg0KCQkJPHBhdGggZD0iTTE4ODIuMTQsNTIwLjM1OWMtNS4yNjctMC44MzMtMTIuMzcxLTEuNDQ4LTIxLjI2My0yLjA2OWMtMTMuODE0LTQwLjIxNC0zMC4yNC03OS40NzEtNDkuMTM1LTExNy40MDYNCgkJCQljOC40OTMsMC44MDEsMTUuMzA4LDEuNjAxLDIwLjM2NiwyLjY2OUMxODUxLjM0Myw0NDEuMjk1LDE4NjguMDcyLDQ4MC4zNTIsMTg4Mi4xNCw1MjAuMzU5eiIvPg0KCQkJPHBhdGggZD0iTTE4ODYuNDA3LDUyMi44MjZjMS4yMDctMC40MjcsMC40MTItMS41NjQtMi4xMjctMi4wODVjLTE0LjA4NS0zOS45NjctMzAuODM2LTc4Ljk4Ny01MC4wOTUtMTE2LjY5NA0KCQkJCWMyLjUyOCwwLjY4NiwzLjQ1NywyLjEwOSwyLjMxOSwyLjY5MkMxODU1LjY5Miw0NDQuMjY1LDE4NzIuMzc4LDQ4My4wODIsMTg4Ni40MDcsNTIyLjgyNnoiLz4NCgkJCTxwYXRoIGQ9Ik02Mi40MDUsNjcwLjI2OGMtMi41MzEsMC4yODEtMy4yMDMsMC45MjctMS45NTEsMS4xNTFjNy40MTgtNDEuNDg5LDE3LjYwOS04Mi40OTMsMzAuNDc3LTEyMi42MjgNCgkJCQljLTEuMjE4LTAuMzkxLTAuNDQ5LTEuNDUyLDIuMDktMS45MzJDODAuMDk1LDU4Ny4yNCw2OS44NTgsNjI4LjUwNSw2Mi40MDUsNjcwLjI2OHoiLz4NCgkJCTxwYXRoIGQ9Ik04Ni41MzMsNjY4LjkxNGMtOS4xOTcsMC4zNDItMTYuNTE3LDAuNjgtMjEuOTQzLDEuMTQzYzcuNDQ1LTQxLjgxMiwxNy42Ny04My4xMjUsMzAuNTgyLTEyMy41NTINCgkJCQljNS4zMDItMC43NzMsMTIuNDU1LTEuMzQyLDIxLjQxNi0xLjkxN0MxMDMuODk2LDU4NS4yNyw5My44NDksNjI2LjgzOSw4Ni41MzMsNjY4LjkxNHoiLz4NCgkJCTxwYXRoIGQ9Ik0xMzQuMjMzLDY2Ny42MDNjLTE1Ljc5MywwLjM0LTI5Ljc0NywwLjY5OC00MS44NDMsMS4xMDRjNy4yNzctNDIuMTIyLDE3LjI3MS04My43MzcsMjkuODk2LTEyNC40NjcNCgkJCQljMTEuNzU1LTAuNjgxLDI1LjMwNy0xLjI4MSw0MC42MzQtMS44NTJDMTUwLjgsNTgzLjM3NSwxNDEuMjE0LDYyNS4yMzMsMTM0LjIzMyw2NjcuNjAzeiIvPg0KCQkJPHBhdGggZD0iTTIwNC43NzgsNjY2LjM3Yy0yMi4xMTQsMC4zMi00Mi40ODYsMC42NjEtNjEuMDg0LDEuMDM2YzYuOTEyLTQyLjQxMywxNi40MDEtODQuMzE0LDI4LjQwMy0xMjUuMzQ4DQoJCQkJYzE4LjAzLTAuNjI4LDM3Ljc3My0xLjE5OSw1OS4xOTYtMS43MzZDMjIwLjA4Miw1ODEuNjA3LDIxMS4yMjgsNjIzLjczMiwyMDQuNzc4LDY2Ni4zN3oiLz4NCgkJCTxwYXRoIGQ9Ik0yOTYuNzQsNjY1LjI1MWMtMjcuOTYsMC4yODgtNTQuMzMzLDAuNTk4LTc5LjA3LDAuOTM3YzYuMzUtNDIuNjc3LDE1LjA2Ny04NC44NDEsMjYuMTA4LTEyNi4xNw0KCQkJCWMyMy45NDktMC41NjgsNDkuNDc1LTEuMDg3LDc2LjUzMS0xLjU3QzMxMC4zMzMsNTgwLjAxNCwzMDIuNDcsNjIyLjM3NiwyOTYuNzQsNjY1LjI1MXoiLz4NCgkJCTxwYXRoIGQ9Ik00MDcuOTc5LDY2NC4yOGMtMzMuMTM1LDAuMjQ1LTY0Ljg5MSwwLjUxNC05NS4yMDQsMC44MTFjNS42MDMtNDIuOTA4LDEzLjI5MS04NS4zMDQsMjMuMDQ3LTEyNi45MTINCgkJCQljMjkuMzIxLTAuNDk3LDYwLjAzMS0wLjk0Nyw5Mi4wNjgtMS4zNTdDNDE5LjQ1NCw1NzguNjQxLDQxMi44MTcsNjIxLjIwNSw0MDcuOTc5LDY2NC4yOHoiLz4NCgkJCTxwYXRoIGQ9Ik01MzUuNjgzLDY2My40ODVjLTM3LjQ1MSwwLjE5NC03My43ODIsMC40MTItMTA4LjkxNywwLjY1OWM0LjY4Ni00My4xMDIsMTEuMTE0LTg1LjY5NCwxOS4yODYtMTI3LjU1DQoJCQkJYzMzLjk2Mi0wLjQxMyw2OS4wNzUtMC43NzksMTA1LjI2NS0xLjEwM0M1NDQuNjg2LDU3Ny41MjUsNTM5LjQ4LDYyMC4yNTIsNTM1LjY4Myw2NjMuNDg1eiIvPg0KCQkJPHBhdGggZD0iTTY3Ni40MjksNjYyLjg5M2MtNDAuNzQ3LDAuMTM1LTgwLjY3NiwwLjI5Ny0xMTkuNywwLjQ4N2MzLjYyNC00My4yNTUsOC41OTMtODYuMDAyLDE0LjkyMy0xMjguMDY1DQoJCQkJYzM3LjcwMi0wLjMxOCw3Ni4yNzYtMC41ODgsMTE1LjYzNS0wLjgxNEM2ODIuNjc4LDU3Ni42OTksNjc5LjA2NSw2MTkuNTQzLDY3Ni40MjksNjYyLjg5M3oiLz4NCgkJCTxwYXRoIGQ9Ik04MjYuMjkxLDY2Mi41MjJjLTQyLjg5NCwwLjA3Mi04NS4zMDUsMC4xNzEtMTI3LjEzNywwLjI5OWMyLjQ0Ny00My4zNjQsNS44MDItODYuMjIzLDEwLjA4My0xMjguNDQyDQoJCQkJYzQwLjQwMi0wLjIxNCw4MS4zNjEtMC4zOCwxMjIuNzg0LTAuNUM4MjkuNTg4LDU3Ni4xODMsODI3LjY4Miw2MTkuMTAxLDgyNi4yOTEsNjYyLjUyMnoiLz4NCgkJCTxwYXRoIGQ9Ik05ODAuOTg1LDY2Mi4zODVjLTQzLjgwNiwwLjAwNS04Ny40ODQsMC4wMzktMTMwLjkzMSwwLjEwMWMxLjE5My00My40MjgsMi44MjctODYuMzUzLDQuOTE1LTEyOC42NjcNCgkJCQljNDEuOTU1LTAuMTA0LDg0LjEzMS0wLjE2LDEyNi40MzEtMC4xNjhDOTgxLjIyMyw1NzUuOTkzLDk4MS4wODUsNjE4LjkzNyw5ODAuOTg1LDY2Mi4zODV6Ii8+DQoJCQk8cGF0aCBkPSJNMTEzNi4wMjgsNjYyLjQ4NWMtNDMuNDQ4LTAuMDYyLTg3LjEyNS0wLjA5NS0xMzAuOTMyLTAuMTAxYy0wLjEwMS00My40NDgtMC4yMzgtODYuMzkyLTAuNDE1LTEyOC43MzUNCgkJCQljNDIuMywwLjAwOSw4NC40NzYsMC4wNjUsMTI2LjQzMSwwLjE2OEMxMTMzLjIwMSw1NzYuMTMyLDExMzQuODM2LDYxOS4wNTcsMTEzNi4wMjgsNjYyLjQ4NXoiLz4NCgkJCTxwYXRoIGQ9Ik0xMjg2LjkyNyw2NjIuODIxYy00MS44MzItMC4xMjgtODQuMjQzLTAuMjI3LTEyNy4xMzctMC4yOTljLTEuMzkxLTQzLjQyMS0zLjI5Ni04Ni4zMzktNS43My0xMjguNjQzDQoJCQkJYzQxLjQyMywwLjEyLDgyLjM4MiwwLjI4NiwxMjIuNzg0LDAuNUMxMjgxLjEyNSw1NzYuNTk4LDEyODQuNDc5LDYxOS40NTcsMTI4Ni45MjcsNjYyLjgyMXoiLz4NCgkJCTxwYXRoIGQ9Ik0xNDI5LjM1Myw2NjMuMzhjLTM5LjAyNC0wLjE5LTc4Ljk1My0wLjM1Mi0xMTkuNy0wLjQ4N2MtMi42MzYtNDMuMzUtNi4yNDktODYuMTk0LTEwLjg1OC0xMjguMzkzDQoJCQkJYzM5LjM1OSwwLjIyNiw3Ny45MzMsMC40OTcsMTE1LjYzNSwwLjgxNEMxNDIwLjc2LDU3Ny4zNzgsMTQyNS43MjksNjIwLjEyNSwxNDI5LjM1Myw2NjMuMzh6Ii8+DQoJCQk8cGF0aCBkPSJNMTU1OS4zMTUsNjY0LjE0NGMtMzUuMTM1LTAuMjQ3LTcxLjQ2Ni0wLjQ2NS0xMDguOTE3LTAuNjU5Yy0zLjc5Ny00My4yMzQtOS4wMDMtODUuOTYtMTUuNjM0LTEyNy45OTQNCgkJCQljMzYuMTksMC4zMjQsNzEuMzAzLDAuNjkxLDEwNS4yNjUsMS4xMDNDMTU0OC4yMDIsNTc4LjQ1LDE1NTQuNjI5LDYyMS4wNDIsMTU1OS4zMTUsNjY0LjE0NHoiLz4NCgkJCTxwYXRoIGQ9Ik0xNjczLjMwNiw2NjUuMDljLTMwLjMxMy0wLjI5Ny02Mi4wNjktMC41NjUtOTUuMjA0LTAuODExYy00LjgzOC00My4wNzUtMTEuNDc1LTg1LjYzOS0xOS45MTEtMTI3LjQ1OQ0KCQkJCWMzMi4wMzcsMC40MSw2Mi43NDcsMC44NjEsOTIuMDY4LDEuMzU3QzE2NjAuMDE2LDU3OS43ODYsMTY2Ny43MDMsNjIyLjE4MiwxNjczLjMwNiw2NjUuMDl6Ii8+DQoJCQk8cGF0aCBkPSJNMTc2OC40MTIsNjY2LjE4OGMtMjQuNzM2LTAuMzM5LTUxLjEwOS0wLjY0OS03OS4wNy0wLjkzN2MtNS43My00Mi44NzUtMTMuNTk0LTg1LjIzNy0yMy41NjktMTI2LjgwMw0KCQkJCWMyNy4wNTYsMC40ODIsNTIuNTgyLDEuMDAyLDc2LjUzMSwxLjU3QzE3NTMuMzQ1LDU4MS4zNDgsMTc2Mi4wNjEsNjIzLjUxMSwxNzY4LjQxMiw2NjYuMTg4eiIvPg0KCQkJPHBhdGggZD0iTTE4NDIuMzg3LDY2Ny40MDZjLTE4LjU5Ny0wLjM3NC0zOC45Ny0wLjcxNS02MS4wODQtMS4wMzZjLTYuNDUtNDIuNjM4LTE1LjMwMy04NC43NjMtMjYuNTE1LTEyNi4wNDgNCgkJCQljMjEuNDIyLDAuNTM3LDQxLjE2NSwxLjEwOCw1OS4xOTYsMS43MzZDMTgyNS45ODUsNTgzLjA5MiwxODM1LjQ3NSw2MjQuOTkyLDE4NDIuMzg3LDY2Ny40MDZ6Ii8+DQoJCQk8cGF0aCBkPSJNMTg5My42OTIsNjY4LjcwN2MtMTIuMDk2LTAuNDA2LTI2LjA1LTAuNzY0LTQxLjg0My0xLjEwNGMtNi45ODEtNDIuMzctMTYuNTY3LTg0LjIyNy0yOC42ODctMTI1LjIxNA0KCQkJCWMxNS4zMjYsMC41NzEsMjguODc4LDEuMTcxLDQwLjYzNCwxLjg1MkMxODc2LjQyMSw1ODQuOTcsMTg4Ni40MTQsNjI2LjU4NSwxODkzLjY5Miw2NjguNzA3eiIvPg0KCQkJPHBhdGggZD0iTTE5MjEuNDkxLDY3MC4wNTdjLTUuNDI1LTAuNDYzLTEyLjc0NS0wLjgtMjEuOTQzLTEuMTQzYy03LjMxNi00Mi4wNzUtMTcuMzYzLTgzLjY0NC0zMC4wNTUtMTI0LjMyNw0KCQkJCWM4Ljk2MSwwLjU3NSwxNi4xMTQsMS4xNDQsMjEuNDE2LDEuOTE3QzE5MDMuODIxLDU4Ni45MzIsMTkxNC4wNDcsNjI4LjI0NSwxOTIxLjQ5MSw2NzAuMDU3eiIvPg0KCQkJPHBhdGggZD0iTTE5MjUuNjI3LDY3MS40MTljMS4yNTItMC4yMjQsMC41OC0wLjg3LTEuOTUxLTEuMTUxYy03LjQ1My00MS43NjItMTcuNjktODMuMDI4LTMwLjYxNy0xMjMuNDA5DQoJCQkJYzIuNTM5LDAuNDgsMy4zMDgsMS41NDEsMi4wOSwxLjkzMkMxOTA4LjAxOCw1ODguOTI1LDE5MTguMjA5LDYyOS45MjksMTkyNS42MjcsNjcxLjQxOXoiLz4NCgkJCTxwYXRoIGQ9Ik00Ny42NTQsODI0LjMwMWMtMi41MjMsMC4wMjMtMy4xNDUsMC4wNzgtMS44NzksMC4wOTZjMC42MTItNDIuMTQzLDQuMDM5LTg0LjI1NSwxMC4yNDktMTI1Ljk0Mg0KCQkJCWMtMS4yNTctMC4xODgtMC42LTAuNzMzLDEuOTI5LTAuOTY5QzUxLjcxNCw3MzkuNDYsNDguMjcsNzgxLjg2NCw0Ny42NTQsODI0LjMwMXoiLz4NCgkJCTxwYXRoIGQ9Ik03Mi4wNDcsODI0LjE4OGMtOS4zMSwwLjAyOS0xNi43MDcsMC4wNTctMjIuMTkxLDAuMDk1YzAuNjE1LTQyLjQ5Miw0LjA1NS04NC45NDksMTAuMjg5LTEyNi45NzUNCgkJCQljNS40NDMtMC4zOSwxMi43ODctMC42NzQsMjIuMDE4LTAuOTYyQzc2LjAzMiw3MzguNjYyLDcyLjY1MSw3ODEuNDA1LDcyLjA0Nyw4MjQuMTg4eiIvPg0KCQkJPHBhdGggZD0iTTEyMC40MDEsODI0LjA3OWMtMTYuMDE2LDAuMDI4LTMwLjE2MiwwLjA1OC00Mi40MjEsMC4wOTJjMC42MDEtNDIuODM2LDMuOTY1LTg1LjYzLDEwLjA2Mi0xMjcuOTk5DQoJCQkJYzEyLjE0NS0wLjM0MiwyNi4xNTctMC42NDMsNDIuMDE4LTAuOTNDMTI0LjIwNSw3MzcuODk1LDEyMC45NzgsNzgwLjk2MSwxMjAuNDAxLDgyNC4wNzl6Ii8+DQoJCQk8cGF0aCBkPSJNMTkxLjk5LDgyMy45NzZjLTIyLjQ0NiwwLjAyNy00My4xMjEsMC4wNTUtNjEuOTksMC4wODZjMC41NzEtNDMuMTY3LDMuNzY2LTg2LjI4Miw5LjU2NC0xMjguOTg2DQoJCQkJYzE4LjY4LTAuMzE1LDM5LjE0My0wLjYwMiw2MS4zNTctMC44NzJDMTk1LjUwNSw3MzcuMTgsMTkyLjUyMyw3ODAuNTQ2LDE5MS45OSw4MjMuOTc2eiIvPg0KCQkJPHBhdGggZD0iTTI4NS4zNjgsODIzLjg4MmMtMjguMzk2LDAuMDI0LTU1LjE3NiwwLjA1LTgwLjI5MSwwLjA3OGMwLjUyNS00My40NzYsMy40NjEtODYuODg1LDguNzk0LTEyOS45MDkNCgkJCQljMjQuODUxLTAuMjg2LDUxLjM0Ny0wLjU0Nyw3OS40MzktMC43ODlDMjg4LjQ5Miw3MzYuNTM3LDI4NS44NDIsNzgwLjE2OSwyODUuMzY4LDgyMy44ODJ6Ii8+DQoJCQk8cGF0aCBkPSJNMzk4LjM3LDgyMy44MDFjLTMzLjY2MywwLjAyMS02NS45MjQsMC4wNDMtOTYuNzE1LDAuMDY4YzAuNDY0LTQzLjc1NCwzLjA1NC04Ny40MjQsNy43NjYtMTMwLjc0Mg0KCQkJCWMzMC40NTgtMC4yNSw2Mi4zNjYtMC40NzYsOTUuNjYtMC42ODNDNDAxLjAwNyw3MzUuOTgxLDM5OC43NzEsNzc5Ljg0MywzOTguMzcsODIzLjgwMXoiLz4NCgkJCTxwYXRoIGQ9Ik01MjguMTM2LDgyMy43MzVjLTM4LjA1OSwwLjAxNi03NC45NzgsMC4wMzQtMTEwLjY3OSwwLjA1NWMwLjM4OC00My45OTIsMi41NTUtODcuODg1LDYuNTAxLTEzMS40NTkNCgkJCQljMzUuMzA1LTAuMjA4LDcxLjgxNC0wLjM5MiwxMDkuNDQ4LTAuNTU1QzUzMC4yMDcsNzM1LjUzLDUyOC40NTEsNzc5LjU3Nyw1MjguMTM2LDgyMy43MzV6Ii8+DQoJCQk8cGF0aCBkPSJNNjcxLjE4Niw4MjMuNjg1Yy00MS40MTYsMC4wMTEtODIsMC4wMjUtMTIxLjY2MiwwLjA0MWMwLjMwMS00NC4xODUsMS45NzYtODguMjU1LDUuMDMxLTEzMi4wMzkNCgkJCQljMzkuMjE2LTAuMTYsNzkuMzQzLTAuMjk2LDEyMC4yOTItMC40MUM2NzIuNjI0LDczNS4xOTYsNjcxLjQwNSw3NzkuMzc4LDY3MS4xODYsODIzLjY4NXoiLz4NCgkJCTxwYXRoIGQ9Ik04MjMuNTI0LDgyMy42NTRjLTQzLjYwNCwwLjAwNi04Ni43MTYsMC4wMTQtMTI5LjIzOCwwLjAyNWMwLjIwMy00NC4zMjUsMS4zMzUtODguNTI0LDMuNC0xMzIuNDYzDQoJCQkJYzQyLjA0LTAuMTA3LDg0LjY2Mi0wLjE5MSwxMjcuNzctMC4yNTFDODI0LjI4Myw3MzQuOTg3LDgyMy42NCw3NzkuMjU0LDgyMy41MjQsODIzLjY1NHoiLz4NCgkJCTxwYXRoIGQ9Ik05ODAuNzg1LDgyMy42NDNjLTQ0LjUzNCwwLTg4LjkzNiwwLjAwMy0xMzMuMTA0LDAuMDA4YzAuMDk5LTQ0LjQwOSwwLjY1LTg4LjY4NSwxLjY1Ny0xMzIuNzE3DQoJCQkJYzQzLjY2NS0wLjA1Miw4Ny41NjEtMC4wOCwxMzEuNTg3LTAuMDg1Qzk4MC44MzksNzM0LjkxLDk4MC43OTMsNzc5LjIwOCw5ODAuNzg1LDgyMy42NDN6Ii8+DQoJCQk8cGF0aCBkPSJNMTEzOC40MDEsODIzLjY1MWMtNDQuMTY4LTAuMDA1LTg4LjU3MS0wLjAwOC0xMzMuMTA0LTAuMDA4Yy0wLjAwOC00NC40MzQtMC4wNTUtODguNzMzLTAuMTQtMTMyLjc5NA0KCQkJCWM0NC4wMjYsMC4wMDQsODcuOTIyLDAuMDMzLDEzMS41ODcsMC4wODVDMTEzNy43NTEsNzM0Ljk2NiwxMTM4LjMwMiw3NzkuMjQyLDExMzguNDAxLDgyMy42NTF6Ii8+DQoJCQk8cGF0aCBkPSJNMTI5MS43OTUsODIzLjY3OWMtNDIuNTIyLTAuMDExLTg1LjYzNC0wLjAxOS0xMjkuMjM4LTAuMDI1Yy0wLjExNS00NC40LTAuNzU4LTg4LjY2Ny0xLjkzMi0xMzIuNjkNCgkJCQljNDMuMTA4LDAuMDYsODUuNzMxLDAuMTQ0LDEyNy43NywwLjI1MUMxMjkwLjQ2LDczNS4xNTUsMTI5MS41OTIsNzc5LjM1NCwxMjkxLjc5NSw4MjMuNjc5eiIvPg0KCQkJPHBhdGggZD0iTTE0MzYuNTU3LDgyMy43MjZjLTM5LjY2MS0wLjAxNi04MC4yNDUtMC4wMjktMTIxLjY2Mi0wLjA0MWMtMC4yMTktNDQuMzA3LTEuNDM3LTg4LjQ5LTMuNjYxLTEzMi40MDgNCgkJCQljNDAuOTQ5LDAuMTE0LDgxLjA3NiwwLjI1LDEyMC4yOTIsMC40MUMxNDM0LjU4MSw3MzUuNDcxLDE0MzYuMjU2LDc3OS41NDEsMTQzNi41NTcsODIzLjcyNnoiLz4NCgkJCTxwYXRoIGQ9Ik0xNTY4LjYyNCw4MjMuNzljLTM1LjctMC4wMjEtNzIuNjItMC4wMzktMTEwLjY3OS0wLjA1NWMtMC4zMTUtNDQuMTU4LTIuMDctODguMjA0LTUuMjcxLTEzMS45NTkNCgkJCQljMzcuNjM0LDAuMTYzLDc0LjE0MywwLjM0NywxMDkuNDQ4LDAuNTU1QzE1NjYuMDY5LDczNS45MDQsMTU2OC4yMzUsNzc5Ljc5NywxNTY4LjYyNCw4MjMuNzl6Ii8+DQoJCQk8cGF0aCBkPSJNMTY4NC40MjcsODIzLjg2OWMtMzAuNzkxLTAuMDI1LTYzLjA1MS0wLjA0Ny05Ni43MTUtMC4wNjhjLTAuNDAxLTQzLjk1OC0yLjYzOC04Ny44Mi02LjcxMS0xMzEuMzU2DQoJCQkJYzMzLjI5NCwwLjIwNiw2NS4yMDIsMC40MzMsOTUuNjYsMC42ODNDMTY4MS4zNzIsNzM2LjQ0NCwxNjgzLjk2Myw3ODAuMTE1LDE2ODQuNDI3LDgyMy44Njl6Ii8+DQoJCQk8cGF0aCBkPSJNMTc4MS4wMDUsODIzLjk2MWMtMjUuMTE1LTAuMDI4LTUxLjg5Ni0wLjA1NC04MC4yOTItMC4wNzhjLTAuNDc0LTQzLjcxMy0zLjEyNC04Ny4zNDYtNy45NDEtMTMwLjYyDQoJCQkJYzI4LjA5MiwwLjI0Miw1NC41ODgsMC41MDQsNzkuNDM5LDAuNzg5QzE3NzcuNTQ0LDczNy4wNzYsMTc4MC40OCw3ODAuNDg0LDE3ODEuMDA1LDgyMy45NjF6Ii8+DQoJCQk8cGF0aCBkPSJNMTg1Ni4wODIsODI0LjA2MmMtMTguODctMC4wMzEtMzkuNTQ0LTAuMDYtNjEuOTktMC4wODZjLTAuNTM0LTQzLjQzLTMuNTE1LTg2Ljc5NS04LjkzMS0xMjkuNzcxDQoJCQkJYzIyLjIxNCwwLjI3LDQyLjY3OCwwLjU1Nyw2MS4zNTcsMC44NzJDMTg1Mi4zMTYsNzM3Ljc4MSwxODU1LjUxMSw3ODAuODk1LDE4NTYuMDgyLDgyNC4wNjJ6Ii8+DQoJCQk8cGF0aCBkPSJNMTkwOC4xMDIsODI0LjE3MWMtMTIuMjU5LTAuMDM0LTI2LjQwNS0wLjA2NC00Mi40MjEtMC4wOTJjLTAuNTc3LTQzLjExNy0zLjgwNC04Ni4xODMtOS42NTktMTI4LjgzNg0KCQkJCWMxNS44NiwwLjI4NywyOS44NzIsMC41ODgsNDIuMDE4LDAuOTNDMTkwNC4xMzcsNzM4LjU0MSwxOTA3LjUwMSw3ODEuMzM1LDE5MDguMTAyLDgyNC4xNzF6Ii8+DQoJCQk8cGF0aCBkPSJNMTkzNi4yMjYsODI0LjI4NGMtNS40ODQtMC4wMzktMTIuODgyLTAuMDY3LTIyLjE5MS0wLjA5NWMtMC42MDQtNDIuNzg0LTMuOTg2LTg1LjUyNi0xMC4xMTUtMTI3Ljg0Mg0KCQkJCWM5LjIzMSwwLjI4OCwxNi41NzUsMC41NzIsMjIuMDE4LDAuOTYyQzE5MzIuMTcyLDczOS4zMzUsMTkzNS42MTIsNzgxLjc5MiwxOTM2LjIyNiw4MjQuMjg0eiIvPg0KCQkJPHBhdGggZD0iTTE5NDAuMzA2LDgyNC4zOTdjMS4yNjctMC4wMTgsMC42NDUtMC4wNzMtMS44NzktMC4wOTZjLTAuNjE1LTQyLjQzOC00LjA1OS04NC44NDItMTAuMy0xMjYuODE1DQoJCQkJYzIuNTI5LDAuMjM2LDMuMTg2LDAuNzgxLDEuOTI5LDAuOTY5QzE5MzYuMjY2LDc0MC4xNDMsMTkzOS42OTMsNzgyLjI1NSwxOTQwLjMwNiw4MjQuMzk3eiIvPg0KCQkJPHBhdGggZD0iTTU3Ljk1NCw5NzguNzA2Yy0yLjUyOS0wLjIzNi0zLjE4Ni0wLjc4MS0xLjkyOS0wLjk2OWMtNi4yMS00MS42ODctOS42MzctODMuNzk5LTEwLjI0OS0xMjUuOTQyDQoJCQkJYy0xLjI2NywwLjAxOC0wLjY0NSwwLjA3MywxLjg3OSwwLjA5NkM0OC4yNyw4OTQuMzI4LDUxLjcxNCw5MzYuNzMyLDU3Ljk1NCw5NzguNzA2eiIvPg0KCQkJPHBhdGggZD0iTTgyLjE2Miw5NzkuODQ1Yy05LjIzMS0wLjI4OC0xNi41NzUtMC41NzItMjIuMDE4LTAuOTYyQzUzLjkxLDkzNi44NTcsNTAuNDcsODk0LjQsNDkuODU1LDg1MS45MDgNCgkJCQljNS40ODQsMC4wMzksMTIuODgyLDAuMDY3LDIyLjE5MSwwLjA5NUM3Mi42NTEsODk0Ljc4Nyw3Ni4wMzIsOTM3LjUzLDgyLjE2Miw5NzkuODQ1eiIvPg0KCQkJPHBhdGggZD0iTTEzMC4wNiw5ODAuOTQ5Yy0xNS44Ni0wLjI4Ny0yOS44NzItMC41ODgtNDIuMDE4LTAuOTNjLTYuMDk4LTQyLjM2OC05LjQ2MS04NS4xNjItMTAuMDYyLTEyNy45OTkNCgkJCQljMTIuMjU5LDAuMDM0LDI2LjQwNSwwLjA2NCw0Mi40MjEsMC4wOTJDMTIwLjk3OCw4OTUuMjMxLDEyNC4yMDUsOTM4LjI5NywxMzAuMDYsOTgwLjk0OXoiLz4NCgkJCTxwYXRoIGQ9Ik0yMDAuOTIsOTgxLjk4N2MtMjIuMjE0LTAuMjctNDIuNjc4LTAuNTU3LTYxLjM1Ny0wLjg3MmMtNS43OTctNDIuNzA0LTguOTkyLTg1LjgxOC05LjU2NC0xMjguOTg2DQoJCQkJYzE4Ljg3LDAuMDMxLDM5LjU0NCwwLjA2LDYxLjk5LDAuMDg2QzE5Mi41MjMsODk1LjY0NiwxOTUuNTA1LDkzOS4wMTIsMjAwLjkyLDk4MS45ODd6Ii8+DQoJCQk8cGF0aCBkPSJNMjkzLjMwOSw5ODIuOTI5Yy0yOC4wOTItMC4yNDItNTQuNTg4LTAuNTA0LTc5LjQzOS0wLjc4OWMtNS4zMzMtNDMuMDI0LTguMjY5LTg2LjQzMy04Ljc5NC0xMjkuOTA5DQoJCQkJYzI1LjExNSwwLjAyOCw1MS44OTUsMC4wNTQsODAuMjkxLDAuMDc4QzI4NS44NDIsODk2LjAyMywyODguNDkyLDkzOS42NTUsMjkzLjMwOSw5ODIuOTI5eiIvPg0KCQkJPHBhdGggZD0iTTQwNS4wODEsOTgzLjc0N2MtMzMuMjk0LTAuMjA2LTY1LjIwMi0wLjQzMy05NS42Ni0wLjY4M2MtNC43MTItNDMuMzE3LTcuMzAyLTg2Ljk4OC03Ljc2Ni0xMzAuNzQyDQoJCQkJYzMwLjc5MSwwLjAyNSw2My4wNTEsMC4wNDcsOTYuNzE1LDAuMDY4QzM5OC43NzEsODk2LjM0OSw0MDEuMDA3LDk0MC4yMTEsNDA1LjA4MSw5ODMuNzQ3eiIvPg0KCQkJPHBhdGggZD0iTTUzMy40MDcsOTg0LjQxNmMtMzcuNjM0LTAuMTYzLTc0LjE0My0wLjM0Ny0xMDkuNDQ4LTAuNTU1Yy0zLjk0Ni00My41NzQtNi4xMTItODcuNDY3LTYuNTAxLTEzMS40NTkNCgkJCQljMzUuNywwLjAyMSw3Mi42MiwwLjAzOSwxMTAuNjc5LDAuMDU1QzUyOC40NTEsODk2LjYxNSw1MzAuMjA3LDk0MC42NjIsNTMzLjQwNyw5ODQuNDE2eiIvPg0KCQkJPHBhdGggZD0iTTY3NC44NDgsOTg0LjkxNWMtNDAuOTQ5LTAuMTE0LTgxLjA3Ni0wLjI1LTEyMC4yOTItMC40MWMtMy4wNTUtNDMuNzg0LTQuNzMxLTg3Ljg1NC01LjAzMS0xMzIuMDM5DQoJCQkJYzM5LjY2MSwwLjAxNiw4MC4yNDUsMC4wMjksMTIxLjY2MiwwLjA0MUM2NzEuNDA1LDg5Ni44MTQsNjcyLjYyNCw5NDAuOTk2LDY3NC44NDgsOTg0LjkxNXoiLz4NCgkJCTxwYXRoIGQ9Ik04MjUuNDU3LDk4NS4yMjdjLTQzLjEwOC0wLjA2LTg1LjczMS0wLjE0NC0xMjcuNzctMC4yNTFjLTIuMDY1LTQzLjkzOS0zLjE5Ny04OC4xMzgtMy40LTEzMi40NjMNCgkJCQljNDIuNTIyLDAuMDExLDg1LjYzNCwwLjAxOSwxMjkuMjM4LDAuMDI1QzgyMy42NCw4OTYuOTM4LDgyNC4yODMsOTQxLjIwNSw4MjUuNDU3LDk4NS4yMjd6Ii8+DQoJCQk8cGF0aCBkPSJNOTgwLjkyNCw5ODUuMzQzYy00NC4wMjYtMC4wMDQtODcuOTIyLTAuMDMzLTEzMS41ODctMC4wODVjLTEuMDA3LTQ0LjAzMy0xLjU1OC04OC4zMDgtMS42NTctMTMyLjcxNw0KCQkJCWM0NC4xNjgsMC4wMDUsODguNTcxLDAuMDA4LDEzMy4xMDQsMC4wMDhDOTgwLjc5Myw4OTYuOTg0LDk4MC44MzksOTQxLjI4Miw5ODAuOTI0LDk4NS4zNDN6Ii8+DQoJCQk8cGF0aCBkPSJNMTEzNi43NDQsOTg1LjI1OGMtNDMuNjY1LDAuMDUyLTg3LjU2MSwwLjA4LTEzMS41ODcsMC4wODVjMC4wODUtNDQuMDYxLDAuMTMxLTg4LjM1OSwwLjE0LTEzMi43OTQNCgkJCQljNDQuNTM0LDAsODguOTM2LTAuMDAzLDEzMy4xMDQtMC4wMDhDMTEzOC4zMDIsODk2Ljk1LDExMzcuNzUxLDk0MS4yMjYsMTEzNi43NDQsOTg1LjI1OHoiLz4NCgkJCTxwYXRoIGQ9Ik0xMjg4LjM5NSw5ODQuOTc2Yy00Mi4wNCwwLjEwNy04NC42NjIsMC4xOTEtMTI3Ljc3LDAuMjUxYzEuMTc0LTQ0LjAyMiwxLjgxNy04OC4yOSwxLjkzMi0xMzIuNjkNCgkJCQljNDMuNjA0LTAuMDA2LDg2LjcxNi0wLjAxNCwxMjkuMjM4LTAuMDI1QzEyOTEuNTkyLDg5Ni44MzgsMTI5MC40Niw5NDEuMDM3LDEyODguMzk1LDk4NC45NzZ6Ii8+DQoJCQk8cGF0aCBkPSJNMTQzMS41MjYsOTg0LjUwNWMtMzkuMjE2LDAuMTYtNzkuMzQzLDAuMjk2LTEyMC4yOTIsMC40MWMyLjIyNC00My45MTksMy40NDMtODguMTAxLDMuNjYxLTEzMi40MDgNCgkJCQljNDEuNDE2LTAuMDExLDgyLTAuMDI1LDEyMS42NjItMC4wNDFDMTQzNi4yNTYsODk2LjY1MSwxNDM0LjU4MSw5NDAuNzIxLDE0MzEuNTI2LDk4NC41MDV6Ii8+DQoJCQk8cGF0aCBkPSJNMTU2Mi4xMjMsOTgzLjg2MWMtMzUuMzA1LDAuMjA4LTcxLjgxNCwwLjM5Mi0xMDkuNDQ4LDAuNTU1YzMuMjAxLTQzLjc1NSw0Ljk1Ni04Ny44MDEsNS4yNzEtMTMxLjk1OQ0KCQkJCWMzOC4wNTktMC4wMTYsNzQuOTc4LTAuMDM0LDExMC42NzktMC4wNTVDMTU2OC4yMzUsODk2LjM5NSwxNTY2LjA2OSw5NDAuMjg4LDE1NjIuMTIzLDk4My44NjF6Ii8+DQoJCQk8cGF0aCBkPSJNMTY3Ni42NjEsOTgzLjA2NWMtMzAuNDU4LDAuMjUtNjIuMzY2LDAuNDc2LTk1LjY2LDAuNjgzYzQuMDczLTQzLjUzNyw2LjMxLTg3LjM5OCw2LjcxMS0xMzEuMzU2DQoJCQkJYzMzLjY2My0wLjAyMSw2NS45MjQtMC4wNDMsOTYuNzE1LTAuMDY4QzE2ODMuOTYzLDg5Ni4wNzcsMTY4MS4zNzIsOTM5Ljc0OCwxNjc2LjY2MSw5ODMuMDY1eiIvPg0KCQkJPHBhdGggZD0iTTE3NzIuMjExLDk4Mi4xNGMtMjQuODUxLDAuMjg2LTUxLjM0NywwLjU0Ny03OS40MzksMC43ODljNC44MTgtNDMuMjc0LDcuNDY3LTg2LjkwNiw3Ljk0MS0xMzAuNjINCgkJCQljMjguMzk2LTAuMDI0LDU1LjE3Ni0wLjA1LDgwLjI5Mi0wLjA3OEMxNzgwLjQ4LDg5NS43MDgsMTc3Ny41NDQsOTM5LjExNiwxNzcyLjIxMSw5ODIuMTR6Ii8+DQoJCQk8cGF0aCBkPSJNMTg0Ni41MTksOTgxLjExNWMtMTguNjgsMC4zMTUtMzkuMTQzLDAuNjAyLTYxLjM1NywwLjg3MmM1LjQxNS00Mi45NzYsOC4zOTctODYuMzQxLDguOTMxLTEyOS43NzENCgkJCQljMjIuNDQ2LTAuMDI3LDQzLjEyMS0wLjA1NSw2MS45OS0wLjA4NkMxODU1LjUxMSw4OTUuMjk3LDE4NTIuMzE2LDkzOC40MTEsMTg0Ni41MTksOTgxLjExNXoiLz4NCgkJCTxwYXRoIGQ9Ik0xODk4LjAzOSw5ODAuMDJjLTEyLjE0NSwwLjM0Mi0yNi4xNTcsMC42NDMtNDIuMDE4LDAuOTNjNS44NTQtNDIuNjUzLDkuMDgyLTg1LjcxOSw5LjY1OS0xMjguODM2DQoJCQkJYzE2LjAxNi0wLjAyOCwzMC4xNjItMC4wNTgsNDIuNDIxLTAuMDkyQzE5MDcuNTAxLDg5NC44NTcsMTkwNC4xMzcsOTM3LjY1MSwxODk4LjAzOSw5ODAuMDJ6Ii8+DQoJCQk8cGF0aCBkPSJNMTkyNS45MzgsOTc4Ljg4M2MtNS40NDMsMC4zOS0xMi43ODcsMC42NzQtMjIuMDE4LDAuOTYyYzYuMTMtNDIuMzE1LDkuNTExLTg1LjA1OCwxMC4xMTUtMTI3Ljg0Mg0KCQkJCWM5LjMxLTAuMDI5LDE2LjcwNy0wLjA1NywyMi4xOTEtMC4wOTVDMTkzNS42MTIsODk0LjQsMTkzMi4xNzIsOTM2Ljg1NywxOTI1LjkzOCw5NzguODgzeiIvPg0KCQkJPHBhdGggZD0iTTE5MzAuMDU3LDk3Ny43MzdjMS4yNTcsMC4xODgsMC42LDAuNzMzLTEuOTI5LDAuOTY5YzYuMjQtNDEuOTczLDkuNjg0LTg0LjM3NywxMC4zLTEyNi44MTUNCgkJCQljMi41MjMtMC4wMjMsMy4xNDUtMC4wNzgsMS44NzktMC4wOTZDMTkzOS42OTMsODkzLjkzNywxOTM2LjI2Niw5MzYuMDQ5LDE5MzAuMDU3LDk3Ny43Mzd6Ii8+DQoJCQk8cGF0aCBkPSJNOTMuMDIyLDExMjkuMzM0Yy0yLjUzOS0wLjQ4LTMuMzA4LTEuNTQxLTIuMDktMS45MzJjLTEyLjg2OC00MC4xMzUtMjMuMDU5LTgxLjEzOS0zMC40NzctMTIyLjYyOA0KCQkJCWMtMS4yNTIsMC4yMjQtMC41OCwwLjg3LDEuOTUxLDEuMTUxQzY5Ljg1OCwxMDQ3LjY4Nyw4MC4wOTUsMTA4OC45NTIsOTMuMDIyLDExMjkuMzM0eiIvPg0KCQkJPHBhdGggZD0iTTExNi41ODgsMTEzMS42MDVjLTguOTYxLTAuNTc1LTE2LjExNC0xLjE0NC0yMS40MTYtMS45MTdjLTEyLjkxMi00MC40MjgtMjMuMTM3LTgxLjc0MS0zMC41ODItMTIzLjU1Mg0KCQkJCWM1LjQyNSwwLjQ2MywxMi43NDUsMC44LDIxLjk0MywxLjE0M0M5My44NDksMTA0OS4zNTQsMTAzLjg5NiwxMDkwLjkyMiwxMTYuNTg4LDExMzEuNjA1eiIvPg0KCQkJPHBhdGggZD0iTTE2Mi45MiwxMTMzLjgwNGMtMTUuMzI2LTAuNTcxLTI4Ljg3OC0xLjE3MS00MC42MzQtMS44NTJjLTEyLjYyNi00MC43My0yMi42MTktODIuMzQ1LTI5Ljg5Ni0xMjQuNDY3DQoJCQkJYzEyLjA5NiwwLjQwNiwyNi4wNSwwLjc2NCw0MS44NDMsMS4xMDRDMTQxLjIxNCwxMDUwLjk1OSwxNTAuOCwxMDkyLjgxNywxNjIuOTIsMTEzMy44MDR6Ii8+DQoJCQk8cGF0aCBkPSJNMjMxLjI5MywxMTM1Ljg3Yy0yMS40MjItMC41MzctNDEuMTY1LTEuMTA4LTU5LjE5Ni0xLjczNmMtMTIuMDAxLTQxLjAzNC0yMS40OTEtODIuOTM1LTI4LjQwMy0xMjUuMzQ4DQoJCQkJYzE4LjU5NywwLjM3NCwzOC45NywwLjcxNSw2MS4wODQsMS4wMzZDMjExLjIyOCwxMDUyLjQ2LDIyMC4wODIsMTA5NC41ODUsMjMxLjI5MywxMTM1Ljg3eiIvPg0KCQkJPHBhdGggZD0iTTMyMC4zMDgsMTEzNy43NDRjLTI3LjA1Ni0wLjQ4Mi01Mi41ODItMS4wMDItNzYuNTMxLTEuNTdjLTExLjA0MS00MS4zMy0xOS43NTctODMuNDkzLTI2LjEwOC0xMjYuMTcxDQoJCQkJYzI0LjczNiwwLjMzOSw1MS4xMDksMC42NDksNzkuMDcsMC45MzdDMzAyLjQ3LDEwNTMuODE2LDMxMC4zMzMsMTA5Ni4xNzgsMzIwLjMwOCwxMTM3Ljc0NHoiLz4NCgkJCTxwYXRoIGQ9Ik00MjcuODksMTEzOS4zNzFjLTMyLjAzNy0wLjQxLTYyLjc0Ny0wLjg2MS05Mi4wNjgtMS4zNTdjLTkuNzU2LTQxLjYwOC0xNy40NDQtODQuMDA0LTIzLjA0Ny0xMjYuOTEyDQoJCQkJYzMwLjMxMywwLjI5Nyw2Mi4wNywwLjU2NSw5NS4yMDQsMC44MTFDNDEyLjgxNywxMDU0Ljk4Nyw0MTkuNDU0LDEwOTcuNTUxLDQyNy44OSwxMTM5LjM3MXoiLz4NCgkJCTxwYXRoIGQ9Ik01NTEuMzE3LDExNDAuNzAxYy0zNi4xOS0wLjMyNC03MS4zMDMtMC42OTEtMTA1LjI2NS0xLjEwM2MtOC4xNzMtNDEuODU2LTE0LjYtODQuNDQ4LTE5LjI4Ni0xMjcuNTUNCgkJCQljMzUuMTM1LDAuMjQ3LDcxLjQ2NiwwLjQ2NSwxMDguOTE3LDAuNjU5QzUzOS40OCwxMDU1Ljk0LDU0NC42ODYsMTA5OC42NjcsNTUxLjMxNywxMTQwLjcwMXoiLz4NCgkJCTxwYXRoIGQ9Ik02ODcuMjg3LDExNDEuNjkyYy0zOS4zNTktMC4yMjYtNzcuOTMzLTAuNDk3LTExNS42MzUtMC44MTRjLTYuMzMtNDIuMDYzLTExLjI5OS04NC44MTEtMTQuOTIzLTEyOC4wNjUNCgkJCQljMzkuMDI0LDAuMTksNzguOTUzLDAuMzUyLDExOS43LDAuNDg3QzY3OS4wNjUsMTA1Ni42NDksNjgyLjY3OCwxMDk5LjQ5Myw2ODcuMjg3LDExNDEuNjkyeiIvPg0KCQkJPHBhdGggZD0iTTgzMi4wMjIsMTE0Mi4zMTJjLTQxLjQyMy0wLjEyLTgyLjM4Mi0wLjI4Ni0xMjIuNzg0LTAuNWMtNC4yODEtNDIuMjE5LTcuNjM1LTg1LjA3OC0xMC4wODMtMTI4LjQ0Mg0KCQkJCWM0MS44MzIsMC4xMjgsODQuMjQzLDAuMjI3LDEyNy4xMzcsMC4yOTlDODI3LjY4MiwxMDU3LjA5MSw4MjkuNTg4LDExMDAuMDA5LDgzMi4wMjIsMTE0Mi4zMTJ6Ii8+DQoJCQk8cGF0aCBkPSJNOTgxLjM5OSwxMTQyLjU0MmMtNDIuMy0wLjAwOS04NC40NzYtMC4wNjUtMTI2LjQzMS0wLjE2OGMtMi4wODgtNDIuMzE0LTMuNzIyLTg1LjIzOS00LjkxNS0xMjguNjY3DQoJCQkJYzQzLjQ0OCwwLjA2Miw4Ny4xMjUsMC4wOTUsMTMwLjkzMSwwLjEwMUM5ODEuMDg1LDEwNTcuMjU1LDk4MS4yMjMsMTEwMC4xOTksOTgxLjM5OSwxMTQyLjU0MnoiLz4NCgkJCTxwYXRoIGQ9Ik0xMTMxLjExNCwxMTQyLjM3NGMtNDEuOTU1LDAuMTA0LTg0LjEzMSwwLjE2LTEyNi40MzEsMC4xNjhjMC4xNzYtNDIuMzQzLDAuMzE0LTg1LjI4NywwLjQxNS0xMjguNzM1DQoJCQkJYzQzLjgwNy0wLjAwNSw4Ny40ODQtMC4wMzksMTMwLjkzMi0wLjEwMUMxMTM0LjgzNiwxMDU3LjEzNSwxMTMzLjIwMSwxMTAwLjA2LDExMzEuMTE0LDExNDIuMzc0eiIvPg0KCQkJPHBhdGggZD0iTTEyNzYuODQ0LDExNDEuODEzYy00MC40MDIsMC4yMTQtODEuMzYxLDAuMzgtMTIyLjc4NCwwLjVjMi40MzQtNDIuMzA0LDQuMzQtODUuMjIxLDUuNzMtMTI4LjY0Mw0KCQkJCWM0Mi44OTQtMC4wNzIsODUuMzA1LTAuMTcxLDEyNy4xMzctMC4yOTlDMTI4NC40NzksMTA1Ni43MzUsMTI4MS4xMjUsMTA5OS41OTQsMTI3Ni44NDQsMTE0MS44MTN6Ii8+DQoJCQk8cGF0aCBkPSJNMTQxNC40MywxMTQwLjg3N2MtMzcuNzAyLDAuMzE4LTc2LjI3NiwwLjU4OC0xMTUuNjM1LDAuODE0YzQuNjA5LTQyLjE5OSw4LjIyMi04NS4wNDMsMTAuODU4LTEyOC4zOTMNCgkJCQljNDAuNzQ3LTAuMTM1LDgwLjY3Ni0wLjI5NywxMTkuNy0wLjQ4N0MxNDI1LjcyOSwxMDU2LjA2NywxNDIwLjc2LDEwOTguODE0LDE0MTQuNDMsMTE0MC44Nzd6Ii8+DQoJCQk8cGF0aCBkPSJNMTU0MC4wMjksMTEzOS41OThjLTMzLjk2MSwwLjQxMy02OS4wNzUsMC43NzktMTA1LjI2NSwxLjEwM2M2LjYzLTQyLjAzNCwxMS44MzctODQuNzYsMTUuNjM0LTEyNy45OTQNCgkJCQljMzcuNDUxLTAuMTk0LDczLjc4Mi0wLjQxMiwxMDguOTE3LTAuNjU5QzE1NTQuNjI5LDEwNTUuMTUsMTU0OC4yMDIsMTA5Ny43NDIsMTU0MC4wMjksMTEzOS41OTh6Ii8+DQoJCQk8cGF0aCBkPSJNMTY1MC4yNiwxMTM4LjAxNGMtMjkuMzIxLDAuNDk3LTYwLjAzMSwwLjk0Ny05Mi4wNjgsMS4zNTdjOC40MzYtNDEuODIsMTUuMDczLTg0LjM4NCwxOS45MTEtMTI3LjQ1OQ0KCQkJCWMzMy4xMzUtMC4yNDUsNjQuODkxLTAuNTE0LDk1LjIwNC0wLjgxMUMxNjY3LjcwMywxMDU0LjAxLDE2NjAuMDE2LDEwOTYuNDA2LDE2NTAuMjYsMTEzOC4wMTR6Ii8+DQoJCQk8cGF0aCBkPSJNMTc0Mi4zMDQsMTEzNi4xNzRjLTIzLjk0OSwwLjU2OC00OS40NzUsMS4wODctNzYuNTMxLDEuNTdjOS45NzUtNDEuNTY2LDE3LjgzOS04My45MjgsMjMuNTY5LTEyNi44MDMNCgkJCQljMjcuOTYtMC4yODgsNTQuMzMzLTAuNTk4LDc5LjA3LTAuOTM3QzE3NjIuMDYxLDEwNTIuNjgxLDE3NTMuMzQ1LDEwOTQuODQ0LDE3NDIuMzA0LDExMzYuMTc0eiIvPg0KCQkJPHBhdGggZD0iTTE4MTMuOTg0LDExMzQuMTM0Yy0xOC4wMywwLjYyNy0zNy43NzMsMS4xOTktNTkuMTk2LDEuNzM2YzExLjIxMS00MS4yODUsMjAuMDY1LTgzLjQxLDI2LjUxNS0xMjYuMDQ4DQoJCQkJYzIyLjExNC0wLjMyLDQyLjQ4Ni0wLjY2MSw2MS4wODQtMS4wMzZDMTgzNS40NzUsMTA1MS4yLDE4MjUuOTg1LDEwOTMuMSwxODEzLjk4NCwxMTM0LjEzNHoiLz4NCgkJCTxwYXRoIGQ9Ik0xODYzLjc5NSwxMTMxLjk1MmMtMTEuNzU1LDAuNjgxLTI1LjMwNywxLjI4MS00MC42MzQsMS44NTJjMTIuMTItNDAuOTg3LDIxLjcwNi04Mi44NDUsMjguNjg3LTEyNS4yMTQNCgkJCQljMTUuNzkzLTAuMzQsMjkuNzQ3LTAuNjk4LDQxLjg0My0xLjEwNEMxODg2LjQxNCwxMDQ5LjYwNywxODc2LjQyMSwxMDkxLjIyMiwxODYzLjc5NSwxMTMxLjk1MnoiLz4NCgkJCTxwYXRoIGQ9Ik0xODkwLjkxLDExMjkuNjg4Yy01LjMwMiwwLjc3My0xMi40NTUsMS4zNDItMjEuNDE2LDEuOTE3YzEyLjY5Mi00MC42ODMsMjIuNzM5LTgyLjI1MSwzMC4wNTUtMTI0LjMyNw0KCQkJCWM5LjE5Ny0wLjM0MiwxNi41MTctMC42OCwyMS45NDMtMS4xNDNDMTkxNC4wNDcsMTA0Ny45NDcsMTkwMy44MjEsMTA4OS4yNiwxODkwLjkxLDExMjkuNjg4eiIvPg0KCQkJPHBhdGggZD0iTTE4OTUuMTUsMTEyNy40MDJjMS4yMTgsMC4zOTEsMC40NDksMS40NTItMi4wOSwxLjkzMmMxMi45MjYtNDAuMzgyLDIzLjE2NC04MS42NDcsMzAuNjE3LTEyMy40MDkNCgkJCQljMi41MzEtMC4yODEsMy4yMDMtMC45MjcsMS45NTEtMS4xNTFDMTkxOC4yMDksMTA0Ni4yNjMsMTkwOC4wMTgsMTA4Ny4yNjcsMTg5NS4xNSwxMTI3LjQwMnoiLz4NCgkJCTxwYXRoIGQ9Ik0xNTEuODk3LDEyNzIuMTQ1Yy0yLjUyOC0wLjY4Ni0zLjQ1Ny0yLjEwOS0yLjMxOS0yLjY5MmMtMTkuMTg4LTM3LjUyNi0zNS44NzUtNzYuMzQzLTQ5LjkwMy0xMTYuMDg3DQoJCQkJYy0xLjIwNywwLjQyNy0wLjQxMiwxLjU2NCwyLjEyNywyLjA4NUMxMTUuODg3LDExOTUuNDE4LDEzMi42MzgsMTIzNC40MzgsMTUxLjg5NywxMjcyLjE0NXoiLz4NCgkJCTxwYXRoIGQ9Ik0xNzQuMzQsMTI3NS4zMDdjLTguNDkzLTAuODAxLTE1LjMwOC0xLjYwMS0yMC4zNjYtMi42NjljLTE5LjIzNS0zNy43NDItMzUuOTY0LTc2Ljc5OS01MC4wMzItMTE2LjgwNQ0KCQkJCWM1LjI2NywwLjgzMywxMi4zNzEsMS40NDgsMjEuMjYzLDIuMDY5QzEzOS4wMTgsMTE5OC4xMTYsMTU1LjQ0NSwxMjM3LjM3MiwxNzQuMzQsMTI3NS4zMDd6Ii8+DQoJCQk8cGF0aCBkPSJNMjE4LjAwMSwxMjc4LjM2NmMtMTQuNDE5LTAuNzk0LTI3LjE4Ni0xLjYyOS0zOC4yNzUtMi41NzVjLTE4Ljc5NC0zNy45NzEtMzUuMTMxLTc3LjI2My00OC44NjktMTE3LjUxNA0KCQkJCWMxMS42NTcsMC43MzQsMjUuMDkzLDEuMzgyLDQwLjI4NSwxLjk5OEMxODQuMzA5LDEyMDAuNzEyLDE5OS45NjksMTI0MC4xOTQsMjE4LjAwMSwxMjc4LjM2NnoiLz4NCgkJCTxwYXRoIGQ9Ik0yODIuMTY3LDEyODEuMjM2Yy0yMC4wODUtMC43NDYtMzguNjEtMS41NC01NS41NC0yLjQxMWMtMTcuODU0LTM4LjIwOS0zMy4zNTUtNzcuNzI0LTQ2LjM5LTExOC4xOTQNCgkJCQljMTcuODY3LDAuNjc3LDM3LjQyOSwxLjI5Myw1OC42NTIsMS44NzJDMjUxLjA0MSwxMjAzLjEzNywyNjUuNDk1LDEyNDIuODI0LDI4Mi4xNjcsMTI4MS4yMzZ6Ii8+DQoJCQk8cGF0aCBkPSJNMzY1LjUwMSwxMjgzLjgzOGMtMjUuMzEzLTAuNjY5LTQ5LjIwNi0xLjM5MS03MS42MzYtMi4xNzljLTE2LjQxOC0zOC40NDktMzAuNjQ2LTc4LjE2Ni00Mi42MDgtMTE4LjgyOA0KCQkJCWMyMy43MjMsMC42MTMsNDkuMDA2LDEuMTczLDc1LjgwMiwxLjY5M0MzMzcuODQyLDEyMDUuMzIyLDM1MC42NywxMjQ1LjE5MSwzNjUuNTAxLDEyODMuODM4eiIvPg0KCQkJPHBhdGggZD0iTTQ2Ni4wNDgsMTI4Ni4wOTVjLTI5LjkyOC0wLjU2OS01OC42MjctMS4xOTQtODYuMDM5LTEuODgzYy0xNC41MDUtMzguNjgyLTI3LjA0Ni03OC41NzctMzcuNTg3LTExOS4zOTcNCgkJCQljMjkuMDM2LDAuNTM2LDU5LjQ0NywxLjAyMSw5MS4xNjksMS40NjRDNDQyLjY4NSwxMjA3LjIwNiw0NTMuNTA1LDEyNDcuMjI4LDQ2Ni4wNDgsMTI4Ni4wOTV6Ii8+DQoJCQk8cGF0aCBkPSJNNTgxLjI2NCwxMjg3LjkzOGMtMzMuNzcxLTAuNDQ5LTY2LjU0NS0wLjk1Ny05OC4yNTQtMS41MjljLTEyLjE1Mi0zOC44OTktMjIuNjMtNzguOTQxLTMxLjQzNS0xMTkuODg2DQoJCQkJYzMzLjYyNSwwLjQ0NSw2OC4zODksMC44NCwxMDQuMjE4LDEuMTlDNTYyLjkyMSwxMjA4LjczNyw1NzEuNDAzLDEyNDguODc4LDU4MS4yNjQsMTI4Ny45Mzh6Ii8+DQoJCQk8cGF0aCBkPSJNNzA4LjA3OSwxMjg5LjMxMWMtMzYuNy0wLjMxMy03Mi42NzQtMC42ODgtMTA3Ljg0My0xLjEyOGMtOS40MTUtMzkuMDg3LTE3LjUxLTc5LjI0My0yNC4zMTItMTIwLjI4DQoJCQkJYzM3LjMyNCwwLjM0Miw3NS41MDksMC42MzQsMTE0LjQ3MSwwLjg3OEM2OTUuMzM5LDEyMDkuODcyLDcwMS4yMjIsMTI1MC4wOTcsNzA4LjA3OSwxMjg5LjMxMXoiLz4NCgkJCTxwYXRoIGQ9Ik04NDIuOTkyLDEyOTAuMTcxYy0zOC42MDctMC4xNjYtNzYuNzg1LTAuMzk2LTExNC40NDgtMC42OTJjLTYuMzY4LTM5LjIzNC0xMS44MzEtNzkuNDY5LTE2LjQyLTEyMC41NjgNCgkJCQljMzkuOTkzLDAuMjMsODAuNTM2LDAuNDA5LDEyMS41MzgsMC41MzhDODM2LjI2OCwxMjEwLjU3OSw4MzkuMzcxLDEyNTAuODU1LDg0Mi45OTIsMTI5MC4xNzF6Ii8+DQoJCQk8cGF0aCBkPSJNOTgyLjE5MywxMjkwLjQ4OWMtMzkuNDE2LTAuMDEyLTc4LjcxOC0wLjA5LTExNy44MTYtMC4yMzNjLTMuMTA3LTM5LjMyNi01Ljc2Ny03OS42MDYtOC4wMDItMTIwLjc0DQoJCQkJYzQxLjUyOCwwLjExMiw4My4yNzQsMC4xNzIsMTI1LjE0MywwLjE4MUM5ODEuNzA3LDEyMTAuODQxLDk4MS45MzEsMTI1MS4xMzQsOTgyLjE5MywxMjkwLjQ4OXoiLz4NCgkJCTxwYXRoIGQ9Ik0xMTIxLjcwNSwxMjkwLjI1NmMtMzkuMDk4LDAuMTQzLTc4LjQsMC4yMjEtMTE3LjgxNiwwLjIzM2MwLjI2Mi0zOS4zNTQsMC40ODctNzkuNjQ4LDAuNjc1LTEyMC43OTENCgkJCQljNDEuODY5LTAuMDA5LDgzLjYxNS0wLjA3LDEyNS4xNDMtMC4xODFDMTEyNy40NzEsMTIxMC42NDksMTEyNC44MTEsMTI1MC45MywxMTIxLjcwNSwxMjkwLjI1NnoiLz4NCgkJCTxwYXRoIGQ9Ik0xMjU3LjUzNywxMjg5LjQ3OWMtMzcuNjYzLDAuMjk2LTc1Ljg0MSwwLjUyNi0xMTQuNDQ4LDAuNjkyYzMuNjIyLTM5LjMxNiw2LjcyNC03OS41OTEsOS4zMy0xMjAuNzIxDQoJCQkJYzQxLjAwMi0wLjEyOSw4MS41NDYtMC4zMDgsMTIxLjUzOC0wLjUzOEMxMjY5LjM2OCwxMjEwLjAxLDEyNjMuOTA2LDEyNTAuMjQ1LDEyNTcuNTM3LDEyODkuNDc5eiIvPg0KCQkJPHBhdGggZD0iTTEzODUuODQ2LDEyODguMTgzYy0zNS4xNjksMC40NC03MS4xNDMsMC44MTUtMTA3Ljg0MywxLjEyOGM2Ljg1Ny0zOS4yMTQsMTIuNzQtNzkuNDM5LDE3LjY4NC0xMjAuNTMNCgkJCQljMzguOTYyLTAuMjQ0LDc3LjE0Ny0wLjUzNiwxMTQuNDcxLTAuODc4QzE0MDMuMzU1LDEyMDguOTQsMTM5NS4yNiwxMjQ5LjA5NSwxMzg1Ljg0NiwxMjg4LjE4M3oiLz4NCgkJCTxwYXRoIGQ9Ik0xNTAzLjA3MiwxMjg2LjQwOWMtMzEuNzA5LDAuNTcyLTY0LjQ4NCwxLjA4LTk4LjI1NCwxLjUyOWM5Ljg2MS0zOS4wNiwxOC4zNDQtNzkuMjAxLDI1LjQ3MS0xMjAuMjI2DQoJCQkJYzM1LjgyOS0wLjM0OSw3MC41OTMtMC43NDUsMTA0LjIxOC0xLjE5QzE1MjUuNzAxLDEyMDcuNDY4LDE1MTUuMjI0LDEyNDcuNTEsMTUwMy4wNzIsMTI4Ni40MDl6Ii8+DQoJCQk8cGF0aCBkPSJNMTYwNi4wNzIsMTI4NC4yMTJjLTI3LjQxMSwwLjY4OS01Ni4xMSwxLjMxMy04Ni4wMzksMS44ODNjMTIuNTQ0LTM4Ljg2NywyMy4zNjMtNzguODg5LDMyLjQ1Ni0xMTkuODE2DQoJCQkJYzMxLjcyMy0wLjQ0Myw2Mi4xMzMtMC45MjgsOTEuMTY5LTEuNDY0QzE2MzMuMTE4LDEyMDUuNjM1LDE2MjAuNTc3LDEyNDUuNTMsMTYwNi4wNzIsMTI4NC4yMTJ6Ii8+DQoJCQk8cGF0aCBkPSJNMTY5Mi4yMTYsMTI4MS42NTljLTIyLjQyOSwwLjc4OS00Ni4zMjMsMS41MS03MS42MzYsMi4xNzljMTQuODMyLTM4LjY0NywyNy42NTktNzguNTE2LDM4LjQ0Mi0xMTkuMzE0DQoJCQkJYzI2Ljc5Ni0wLjUyLDUyLjA3OS0xLjA4LDc1LjgwMi0xLjY5M0MxNzIyLjg2MywxMjAzLjQ5MiwxNzA4LjYzNCwxMjQzLjIxLDE2OTIuMjE2LDEyODEuNjU5eiIvPg0KCQkJPHBhdGggZD0iTTE3NTkuNDU1LDEyNzguODI1Yy0xNi45MzEsMC44NzItMzUuNDU1LDEuNjY1LTU1LjU0LDIuNDExYzE2LjY3My0zOC40MTIsMzEuMTI2LTc4LjEsNDMuMjc4LTExOC43MzQNCgkJCQljMjEuMjIzLTAuNTc5LDQwLjc4Ni0xLjE5NSw1OC42NTItMS44NzJDMTc5Mi44MSwxMjAxLjEwMSwxNzc3LjMwOSwxMjQwLjYxNiwxNzU5LjQ1NSwxMjc4LjgyNXoiLz4NCgkJCTxwYXRoIGQ9Ik0xODA2LjM1NiwxMjc1Ljc5Yy0xMS4wODksMC45NDYtMjMuODU3LDEuNzgxLTM4LjI3NSwyLjU3NWMxOC4wMzItMzguMTcyLDMzLjY5Mi03Ny42NTMsNDYuODYtMTE4LjA5Mg0KCQkJCWMxNS4xOTItMC42MTYsMjguNjI4LTEuMjYzLDQwLjI4NS0xLjk5OEMxODQxLjQ4NiwxMTk4LjUyNywxODI1LjE1LDEyMzcuODE5LDE4MDYuMzU2LDEyNzUuNzl6Ii8+DQoJCQk8cGF0aCBkPSJNMTgzMi4xMDgsMTI3Mi42MzljLTUuMDU4LDEuMDY4LTExLjg3MywxLjg2OC0yMC4zNjYsMi42NjljMTguODk1LTM3LjkzNSwzNS4zMjItNzcuMTkyLDQ5LjEzNS0xMTcuNDA2DQoJCQkJYzguODkyLTAuNjIsMTUuOTk2LTEuMjM1LDIxLjI2My0yLjA2OUMxODY4LjA3MiwxMTk1Ljg0LDE4NTEuMzQzLDEyMzQuODk3LDE4MzIuMTA4LDEyNzIuNjM5eiIvPg0KCQkJPHBhdGggZD0iTTE4MzYuNTA0LDEyNjkuNDUzYzEuMTM4LDAuNTgzLDAuMjA5LDIuMDA2LTIuMzE5LDIuNjkyYzE5LjI1OS0zNy43MDcsMzYuMDEtNzYuNzI4LDUwLjA5NS0xMTYuNjk0DQoJCQkJYzIuNTQtMC41MjEsMy4zMzQtMS42NTgsMi4xMjctMi4wODVDMTg3Mi4zNzgsMTE5My4xMSwxODU1LjY5MiwxMjMxLjkyNywxODM2LjUwNCwxMjY5LjQ1M3oiLz4NCgkJCTxwYXRoIGQ9Ik0yMzIuOTcyLDE0MDMuMzIzYy0yLjQ2NS0wLjgyOS0zLjU1OS0yLjQyNy0yLjU1Mi0zLjE3Yy0yNS4wMDMtMzMuOTMtNDcuNzQ2LTY5LjUzOC02OC4wMTYtMTA2LjQ5MQ0KCQkJCWMtMS4xMTgsMC42MTQtMC4xNTksMi4wODMsMi4zNjMsMi44QzE4NS4wOTgsMTMzMy41NjQsMjA3LjkwNSwxMzY5LjI5NywyMzIuOTcyLDE0MDMuMzIzeiIvPg0KCQkJPHBhdGggZD0iTTI1My43NywxNDA3LjA0MmMtNy44Mi0wLjk0NC0xNC4xMzYtMS44OTQtMTguODM5LTMuMTM4Yy0yNS4wMy0zNC4wNDUtNDcuODA0LTY5LjgtNjguMTA2LTEwNi45MjgNCgkJCQljNS4wMDMsMS4xMDksMTEuNzQyLDEuOTQxLDIwLjEzLDIuNzc1QzIwNi44NywxMzM3LjAxLDIyOS4yMDksMTM3Mi44ODYsMjUzLjc3LDE0MDcuMDQyeiIvPg0KCQkJPHBhdGggZD0iTTI5My42NzEsMTQxMC42MzJjLTEzLjE0Ni0wLjkzMy0yNC44MDktMS45MTQtMzQuOTU4LTMuMDI0Yy0yNC40MjYtMzQuMTc2LTQ2LjYzOS03MC4wNzUtNjYuNDQtMTA3LjM1Nw0KCQkJCWMxMC45NDIsMC45ODMsMjMuNTM2LDEuODUyLDM3Ljc1NCwyLjY3N0MyNDguOTg0LDEzNDAuMzIxLDI3MC4yNTUsMTM3Ni4zMzUsMjkzLjY3MSwxNDEwLjYzMnoiLz4NCgkJCTxwYXRoIGQ9Ik0zNTEuOTgsMTQxMy45OTljLTE4LjIyOC0wLjg3NS0zNS4wNTgtMS44MDYtNTAuNDU2LTIuODI4Yy0yMy4xOC0zNC4zMjEtNDQuMjMzLTcwLjM1NS02Mi45OTQtMTA3Ljc2NQ0KCQkJCWMxNi42ODksMC45MDYsMzQuOTQ2LDEuNzMxLDU0LjczNywyLjUwNkMzMTAuNzM2LDEzNDMuNDA3LDMzMC4zNDksMTM3OS41NDYsMzUxLjk4LDE0MTMuOTk5eiIvPg0KCQkJPHBhdGggZD0iTTQyNy40NTYsMTQxNy4wNDZjLTIyLjkwNS0wLjc4NC00NC41NDItMS42MjktNjQuODY4LTIuNTUyYy0yMS4yOTktMzQuNDc4LTQwLjYwMy03MC42MzUtNTcuNzk1LTEwOC4xNDINCgkJCQljMjIuMDk2LDAuODE5LDQ1LjYzMywxLjU2OSw3MC41NjQsMi4yNjRDMzkwLjgzNCwxMzQ2LjE4Myw0MDguMjI0LDEzODIuNDMsNDI3LjQ1NiwxNDE3LjA0NnoiLz4NCgkJCTxwYXRoIGQ9Ik01MTguMzE0LDE0MTkuNjg3Yy0yNy4wMjYtMC42NjYtNTIuOTU2LTEuMzk3LTc3LjczNi0yLjIwM2MtMTguODA4LTM0LjY0Mi0zNS44MDYtNzAuOTA0LTUwLjkzMi0xMDguNDc5DQoJCQkJYzI2Ljk5NCwwLjcxNiw1NS4yNTMsMS4zNjUsODQuNzIxLDEuOTU2QzQ4Ny4zOTcsMTM0OC41Nyw1MDIuMDUxLDEzODQuOTAzLDUxOC4zMTQsMTQxOS42ODd6Ii8+DQoJCQk8cGF0aCBkPSJNNjIyLjI1NCwxNDIxLjg0MWMtMzAuNDUxLTAuNTI1LTYwLjAxNS0xLjExOS04OC42MjktMS43ODdjLTE1Ljc1Ni0zNC44MDktMjkuOTQ0LTcxLjE1My00Mi41NTktMTA4Ljc2Nw0KCQkJCWMzMS4yMTcsMC41OTQsNjMuNDgxLDEuMTIyLDk2LjcyNCwxLjU4OUM1OTcuOTg5LDEzNTAuNTAyLDYwOS40NjYsMTM4Ni44OTcsNjIyLjI1NCwxNDIxLjg0MXoiLz4NCgkJCTxwYXRoIGQ9Ik03MzYuNTIzLDE0MjMuNDQ1Yy0zMy4wNTktMC4zNjYtNjUuNDcxLTAuODA0LTk3LjE2Ny0xLjMxOGMtMTIuMjEtMzQuOTY3LTIzLjE2MS03MS4zNy0zMi44OTItMTA4Ljk5OA0KCQkJCWMzNC42MTYsMC40NTcsNzAuMDI0LDAuODQ2LDEwNi4xNDQsMS4xNzJDNzE5LjY3MywxMzUxLjkyOSw3MjcuNjI3LDEzODguMzYyLDczNi41MjMsMTQyMy40NDV6Ii8+DQoJCQk8cGF0aCBkPSJNODU3Ljk5NSwxNDI0LjQ0OWMtMzQuNzU0LTAuMTk0LTY5LjEyNi0wLjQ2Mi0xMDMuMDQxLTAuODA4Yy04LjI2My0zNS4xMDEtMTUuNjQ3LTcxLjUzOC0yMi4yMDUtMTA5LjE2NQ0KCQkJCWMzNy4wNjcsMC4zMDcsNzQuNjM5LDAuNTQ2LDExMi42MzIsMC43MThDODQ5LjEwMywxMzUyLjgxNiw4NTMuMjk0LDEzODkuMjY4LDg1Ny45OTUsMTQyNC40NDl6Ii8+DQoJCQk8cGF0aCBkPSJNOTgzLjI3OSwxNDI0LjgyYy0zNS40NzMtMC4wMTQtNzAuODQ0LTAuMTA1LTEwNi4wMzQtMC4yNzJjLTQuMDMzLTM1LjE5MS03LjYyNy03MS42NDUtMTAuODE4LTEwOS4yNjYNCgkJCQljMzguNDc1LDAuMTQ5LDc3LjE1MSwwLjIyOSwxMTUuOTQsMC4yNDJDOTgyLjYzNSwxMzUzLjE0Myw5ODIuOTM4LDEzODkuNjAxLDk4My4yNzksMTQyNC44MnoiLz4NCgkJCTxwYXRoIGQ9Ik0xMTA4LjgzNywxNDI0LjU0OGMtMzUuMTksMC4xNjctNzAuNTYxLDAuMjU4LTEwNi4wMzQsMC4yNzJjMC4zNC0zNS4yMiwwLjY0My03MS42NzcsMC45MTItMTA5LjI5Ng0KCQkJCWMzOC43ODgtMC4wMTMsNzcuNDY0LTAuMDkzLDExNS45NC0wLjI0MkMxMTE2LjQ2NCwxMzUyLjkwNCwxMTEyLjg3LDEzODkuMzU3LDExMDguODM3LDE0MjQuNTQ4eiIvPg0KCQkJPHBhdGggZD0iTTEyMzEuMTI3LDE0MjMuNjQxYy0zMy45MTUsMC4zNDUtNjguMjg4LDAuNjE0LTEwMy4wNDEsMC44MDhjNC43MDEtMzUuMTgxLDguODkyLTcxLjYzMywxMi42MTQtMTA5LjI1NQ0KCQkJCWMzNy45OTMtMC4xNzIsNzUuNTY1LTAuNDExLDExMi42MzItMC43MThDMTI0Ni43NzQsMTM1Mi4xMDMsMTIzOS4zOSwxMzg4LjU0LDEyMzEuMTI3LDE0MjMuNjQxeiIvPg0KCQkJPHBhdGggZD0iTTEzNDYuNzI1LDE0MjIuMTI3Yy0zMS42OTYsMC41MTQtNjQuMTA4LDAuOTUyLTk3LjE2NywxLjMxOGM4Ljg5Ni0zNS4wODMsMTYuODUtNzEuNTE2LDIzLjkxNS0xMDkuMTQ0DQoJCQkJYzM2LjEyMS0wLjMyNSw3MS41MjgtMC43MTUsMTA2LjE0NC0xLjE3MkMxMzY5Ljg4NiwxMzUwLjc1OCwxMzU4LjkzNSwxMzg3LjE2LDEzNDYuNzI1LDE0MjIuMTI3eiIvPg0KCQkJPHBhdGggZD0iTTE0NTIuNDU3LDE0MjAuMDU0Yy0yOC42MTQsMC42NjktNTguMTc4LDEuMjYyLTg4LjYyOSwxLjc4N2MxMi43ODgtMzQuOTQ0LDI0LjI2NS03MS4zMzksMzQuNDY0LTEwOC45NjYNCgkJCQljMzMuMjQzLTAuNDY3LDY1LjUwNy0wLjk5NCw5Ni43MjQtMS41ODlDMTQ4Mi40LDEzNDguOTAxLDE0NjguMjEyLDEzODUuMjQ1LDE0NTIuNDU3LDE0MjAuMDU0eiIvPg0KCQkJPHBhdGggZD0iTTE1NDUuNTA0LDE0MTcuNDg0Yy0yNC43OCwwLjgwNi01MC43MDksMS41MzctNzcuNzM2LDIuMjAzYzE2LjI2My0zNC43ODMsMzAuOTE2LTcxLjExNyw0My45NDctMTA4LjcyNg0KCQkJCWMyOS40NjctMC41OTEsNTcuNzI3LTEuMjQsODQuNzIxLTEuOTU2QzE1ODEuMzEsMTM0Ni41OCwxNTY0LjMxMiwxMzgyLjg0MiwxNTQ1LjUwNCwxNDE3LjQ4NHoiLz4NCgkJCTxwYXRoIGQ9Ik0xNjIzLjQ5MywxNDE0LjQ5NGMtMjAuMzI1LDAuOTIzLTQxLjk2MiwxLjc2OC02NC44NjgsMi41NTJjMTkuMjMyLTM0LjYxNiwzNi42MjItNzAuODYzLDUyLjA5OS0xMDguNDMNCgkJCQljMjQuOTMxLTAuNjk2LDQ4LjQ2Ny0xLjQ0NSw3MC41NjQtMi4yNjRDMTY2NC4wOTcsMTM0My44NTksMTY0NC43OTIsMTM4MC4wMTcsMTYyMy40OTMsMTQxNC40OTR6Ii8+DQoJCQk8cGF0aCBkPSJNMTY4NC41NTcsMTQxMS4xNzFjLTE1LjM5OCwxLjAyMi0zMi4yMjgsMS45NTMtNTAuNDU2LDIuODI4YzIxLjYzMS0zNC40NTMsNDEuMjQ0LTcwLjU5Miw1OC43MTItMTA4LjA4Ng0KCQkJCWMxOS43OTEtMC43NzUsMzguMDQ4LTEuNiw1NC43MzctMi41MDZDMTcyOC43OTEsMTM0MC44MTYsMTcwNy43MzcsMTM3Ni44NSwxNjg0LjU1NywxNDExLjE3MXoiLz4NCgkJCTxwYXRoIGQ9Ik0xNzI3LjM2OSwxNDA3LjYwOWMtMTAuMTQ5LDEuMTA5LTIxLjgxMSwyLjA5MS0zNC45NTgsMy4wMjRjMjMuNDE1LTM0LjI5OCw0NC42ODctNzAuMzEyLDYzLjY0NC0xMDcuNzAzDQoJCQkJYzE0LjIxOS0wLjgyNiwyNi44MTMtMS42OTQsMzcuNzU0LTIuNjc3QzE3NzQuMDA4LDEzMzcuNTM0LDE3NTEuNzk1LDEzNzMuNDMyLDE3MjcuMzY5LDE0MDcuNjA5eiIvPg0KCQkJPHBhdGggZD0iTTE3NTEuMTUsMTQwMy45MDRjLTQuNzAzLDEuMjQ0LTExLjAxOSwyLjE5NC0xOC44MzksMy4xMzhjMjQuNTYyLTM0LjE1NSw0Ni45MDEtNzAuMDMyLDY2LjgxNS0xMDcuMjkxDQoJCQkJYzguMzg4LTAuODMzLDE1LjEyNy0xLjY2NiwyMC4xMy0yLjc3NUMxNzk4Ljk1NCwxMzM0LjEwMywxNzc2LjE4MSwxMzY5Ljg1OCwxNzUxLjE1LDE0MDMuOTA0eiIvPg0KCQkJPHBhdGggZD0iTTE3NTUuNjYxLDE0MDAuMTUzYzEuMDA3LDAuNzQzLTAuMDg3LDIuMzQxLTIuNTUyLDMuMTdjMjUuMDY3LTM0LjAyNiw0Ny44NzQtNjkuNzU5LDY4LjIwNS0xMDYuODYxDQoJCQkJYzIuNTIyLTAuNzE3LDMuNDgxLTIuMTg1LDIuMzYzLTIuOEMxODAzLjQwOCwxMzMwLjYxNSwxNzgwLjY2NSwxMzY2LjIyMywxNzU1LjY2MSwxNDAwLjE1M3oiLz4NCgkJCTxwYXRoIGQ9Ik0zMzQuMDM3LDE1MTkuMzc4Yy0yLjMyLTAuODg3LTMuNTMtMi40NjktMi43MDYtMy4zMTVjLTMwLjE2LTI5LjQ0MS01OC4zNjEtNjAuOTAzLTg0LjMzOS05NC4wOTINCgkJCQljLTAuOTc4LDAuNzY3LDAuMTQyLDIuMzc1LDIuNTg3LDMuMjIxQzI3NS42MDIsMTQ1OC40NDEsMzAzLjg0NCwxNDg5LjkzNiwzMzQuMDM3LDE1MTkuMzc4eiIvPg0KCQkJPHBhdGggZD0iTTM1Mi42MywxNTIzLjI2Yy02LjkzNi0wLjk4OC0xMi41NzgtMS45ODktMTYuODA1LTMuMjc2Yy0zMC4xNDEtMjkuNDQzLTU4LjMzNC02MC45NDQtODQuMzEzLTk0LjIwMw0KCQkJCWM0LjYyOCwxLjI2MiwxMC44MzcsMi4yMjgsMTguNTE1LDMuMTg4QzI5NS40NzUsMTQ2Mi4yNzEsMzIzLjA5NSwxNDkzLjgwMywzNTIuNjMsMTUyMy4yNnoiLz4NCgkJCTxwYXRoIGQ9Ik0zODcuNzA1LDE1MjcuMDAzYy0xMS41MjQtMC45NzMtMjEuNzcxLTEuOTk3LTMwLjcwOS0zLjE1MWMtMjkuMzY0LTI5LjQ2MS01Ni44MjItNjAuOTk5LTgyLjEyLTk0LjMwNw0KCQkJCWM5Ljk1MywxLjEyNiwyMS4zODYsMi4xMjQsMzQuMjY4LDMuMDcxQzMzMy4zMywxNDY1Ljk0NiwzNTkuNTkzLDE0OTcuNTE0LDM4Ny43MDUsMTUyNy4wMDN6Ii8+DQoJCQk8cGF0aCBkPSJNNDM4LjYxMywxNTMwLjUwN2MtMTUuODg5LTAuOTEtMzAuNTc3LTEuODc5LTQ0LjAzNC0yLjk0MmMtMjcuODI0LTI5LjQ5Ni01My44MTItNjEuMDY5LTc3Ljc0LTk0LjQwMg0KCQkJCWMxNS4wODEsMS4wMzcsMzEuNTYxLDEuOTgzLDQ5LjQwNywyLjg3MUMzODguNDkzLDE0NjkuMzY2LDQxMi42NzcsMTUwMC45NjYsNDM4LjYxMywxNTMwLjUwN3oiLz4NCgkJCTxwYXRoIGQ9Ik01MDQuMjM5LDE1MzMuNjczYy0xOS44OTQtMC44MTQtMzguNzAzLTEuNjkyLTU2LjM4OC0yLjY1MWMtMjUuNTMzLTI5LjU1MS00OS4zMzItNjEuMTU1LTcxLjIyMi05NC40ODUNCgkJCQljMTkuODkzLDAuOTM3LDQxLjA2NiwxLjc5NSw2My40NzgsMi41OUM0NTkuNzgzLDE0NzIuNDMzLDQ4MS4yLDE1MDQuMDU4LDUwNC4yMzksMTUzMy42NzN6Ii8+DQoJCQk8cGF0aCBkPSJNNTgzLjAxNiwxNTM2LjQxM2MtMjMuNDE0LTAuNjkxLTQ1Ljg5Mi0xLjQ0OS02Ny4zODctMi4yODVjLTIyLjUyOS0yOS42MjktNDMuNDU5LTYxLjI1Ny02Mi42ODQtOTQuNTU3DQoJCQkJYzI0LjI0LDAuODE4LDQ5LjYwMywxLjU1OSw3Ni4wMzUsMi4yMzVDNTQ1LjUxNSwxNDc1LjA2MSw1NjMuNTQsMTUwNi42OTksNTgzLjAxNiwxNTM2LjQxM3oiLz4NCgkJCTxwYXRoIGQ9Ik02NzIuOTUxLDE1MzguNjQ3Yy0yNi4zMzMtMC41NDQtNTEuOTEtMS4xNTktNzYuNjc3LTEuODUzYy0xOC44NjgtMjkuNzMxLTM2LjMxOC02MS4zNzEtNTIuMzIxLTk0LjYxNQ0KCQkJCWMyNy45ODEsMC42NzksNTYuODg4LDEuMjgxLDg2LjY2MSwxLjgxNEM2NDMuNTMxLDE0NzcuMTc2LDY1Ny42MzIsMTUwOC44MTQsNjcyLjk1MSwxNTM4LjY0N3oiLz4NCgkJCTxwYXRoIGQ9Ik03NzEuNjgsMTU0MC4zMDhjLTI4LjU1MS0wLjM3OS01Ni41NTMtMC44MzMtODMuOTQ0LTEuMzY1Yy0xNC42MjgtMjkuODUyLTI4LjA4MS02MS40ODktNDAuNC05NC42Ng0KCQkJCWMzMC45ODYsMC41MjEsNjIuNjcyLDAuOTY2LDk0Ljk4OCwxLjMzN0M3NTEuMjUzLDE0NzguNzI2LDc2MS4wMTMsMTUxMC4zNSw3NzEuNjgsMTU0MC4zMDh6Ii8+DQoJCQk8cGF0aCBkPSJNODc2LjUzMSwxNTQxLjM0NmMtMjkuOTkxLTAuMjAxLTU5LjY1OC0wLjQ3OS04OC45MzctMC44MzZjLTkuOTA5LTI5Ljk3Ni0xOC45NjgtNjEuNTk3LTI3LjI1NS05NC42OTINCgkJCQljMzMuMTUsMC4zNSw2Ni43NDcsMC42MjMsMTAwLjcxNSwwLjgxOUM4NjUuNzUxLDE0NzkuNjgyLDg3MC44ODgsMTUxMS4yODUsODc2LjUzMSwxNTQxLjM0NnoiLz4NCgkJCTxwYXRoIGQ9Ik05ODQuNjE5LDE1NDEuNzMxYy0zMC42MDItMC4wMTUtNjEuMTE3LTAuMTA4LTkxLjQ3OS0wLjI4MWMtNC44NDEtMzAuMDcyLTkuMjQ2LTYxLjY3My0xMy4yNzMtOTQuNzExDQoJCQkJYzM0LjM5MywwLjE3LDY4Ljk2MywwLjI2MiwxMDMuNjMzLDAuMjc2Qzk4My44MzksMTQ4MC4wMzIsOTg0LjIxLDE1MTEuNjI1LDk4NC42MTksMTU0MS43MzF6Ii8+DQoJCQk8cGF0aCBkPSJNMTA5Mi45NDEsMTU0MS40NDljLTMwLjM2MSwwLjE3My02MC44NzcsMC4yNjctOTEuNDc5LDAuMjgxYzAuNDA5LTMwLjEwNSwwLjc4LTYxLjY5OCwxLjExOS05NC43MTYNCgkJCQljMzQuNjY5LTAuMDE0LDY5LjIzOS0wLjEwNiwxMDMuNjMzLTAuMjc2QzExMDIuMTg3LDE0NzkuNzc2LDEwOTcuNzgzLDE1MTEuMzc3LDEwOTIuOTQxLDE1NDEuNDQ5eiIvPg0KCQkJPHBhdGggZD0iTTExOTguNDg3LDE1NDAuNTFjLTI5LjI3OCwwLjM1Ny01OC45NDYsMC42MzUtODguOTM3LDAuODM2YzUuNjQzLTMwLjA2MSwxMC43OC02MS42NjUsMTUuNDc3LTk0LjcwOQ0KCQkJCWMzMy45NjgtMC4xOTcsNjcuNTY0LTAuNDY5LDEwMC43MTUtMC44MTlDMTIxNy40NTUsMTQ3OC45MTMsMTIwOC4zOTcsMTUxMC41MzQsMTE5OC40ODcsMTU0MC41MXoiLz4NCgkJCTxwYXRoIGQ9Ik0xMjk4LjM0NiwxNTM4Ljk0M2MtMjcuMzkxLDAuNTMyLTU1LjM5MywwLjk4Ni04My45NDQsMS4zNjVjMTAuNjY3LTI5Ljk1OCwyMC40MjctNjEuNTgyLDI5LjM1Ny05NC42ODgNCgkJCQljMzIuMzE1LTAuMzcxLDY0LjAwMS0wLjgxNiw5NC45ODgtMS4zMzdDMTMyNi40MjYsMTQ3Ny40NTQsMTMxMi45NzQsMTUwOS4wOTEsMTI5OC4zNDYsMTUzOC45NDN6Ii8+DQoJCQk8cGF0aCBkPSJNMTM4OS44MDcsMTUzNi43OTRjLTI0Ljc2NywwLjY5My01MC4zNDQsMS4zMDktNzYuNjc3LDEuODUzYzE1LjMxOS0yOS44MzMsMjkuNDItNjEuNDcxLDQyLjMzNi05NC42NTQNCgkJCQljMjkuNzczLTAuNTMzLDU4LjY4MS0xLjEzNSw4Ni42NjEtMS44MTRDMTQyNi4xMjUsMTQ3NS40MjMsMTQwOC42NzUsMTUwNy4wNjMsMTM4OS44MDcsMTUzNi43OTR6Ii8+DQoJCQk8cGF0aCBkPSJNMTQ3MC40NTMsMTUzNC4xMjhjLTIxLjQ5NSwwLjgzNi00My45NzMsMS41OTUtNjcuMzg3LDIuMjg1YzE5LjQ3NS0yOS43MTQsMzcuNTAxLTYxLjM1Miw1NC4wMzYtOTQuNjA3DQoJCQkJYzI2LjQzMi0wLjY3Niw1MS43OTUtMS40MTcsNzYuMDM1LTIuMjM1QzE1MTMuOTEyLDE0NzIuODcxLDE0OTIuOTgyLDE1MDQuNDk5LDE0NzAuNDUzLDE1MzQuMTI4eiIvPg0KCQkJPHBhdGggZD0iTTE1MzguMjMsMTUzMS4wMjJjLTE3LjY4NSwwLjk1OS0zNi40OTMsMS44MzctNTYuMzg4LDIuNjUxYzIzLjAzOS0yOS42MTUsNDQuNDU2LTYxLjI0LDY0LjEzMi05NC41NDcNCgkJCQljMjIuNDExLTAuNzk2LDQzLjU4NS0xLjY1Myw2My40NzgtMi41OUMxNTg3LjU2MiwxNDY5Ljg2NiwxNTYzLjc2NCwxNTAxLjQ3MSwxNTM4LjIzLDE1MzEuMDIyeiIvPg0KCQkJPHBhdGggZD0iTTE1OTEuNTAzLDE1MjcuNTY0Yy0xMy40NTcsMS4wNjMtMjguMTQ2LDIuMDMyLTQ0LjAzNCwyLjk0MmMyNS45MzYtMjkuNTQxLDUwLjEyLTYxLjE0MSw3Mi4zNjgtOTQuNDczDQoJCQkJYzE3Ljg0NS0wLjg4OCwzNC4zMjUtMS44MzQsNDkuNDA3LTIuODcxQzE2NDUuMzE0LDE0NjYuNDk1LDE2MTkuMzI3LDE0OTguMDY4LDE1OTEuNTAzLDE1MjcuNTY0eiIvPg0KCQkJPHBhdGggZD0iTTE2MjkuMDg1LDE1MjMuODUyYy04LjkzOCwxLjE1NS0xOS4xODUsMi4xNzktMzAuNzA5LDMuMTUxYzI4LjExMi0yOS40OSw1NC4zNzUtNjEuMDU4LDc4LjU2MS05NC4zODgNCgkJCQljMTIuODgzLTAuOTQ3LDI0LjMxNi0xLjk0NCwzNC4yNjgtMy4wNzFDMTY4NS45MDcsMTQ2Mi44NTMsMTY1OC40NSwxNDk0LjM5MSwxNjI5LjA4NSwxNTIzLjg1MnoiLz4NCgkJCTxwYXRoIGQ9Ik0xNjUwLjI1NiwxNTE5Ljk4NGMtNC4yMjcsMS4yODctOS44NjgsMi4yODgtMTYuODA1LDMuMjc2YzI5LjUzNS0yOS40NTcsNTcuMTU1LTYwLjk5LDgyLjYwMy05NC4yOTINCgkJCQljNy42NzgtMC45NTksMTMuODg3LTEuOTI2LDE4LjUxNS0zLjE4OEMxNzA4LjU5LDE0NTkuMDQsMTY4MC4zOTcsMTQ5MC41NDEsMTY1MC4yNTYsMTUxOS45ODR6Ii8+DQoJCQk8cGF0aCBkPSJNMTY1NC43NSwxNTE2LjA2M2MwLjgyNCwwLjg0Ni0wLjM4NiwyLjQyOC0yLjcwNiwzLjMxNWMzMC4xOTMtMjkuNDQyLDU4LjQzNS02MC45MzcsODQuNDU4LTk0LjE4Nw0KCQkJCWMyLjQ0Ni0wLjg0NiwzLjU2NS0yLjQ1NCwyLjU4Ny0zLjIyMUMxNzEzLjExMiwxNDU1LjE2LDE2ODQuOTExLDE0ODYuNjIyLDE2NTQuNzUsMTUxNi4wNjN6Ii8+DQoJCQk8cGF0aCBkPSJNNDUyLjM1LDE2MTcuMjQ1Yy0yLjA3LTAuODQ5LTMuMjk4LTIuMjQ5LTIuNjk1LTMuMTEzYy0zNC41MjMtMjQuMTc3LTY3LjQ0LTUwLjY2Ni05OC40NDMtNzkuMjE4DQoJCQkJYy0wLjc4NywwLjg1NiwwLjQzNSwyLjQxNywyLjcxOCwzLjMwNEMzODQuOTM4LDE1NjYuNzM2LDQxNy44NDksMTU5My4xNjIsNDUyLjM1LDE2MTcuMjQ1eiIvPg0KCQkJPHBhdGggZD0iTTQ2OC4xNDIsMTYyMC44ODRjLTUuODM5LTAuOTI4LTEwLjYyMy0xLjg3NS0xNC4yMzgtMy4wN2MtMzQuNDMtMjQuMDY3LTY3LjI3NS01MC40ODEtOTguMjIxLTc4Ljk5MQ0KCQkJCWM0LjEyOCwxLjI4LDkuNjMxLDIuMjgsMTYuMzg3LDMuMjY0QzQwMi4zMzYsMTU3MC41NDgsNDM0LjQ2MywxNTk2LjkwMSw0NjguMTQyLDE2MjAuODg0eiIvPg0KCQkJPHBhdGggZD0iTTQ5Ny4zNzksMTYyNC4zODVjLTkuNTc1LTAuOTEtMTguMTExLTEuODY5LTI1LjU3Ny0yLjk0OGMtMzMuNDc0LTIzLjk2OS02NS40MDQtNTAuMzExLTk1LjQ4My03OC43NjINCgkJCQljOC42OTQsMS4xNSwxOC42NTgsMi4xNywyOS44NTgsMy4xMzlDNDM0Ljg4OSwxNTc0LjIwMSw0NjUuMzg2LDE2MDAuNDg1LDQ5Ny4zNzksMTYyNC4zODV6Ii8+DQoJCQk8cGF0aCBkPSJNNTM5LjQ4MSwxNjI3LjY1NmMtMTMuMTE2LTAuODUtMjUuMjU5LTEuNzU1LTM2LjQwMi0yLjc0N2MtMzEuNjU2LTIzLjg5LTYxLjgyNS01MC4xNjMtOTAuMjI0LTc4LjUzNg0KCQkJCWMxMy4wNzEsMS4wNTgsMjcuMzM0LDIuMDIzLDQyLjc1OSwyLjkzQzQ4MS45NzgsMTU3Ny41OTQsNTEwLjAxNywxNjAzLjgxNCw1MzkuNDgxLDE2MjcuNjU2eiIvPg0KCQkJPHBhdGggZD0iTTU5My41LDE2MzAuNjA4Yy0xNi4zNTUtMC43NTktMzEuODMyLTEuNTc3LTQ2LjQwMS0yLjQ3MWMtMjktMjMuODM2LTU2LjU4Ni01MC4wNDctODIuNTE3LTc4LjMyMQ0KCQkJCWMxNy4xNjMsMC45NTUsMzUuNDEzLDEuODI5LDU0LjcxMywyLjY0QzU0Mi41NjUsMTU4MC42MjksNTY3LjM2MywxNjA2Ljc5Miw1OTMuNSwxNjMwLjYwOHoiLz4NCgkJCTxwYXRoIGQ9Ik02NTguMTMyLDE2MzMuMTU4Yy0xOS4xOTItMC42NDMtMzcuNjMtMS4zNDgtNTUuMjc2LTIuMTI3Yy0yNS41NTQtMjMuODE1LTQ5Ljc4NC00OS45Ny03Mi41MTQtNzguMTIzDQoJCQkJYzIwLjg0OCwwLjgzMyw0Mi42NDcsMS41ODcsNjUuMzUxLDIuMjc0QzYxNS4yMDcsMTU4My4yMTYsNjM2LjA1MywxNjA5LjMyNSw2NTguMTMyLDE2MzMuMTU4eiIvPg0KCQkJPHBhdGggZD0iTTczMS43NDUsMTYzNS4yMzRjLTIxLjUzOS0wLjUwNS00Mi40Ny0xLjA3Ny02Mi43NS0xLjcyMmMtMjEuMzktMjMuODQtNDEuNTY3LTQ5Ljk0LTYwLjQ0Ni03Ny45NQ0KCQkJCWMyNC4wMTEsMC42OSw0OC44MDYsMS4zMDIsNzQuMzMsMS44NDNDNjk4LjA4NCwxNTg1LjI4LDcxNC4zNjksMTYxMS4zMzIsNzMxLjc0NSwxNjM1LjIzNHoiLz4NCgkJCTxwYXRoIGQ9Ik04MTIuNDE4LDE2MzYuNzc2Yy0yMy4zMTgtMC4zNTItNDYuMTk2LTAuNzczLTY4LjU4NS0xLjI2N2MtMTYuNTk1LTIzLjkxNy0zMi4xMjgtNDkuOTYtNDYuNjI0LTc3LjgwOQ0KCQkJCWMyNi41NDgsMC41Myw1My42ODUsMC45ODEsODEuMzUyLDEuMzU4Qzc4OS4wNDUsMTU4Ni43NzEsODAwLjI5NywxNjEyLjc1OSw4MTIuNDE4LDE2MzYuNzc2eiIvPg0KCQkJPHBhdGggZD0iTTg5Ny45OTksMTYzNy43NGMtMjQuNDcyLTAuMTg2LTQ4LjY4NS0wLjQ0NC03Mi41ODYtMC43NzZjLTExLjI2NS0yNC4wMzgtMjEuNzA1LTUwLjAxNS0zMS40My03Ny43MDUNCgkJCQljMjguMzcsMC4zNTUsNTcuMTE3LDAuNjMyLDg2LjE3NiwwLjgzMkM4ODUuNjYsMTU4Ny42NzIsODkxLjU3LDE2MTMuNTk1LDg5Ny45OTksMTYzNy43NHoiLz4NCgkJCTxwYXRoIGQ9Ik05ODYuMTcyLDE2MzguMDk2Yy0yNC45NjEtMC4wMTQtNDkuODUzLTAuMS03NC42MjItMC4yNjFjLTUuNTE4LTI0LjE2LTEwLjU4My01MC4wNzUtMTUuMjk5LTc3LjY0Mg0KCQkJCWMyOS40MTcsMC4xNzIsNTguOTgyLDAuMjY2LDg4LjYzMSwwLjI4Qzk4NS4yNzksMTU4Ny45OTgsOTg1LjcwNSwxNjEzLjg4OCw5ODYuMTcyLDE2MzguMDk2eiIvPg0KCQkJPHBhdGggZD0iTTEwNzQuNTMyLDE2MzcuODM1Yy0yNC43NjksMC4xNjEtNDkuNjYxLDAuMjQ3LTc0LjYyMiwwLjI2MWMwLjQ2Ni0yNC4yMDgsMC44OTMtNTAuMDk5LDEuMjktNzcuNjIzDQoJCQkJYzI5LjY0OS0wLjAxNSw1OS4yMTQtMC4xMDgsODguNjMxLTAuMjhDMTA4NS4xMTUsMTU4Ny43NiwxMDgwLjA0OSwxNjEzLjY3NSwxMDc0LjUzMiwxNjM3LjgzNXoiLz4NCgkJCTxwYXRoIGQ9Ik0xMTYwLjY2OSwxNjM2Ljk2NGMtMjMuOTAxLDAuMzMyLTQ4LjExNCwwLjU4OS03Mi41ODcsMC43NzZjNi40MjktMjQuMTQ0LDEyLjMzOS01MC4wNjcsMTcuODQxLTc3LjY0OQ0KCQkJCWMyOS4wNTktMC4yLDU3LjgwNS0wLjQ3Niw4Ni4xNzYtMC44MzJDMTE4Mi4zNzQsMTU4Ni45NDksMTE3MS45MzQsMTYxMi45MjYsMTE2MC42NjksMTYzNi45NjR6Ii8+DQoJCQk8cGF0aCBkPSJNMTI0Mi4yNDksMTYzNS41MDljLTIyLjM4OCwwLjQ5NC00NS4yNjYsMC45MTUtNjguNTg1LDEuMjY3YzEyLjEyMS0yNC4wMTcsMjMuMzczLTUwLjAwNSwzMy44NTctNzcuNzE4DQoJCQkJYzI3LjY2OC0wLjM3Nyw1NC44MDUtMC44MjgsODEuMzUyLTEuMzU4QzEyNzQuMzc2LDE1ODUuNTQ5LDEyNTguODQzLDE2MTEuNTkyLDEyNDIuMjQ5LDE2MzUuNTA5eiIvPg0KCQkJPHBhdGggZD0iTTEzMTcuMDg3LDE2MzMuNTEyYy0yMC4yOCwwLjY0NC00MS4yMTIsMS4yMTYtNjIuNzUsMS43MjJjMTcuMzc1LTIzLjkwMSwzMy42NjEtNDkuOTU0LDQ4Ljg2Ni03Ny44MjgNCgkJCQljMjUuNTI1LTAuNTQxLDUwLjMxOS0xLjE1NCw3NC4zMy0xLjg0M0MxMzU4LjY1NCwxNTgzLjU3MiwxMzM4LjQ3OCwxNjA5LjY3MiwxMzE3LjA4NywxNjMzLjUxMnoiLz4NCgkJCTxwYXRoIGQ9Ik0xMzgzLjIyNSwxNjMxLjAzMWMtMTcuNjQ2LDAuNzc4LTM2LjA4NCwxLjQ4NC01NS4yNzYsMi4xMjdjMjIuMDc5LTIzLjgzMyw0Mi45MjUtNDkuOTQxLDYyLjQzOS03Ny45NzUNCgkJCQljMjIuNzA0LTAuNjg3LDQ0LjUwMi0xLjQ0Miw2NS4zNTEtMi4yNzRDMTQzMy4wMSwxNTgxLjA2MiwxNDA4Ljc4LDE2MDcuMjE2LDEzODMuMjI1LDE2MzEuMDMxeiIvPg0KCQkJPHBhdGggZD0iTTE0MzguOTgzLDE2MjguMTM3Yy0xNC41NjgsMC44OTQtMzAuMDQ2LDEuNzEyLTQ2LjQwMSwyLjQ3MWMyNi4xMzctMjMuODE2LDUwLjkzNS00OS45NzksNzQuMjA2LTc4LjE1Mg0KCQkJCWMxOS4zLTAuODExLDM3LjU1LTEuNjg0LDU0LjcxMy0yLjY0QzE0OTUuNTY5LDE1NzguMDksMTQ2Ny45ODIsMTYwNC4zMDEsMTQzOC45ODMsMTYyOC4xMzd6Ii8+DQoJCQk8cGF0aCBkPSJNMTQ4My4wMDIsMTYyNC45MWMtMTEuMTQzLDAuOTkyLTIzLjI4NiwxLjg5Ny0zNi40MDIsMi43NDdjMjkuNDY0LTIzLjg0Miw1Ny41MDMtNTAuMDYyLDgzLjg2Ny03OC4zNTMNCgkJCQljMTUuNDI1LTAuOTA2LDI5LjY4OC0xLjg3MSw0Mi43NTktMi45M0MxNTQ0LjgyNywxNTc0Ljc0NiwxNTE0LjY1OCwxNjAxLjAyLDE0ODMuMDAyLDE2MjQuOTF6Ii8+DQoJCQk8cGF0aCBkPSJNMTUxNC4yOCwxNjIxLjQzOGMtNy40NjYsMS4wNzktMTYuMDAyLDIuMDM4LTI1LjU3NywyLjk0OGMzMS45OTQtMjMuOTAxLDYyLjQ5LTUwLjE4NCw5MS4yMDItNzguNTcNCgkJCQljMTEuMi0wLjk2OSwyMS4xNjQtMS45ODksMjkuODU4LTMuMTM5QzE1NzkuNjgzLDE1NzEuMTI3LDE1NDcuNzU0LDE1OTcuNDY5LDE1MTQuMjgsMTYyMS40Mzh6Ii8+DQoJCQk8cGF0aCBkPSJNMTUzMi4xNzgsMTYxNy44MTRjLTMuNjE1LDEuMTk2LTguMzk5LDIuMTQzLTE0LjIzOSwzLjA3YzMzLjY3OS0yMy45ODMsNjUuODA2LTUwLjMzNiw5Ni4wNzMtNzguNzk3DQoJCQkJYzYuNzU2LTAuOTg0LDEyLjI1OS0xLjk4NCwxNi4zODctMy4yNjRDMTU5OS40NTMsMTU2Ny4zMzMsMTU2Ni42MDgsMTU5My43NDcsMTUzMi4xNzgsMTYxNy44MTR6Ii8+DQoJCQk8cGF0aCBkPSJNMTUzNi40MjcsMTYxNC4xMzFjMC42MDQsMC44NjQtMC42MjQsMi4yNjQtMi42OTUsMy4xMTNjMzQuNTAxLTI0LjA4Myw2Ny40MTEtNTAuNTA4LDk4LjQxOS03OS4wMjcNCgkJCQljMi4yODQtMC44ODgsMy41MDUtMi40NDgsMi43MTgtMy4zMDRDMTYwMy44NjcsMTU2My40NjYsMTU3MC45NSwxNTg5Ljk1NCwxNTM2LjQyNywxNjE0LjEzMXoiLz4NCgkJPC9nPg0KCTwvZz4NCjwvZz4NCjwvc3ZnPg0K;imageBackground=none;imageBorder=none;" vertex="1" parent="4KK3DppAldW4RQbn6xzX-74">
          <mxGeometry y="10" width="140" height="117.94" as="geometry" />
        </mxCell>
        <mxCell id="4KK3DppAldW4RQbn6xzX-69" value="&lt;span style=&quot;font-weight: normal;&quot;&gt;DATA FLOW&lt;/span&gt;&lt;div&gt;ATLAS&lt;/div&gt;" style="text;strokeColor=none;align=center;fillColor=#0000FF;html=1;verticalAlign=middle;whiteSpace=wrap;rounded=1;fontSize=16;fontStyle=1;arcSize=50;fontColor=#00FFFF;absoluteArcSize=0;" vertex="1" parent="4KK3DppAldW4RQbn6xzX-74">
          <mxGeometry x="1.25" y="47.5" width="136" height="42.5" as="geometry" />
        </mxCell>
        <mxCell id="4KK3DppAldW4RQbn6xzX-70" value="" style="html=1;shadow=0;dashed=0;align=center;verticalAlign=middle;shape=mxgraph.arrows2.stripedArrow;dy=0.6;dx=40;notch=25;fillColor=#00FFFF;" vertex="1" parent="4KK3DppAldW4RQbn6xzX-74">
          <mxGeometry x="19.25" y="19.5" width="100" height="25" as="geometry" />
        </mxCell>
        <mxCell id="4KK3DppAldW4RQbn6xzX-71" value="" style="html=1;shadow=0;dashed=0;align=center;verticalAlign=middle;shape=mxgraph.arrows2.stripedArrow;dy=0.6;dx=40;notch=25;fillColor=#00FFFF;direction=west;" vertex="1" parent="4KK3DppAldW4RQbn6xzX-74">
          <mxGeometry x="19.25" y="92.5" width="100" height="25" as="geometry" />
        </mxCell>
        <mxCell id="4KK3DppAldW4RQbn6xzX-72" value="" style="ellipse;whiteSpace=wrap;html=1;aspect=fixed;fillColor=none;strokeColor=#00FFFF;strokeWidth=2;" vertex="1" parent="4KK3DppAldW4RQbn6xzX-74">
          <mxGeometry x="0.5" width="137.5" height="137.5" as="geometry" />
        </mxCell>
        <mxCell id="4KK3DppAldW4RQbn6xzX-81" value="" style="group" vertex="1" connectable="0" parent="1">
          <mxGeometry x="1682" y="544.5" width="137.5" height="137.5" as="geometry" />
        </mxCell>
        <mxCell id="4KK3DppAldW4RQbn6xzX-76" value="" style="ellipse;whiteSpace=wrap;html=1;aspect=fixed;fillColor=#003300;strokeColor=#00FFFF;strokeWidth=2;" vertex="1" parent="4KK3DppAldW4RQbn6xzX-81">
          <mxGeometry width="137.5" height="137.5" as="geometry" />
        </mxCell>
        <mxCell id="4KK3DppAldW4RQbn6xzX-77" value="&lt;span style=&quot;font-weight: normal;&quot;&gt;DATA FLOW&lt;/span&gt;&lt;div&gt;ATLAS&lt;/div&gt;" style="text;strokeColor=none;align=center;fillColor=#0000FF;html=1;verticalAlign=middle;whiteSpace=wrap;rounded=1;fontSize=16;fontStyle=1;arcSize=50;fontColor=#00FFFF;absoluteArcSize=0;gradientColor=default;gradientDirection=radial;" vertex="1" parent="4KK3DppAldW4RQbn6xzX-81">
          <mxGeometry x="0.75" y="47.5" width="136" height="42.5" as="geometry" />
        </mxCell>
        <mxCell id="4KK3DppAldW4RQbn6xzX-78" value="" style="html=1;shadow=0;dashed=0;align=center;verticalAlign=middle;shape=mxgraph.arrows2.stripedArrow;dy=0.6;dx=40;notch=25;fillColor=#00FFFF;" vertex="1" parent="4KK3DppAldW4RQbn6xzX-81">
          <mxGeometry x="18.75" y="19.5" width="100" height="25" as="geometry" />
        </mxCell>
        <mxCell id="4KK3DppAldW4RQbn6xzX-79" value="" style="html=1;shadow=0;dashed=0;align=center;verticalAlign=middle;shape=mxgraph.arrows2.stripedArrow;dy=0.6;dx=40;notch=25;fillColor=#00FFFF;direction=west;" vertex="1" parent="4KK3DppAldW4RQbn6xzX-81">
          <mxGeometry x="18.75" y="92.5" width="100" height="25" as="geometry" />
        </mxCell>
        <mxCell id="4KK3DppAldW4RQbn6xzX-80" value="" style="ellipse;whiteSpace=wrap;html=1;aspect=fixed;fillColor=none;strokeColor=#00FFFF;strokeWidth=2;" vertex="1" parent="4KK3DppAldW4RQbn6xzX-81">
          <mxGeometry width="137.5" height="137.5" as="geometry" />
        </mxCell>
        <mxCell id="4KK3DppAldW4RQbn6xzX-112" value="" style="group" vertex="1" connectable="0" parent="1">
          <mxGeometry x="1596.25" y="371" width="137.5" height="137.5" as="geometry" />
        </mxCell>
        <mxCell id="4KK3DppAldW4RQbn6xzX-83" value="" style="ellipse;whiteSpace=wrap;html=1;aspect=fixed;fillColor=#003300;strokeColor=#00FFFF;strokeWidth=2;" vertex="1" parent="4KK3DppAldW4RQbn6xzX-112">
          <mxGeometry width="137.5" height="137.5" as="geometry" />
        </mxCell>
        <mxCell id="4KK3DppAldW4RQbn6xzX-84" value="&lt;span style=&quot;font-weight: normal;&quot;&gt;DATA FLOW&lt;/span&gt;&lt;div&gt;ATLAS&lt;/div&gt;" style="text;strokeColor=#00FFFF;align=center;fillColor=#0000FF;html=1;verticalAlign=middle;whiteSpace=wrap;rounded=1;fontSize=16;fontStyle=1;arcSize=50;fontColor=#00FFFF;absoluteArcSize=0;gradientColor=none;gradientDirection=radial;strokeWidth=1;strokeOpacity=50;" vertex="1" parent="4KK3DppAldW4RQbn6xzX-112">
          <mxGeometry x="0.75" y="47.5" width="136" height="42.5" as="geometry" />
        </mxCell>
        <mxCell id="4KK3DppAldW4RQbn6xzX-85" value="" style="html=1;shadow=0;dashed=0;align=center;verticalAlign=middle;shape=mxgraph.arrows2.stripedArrow;dy=0.6;dx=40;notch=25;fillColor=#00FFFF;" vertex="1" parent="4KK3DppAldW4RQbn6xzX-112">
          <mxGeometry x="18.75" y="19.5" width="100" height="25" as="geometry" />
        </mxCell>
        <mxCell id="4KK3DppAldW4RQbn6xzX-86" value="" style="html=1;shadow=0;dashed=0;align=center;verticalAlign=middle;shape=mxgraph.arrows2.stripedArrow;dy=0.6;dx=40;notch=25;fillColor=#00FFFF;direction=west;" vertex="1" parent="4KK3DppAldW4RQbn6xzX-112">
          <mxGeometry x="18.75" y="92.5" width="100" height="25" as="geometry" />
        </mxCell>
        <mxCell id="4KK3DppAldW4RQbn6xzX-87" value="" style="ellipse;whiteSpace=wrap;html=1;aspect=fixed;fillColor=none;strokeColor=#00FFFF;strokeWidth=2;" vertex="1" parent="4KK3DppAldW4RQbn6xzX-112">
          <mxGeometry width="137.5" height="137.5" as="geometry" />
        </mxCell>
        <mxCell id="4KK3DppAldW4RQbn6xzX-110" value="" style="group" vertex="1" connectable="0" parent="4KK3DppAldW4RQbn6xzX-112">
          <mxGeometry x="119" y="51.75" width="17" height="34" as="geometry" />
        </mxCell>
        <mxCell id="4KK3DppAldW4RQbn6xzX-101" value="" style="shape=requiredInterface;html=1;verticalLabelPosition=bottom;sketch=0;strokeColor=#00FFFF;opacity=60;" vertex="1" parent="4KK3DppAldW4RQbn6xzX-110">
          <mxGeometry width="17" height="34" as="geometry" />
        </mxCell>
        <mxCell id="4KK3DppAldW4RQbn6xzX-102" value="" style="shape=requiredInterface;html=1;verticalLabelPosition=bottom;sketch=0;strokeColor=#00FFFF;opacity=60;" vertex="1" parent="4KK3DppAldW4RQbn6xzX-110">
          <mxGeometry x="2" y="4" width="15" height="26" as="geometry" />
        </mxCell>
        <mxCell id="4KK3DppAldW4RQbn6xzX-103" value="" style="shape=requiredInterface;html=1;verticalLabelPosition=bottom;sketch=0;strokeColor=#00FFFF;opacity=60;" vertex="1" parent="4KK3DppAldW4RQbn6xzX-110">
          <mxGeometry x="5" y="8" width="12" height="18" as="geometry" />
        </mxCell>
        <mxCell id="4KK3DppAldW4RQbn6xzX-111" value="" style="group" vertex="1" connectable="0" parent="4KK3DppAldW4RQbn6xzX-112">
          <mxGeometry x="1" y="51.75" width="17" height="34" as="geometry" />
        </mxCell>
        <mxCell id="4KK3DppAldW4RQbn6xzX-106" value="" style="shape=requiredInterface;html=1;verticalLabelPosition=bottom;sketch=0;strokeColor=#00FFFF;rotation=-180;opacity=60;" vertex="1" parent="4KK3DppAldW4RQbn6xzX-111">
          <mxGeometry width="17" height="34" as="geometry" />
        </mxCell>
        <mxCell id="4KK3DppAldW4RQbn6xzX-107" value="" style="shape=requiredInterface;html=1;verticalLabelPosition=bottom;sketch=0;strokeColor=#00FFFF;rotation=-180;opacity=60;" vertex="1" parent="4KK3DppAldW4RQbn6xzX-111">
          <mxGeometry y="4" width="15" height="26" as="geometry" />
        </mxCell>
        <mxCell id="4KK3DppAldW4RQbn6xzX-108" value="" style="shape=requiredInterface;html=1;verticalLabelPosition=bottom;sketch=0;strokeColor=#00FFFF;rotation=-180;opacity=60;" vertex="1" parent="4KK3DppAldW4RQbn6xzX-111">
          <mxGeometry y="8" width="12" height="18" as="geometry" />
        </mxCell>
      </root>
    </mxGraphModel>
  </diagram>
</mxfile>
